G04 Layer_Physical_Order=1*
G04 Layer_Color=255*
%FSLAX25Y25*%
%MOIN*%
G70*
G01*
G75*
%ADD10C,0.00700*%
%ADD11C,0.00394*%
%ADD12R,0.05512X0.04724*%
%ADD13O,0.07480X0.02362*%
%ADD14C,0.01000*%
%ADD15C,0.02500*%
%ADD16C,0.03000*%
%ADD17C,0.00200*%
%ADD18C,0.00100*%
%ADD19C,0.00600*%
%ADD20C,0.05905*%
%ADD21R,0.05905X0.05905*%
%ADD22C,0.03000*%
G36*
X243000Y83500D02*
X245500Y78500D01*
Y56000D01*
X243000Y51000D01*
X238000Y48500D01*
X215500Y48500D01*
X210500Y51000D01*
X208000Y56000D01*
X208000Y78500D01*
X210500Y83500D01*
X215500Y86000D01*
X238000Y86000D01*
X243000Y83500D01*
D02*
G37*
G36*
X143000D02*
X145500Y78500D01*
Y56000D01*
X143000Y51000D01*
X138000Y48500D01*
X115500Y48500D01*
X110500Y51000D01*
X108000Y56000D01*
X108000Y78500D01*
X110500Y83500D01*
X115500Y86000D01*
X138000Y86000D01*
X143000Y83500D01*
D02*
G37*
G36*
X243000Y153500D02*
X245500Y148500D01*
Y126000D01*
X243000Y121000D01*
X238000Y118500D01*
X215500Y118500D01*
X210500Y121000D01*
X208000Y126000D01*
X208000Y148500D01*
X210500Y153500D01*
X215500Y156000D01*
X238000Y156000D01*
X243000Y153500D01*
D02*
G37*
G36*
X143000D02*
X145500Y148500D01*
Y126000D01*
X143000Y121000D01*
X138000Y118500D01*
X115500Y118500D01*
X110500Y121000D01*
X108000Y126000D01*
X108000Y148500D01*
X110500Y153500D01*
X115500Y156000D01*
X138000Y156000D01*
X143000Y153500D01*
D02*
G37*
D10*
X331078Y192050D02*
G03*
X330400Y192250I-678J-1050D01*
G01*
X329878D02*
G03*
X329200Y192450I-678J-1050D01*
G01*
X328278Y192650D02*
G03*
X327600Y192850I-678J-1050D01*
G01*
X329078Y192450D02*
G03*
X328400Y192650I-678J-1050D01*
G01*
X332478Y191650D02*
G03*
X332150Y191800I-678J-1050D01*
G01*
X332150Y191800D02*
G03*
X331400Y192050I-750J-1000D01*
G01*
X322878Y193650D02*
G03*
X322200Y193850I-678J-1050D01*
G01*
X324278Y193450D02*
G03*
X323600Y193650I-678J-1050D01*
G01*
X321878Y193850D02*
G03*
X321200Y194050I-678J-1050D01*
G01*
X326278Y193050D02*
G03*
X325682Y193247I-678J-1050D01*
G01*
X327478Y192850D02*
G03*
X326800Y193050I-678J-1050D01*
G01*
X325682Y193247D02*
G03*
X325000Y193450I-682J-1047D01*
G01*
X342282Y184647D02*
G03*
X341682Y184847I-682J-1047D01*
G01*
X343122Y184244D02*
G03*
X342282Y184647I-922J-844D01*
G01*
X341082Y185047D02*
G03*
X340750Y185200I-682J-1047D01*
G01*
X341682Y184847D02*
G03*
X341082Y185047I-682J-1047D01*
G01*
X344178Y177622D02*
G03*
X344650Y178600I-778J978D01*
G01*
X343750Y184000D02*
G03*
X343122Y184244I-750J-1000D01*
G01*
X344650Y182800D02*
G03*
X343750Y184000I-1250J0D01*
G01*
X339150Y185800D02*
G03*
X338482Y186047I-750J-1000D01*
G01*
X338482D02*
G03*
X337882Y186247I-682J-1047D01*
G01*
X339482Y185647D02*
G03*
X339150Y185800I-682J-1047D01*
G01*
X337450Y190400D02*
G03*
X336200Y191650I-1250J0D01*
G01*
X337882Y186247D02*
G03*
X337450Y186425I-682J-1047D01*
G01*
X340750Y185200D02*
G03*
X340082Y185447I-750J-1000D01*
G01*
D02*
G03*
X339482Y185647I-682J-1047D01*
G01*
X334683Y168950D02*
G03*
X335600Y168550I917J850D01*
G01*
X333922Y169150D02*
G03*
X334600Y168950I678J1050D01*
G01*
X334250Y168200D02*
G03*
X333812Y169150I-1250J0D01*
G01*
X314878Y194450D02*
G03*
X314200Y194650I-678J-1050D01*
G01*
X310478D02*
G03*
X309800Y194850I-678J-1050D01*
G01*
X309400Y194850D02*
G03*
X308722Y194650I0J-1250D01*
G01*
X320278Y194050D02*
G03*
X319600Y194250I-678J-1050D01*
G01*
X317878D02*
G03*
X317200Y194450I-678J-1050D01*
G01*
X304800Y194650D02*
G03*
X304122Y194450I0J-1250D01*
G01*
X301800D02*
G03*
X301122Y194250I0J-1250D01*
G01*
X299400D02*
G03*
X298722Y194050I0J-1250D01*
G01*
X297800D02*
G03*
X297122Y193850I0J-1250D01*
G01*
X296800D02*
G03*
X296122Y193650I0J-1250D01*
G01*
X295400D02*
G03*
X294722Y193450I0J-1250D01*
G01*
X294000D02*
G03*
X293318Y193247I0J-1250D01*
G01*
X293318D02*
G03*
X292722Y193050I82J-1247D01*
G01*
X292200D02*
G03*
X291522Y192850I0J-1250D01*
G01*
X291400D02*
G03*
X290722Y192650I0J-1250D01*
G01*
X290600D02*
G03*
X289922Y192450I0J-1250D01*
G01*
X289800D02*
G03*
X289122Y192250I0J-1250D01*
G01*
X288600D02*
G03*
X287922Y192050I0J-1250D01*
G01*
X288750Y170200D02*
G03*
X289078Y170350I-350J1200D01*
G01*
X289222Y169978D02*
G03*
X288754Y168900I778J-978D01*
G01*
X288000Y169950D02*
G03*
X288750Y170200I0J1250D01*
G01*
X287200Y169750D02*
G03*
X287878Y169950I0J1250D01*
G01*
X338250Y167600D02*
G03*
X338918Y167353I750J1000D01*
G01*
X338918D02*
G03*
X339518Y167153I682J1047D01*
G01*
X337318Y167953D02*
G03*
X337918Y167753I682J1047D01*
G01*
X336650Y168200D02*
G03*
X337318Y167953I750J1000D01*
G01*
X337918Y167753D02*
G03*
X338250Y167600I682J1047D01*
G01*
X341478Y166356D02*
G03*
X342400Y165950I922J844D01*
G01*
X340918Y166553D02*
G03*
X341478Y166356I682J1047D01*
G01*
X342600Y165950D02*
G03*
X343850Y167200I0J1250D01*
G01*
X339518Y167153D02*
G03*
X340078Y166956I682J1047D01*
G01*
X340078D02*
G03*
X340917Y166553I922J844D01*
G01*
X336318Y168353D02*
G03*
X336650Y168200I682J1047D01*
G01*
X335722Y168550D02*
G03*
X336318Y168353I678J1050D01*
G01*
X334000Y167050D02*
G03*
X334250Y167800I-1000J750D01*
G01*
X333596Y166436D02*
G03*
X334000Y167050I-796J964D01*
G01*
X333400Y166050D02*
G03*
X333596Y166436I-1000J750D01*
G01*
X332996Y165436D02*
G03*
X333400Y166050I-796J964D01*
G01*
X333050Y164800D02*
G03*
X332946Y165300I-1250J0D01*
G01*
X332596Y163436D02*
G03*
X333050Y164400I-796J964D01*
G01*
X331931Y162669D02*
G03*
X332596Y163436I-531J1131D01*
G01*
X331164Y162004D02*
G03*
X331931Y162669I-364J1196D01*
G01*
X329964Y161004D02*
G03*
X330578Y161422I-364J1196D01*
G01*
X329643Y160728D02*
G03*
X329964Y161004I-643J1072D01*
G01*
X329178Y159622D02*
G03*
X329650Y160600I-778J978D01*
G01*
X328550Y159200D02*
G03*
X329178Y159622I-350J1200D01*
G01*
X328164Y159004D02*
G03*
X328550Y159200I-364J1196D01*
G01*
X327550Y158600D02*
G03*
X328164Y159004I-350J1200D01*
G01*
X326800Y158350D02*
G03*
X327550Y158600I0J1250D01*
G01*
X326350Y158200D02*
G03*
X326678Y158350I-350J1200D01*
G01*
X325850Y155400D02*
G03*
X325647Y156082I-1250J0D01*
G01*
Y154118D02*
G03*
X325850Y154800I-1047J682D01*
G01*
X325600Y157950D02*
G03*
X326350Y158200I0J1250D01*
G01*
X325610Y153485D02*
G03*
X325650Y153800I-1210J315D01*
G01*
X294450Y159600D02*
G03*
X295118Y159353I750J1000D01*
G01*
X294050Y159800D02*
G03*
X294450Y159600I750J1000D01*
G01*
X295118Y159353D02*
G03*
X295718Y159153I682J1047D01*
G01*
X293036Y160404D02*
G03*
X293650Y160000I964J796D01*
G01*
X292718Y160553D02*
G03*
X293036Y160404I682J1047D01*
G01*
X293650Y160000D02*
G03*
X294050Y159800I750J1000D01*
G01*
X297171Y158571D02*
G03*
X298400Y157550I1229J229D01*
G01*
X299122D02*
G03*
X299718Y157353I678J1050D01*
G01*
X295718Y159153D02*
G03*
X296400Y158950I682J1047D01*
G01*
X296483D02*
G03*
X297171Y158571I917J850D01*
G01*
X288754Y168700D02*
G03*
X288880Y168046I1246J-100D01*
G01*
X288422Y167578D02*
G03*
X287954Y166500I778J-978D01*
G01*
X288604Y165236D02*
G03*
X289022Y164622I1196J364D01*
G01*
X287954Y166500D02*
G03*
X288422Y165422I1246J-100D01*
G01*
X291422Y161422D02*
G03*
X291739Y161139I978J778D01*
G01*
X291023Y162820D02*
G03*
X291422Y161422I1177J-421D01*
G01*
X291739Y161139D02*
G03*
X292718Y160553I1061J661D01*
G01*
X290222Y163422D02*
G03*
X290836Y163004I978J778D01*
G01*
X325247Y157318D02*
G03*
X325449Y157950I-1047J682D01*
G01*
X325400Y156750D02*
G03*
X325247Y157082I-1200J-350D01*
G01*
X325647Y156082D02*
G03*
X325400Y156750I-1247J-82D01*
G01*
X300754Y154500D02*
G03*
X301149Y153485I1246J-100D01*
G01*
X300722Y157150D02*
G03*
X301019Y157009I678J1050D01*
G01*
X299718Y157353D02*
G03*
X300400Y157150I682J1047D01*
G01*
X301000Y156950D02*
G03*
X300754Y156100I1000J-750D01*
G01*
X287600Y192050D02*
G03*
X286850Y191800I0J-1250D01*
G01*
D02*
G03*
X286522Y191650I350J-1200D01*
G01*
X283400D02*
G03*
X282154Y190300I0J-1250D01*
G01*
X281800Y186450D02*
G03*
X281118Y186247I0J-1250D01*
G01*
X281118D02*
G03*
X280518Y186047I82J-1247D01*
G01*
D02*
G03*
X279850Y185800I82J-1247D01*
G01*
X279850D02*
G03*
X279518Y185647I350J-1200D01*
G01*
X279518D02*
G03*
X278918Y185447I82J-1247D01*
G01*
X278918D02*
G03*
X278250Y185200I82J-1247D01*
G01*
D02*
G03*
X277918Y185047I350J-1200D01*
G01*
X277918D02*
G03*
X277318Y184847I82J-1247D01*
G01*
X277318D02*
G03*
X276718Y184647I82J-1247D01*
G01*
X276718D02*
G03*
X275878Y184244I82J-1247D01*
G01*
X275878D02*
G03*
X275250Y184000I122J-1244D01*
G01*
X275353Y176881D02*
G03*
X275553Y176118I1247J-81D01*
G01*
X275554Y175500D02*
G03*
X275753Y174718I1246J-100D01*
G01*
X275250Y184000D02*
G03*
X274354Y182700I350J-1200D01*
G01*
Y178500D02*
G03*
X274822Y177422I1246J-100D01*
G01*
X286000Y169350D02*
G03*
X286916Y169750I0J1250D01*
G01*
X285200Y169150D02*
G03*
X285878Y169350I0J1250D01*
G01*
X284400Y168950D02*
G03*
X285078Y169150I0J1250D01*
G01*
X283400Y168550D02*
G03*
X284316Y168950I0J1250D01*
G01*
X282682Y168353D02*
G03*
X283278Y168550I-82J1247D01*
G01*
X282350Y168200D02*
G03*
X282682Y168353I-350J1200D01*
G01*
X281682Y167953D02*
G03*
X282350Y168200I-82J1247D01*
G01*
X281082Y167753D02*
G03*
X281682Y167953I-82J1247D01*
G01*
X280750Y167600D02*
G03*
X281082Y167753I-350J1200D01*
G01*
X280082Y167353D02*
G03*
X280750Y167600I-82J1247D01*
G01*
X279483Y167153D02*
G03*
X280082Y167353I-82J1247D01*
G01*
X276354Y171300D02*
G03*
X276553Y170518I1246J-100D01*
G01*
X276154Y172300D02*
G03*
X276353Y171518I1246J-100D01*
G01*
X276554Y170500D02*
G03*
X276753Y169718I1246J-100D01*
G01*
X275754Y174300D02*
G03*
X275953Y173518I1246J-100D01*
G01*
X275954Y173500D02*
G03*
X276153Y172718I1246J-100D01*
G01*
X276954Y168300D02*
G03*
X278200Y166950I1246J-100D01*
G01*
X278800Y166950D02*
G03*
X279482Y167153I0J1250D01*
G01*
X276754Y169300D02*
G03*
X276953Y168518I1246J-100D01*
G01*
X256650Y166000D02*
G03*
X251926Y167650I-2650J0D01*
G01*
Y164350D02*
G03*
X256650Y166000I2074J1650D01*
G01*
X205167Y163167D02*
G03*
X204000Y163650I-1167J-1167D01*
G01*
X205167Y163167D02*
G03*
X204000Y163650I-1167J-1167D01*
G01*
X212650Y156000D02*
G03*
X209700Y158633I-2650J0D01*
G01*
X207367Y156299D02*
G03*
X209179Y153480I2633J-299D01*
G01*
X247650Y117000D02*
G03*
X247167Y118167I-1650J0D01*
G01*
X247650Y117000D02*
G03*
X247167Y118167I-1650J0D01*
G01*
X202650Y130000D02*
G03*
X201650Y132074I-2650J0D01*
G01*
X238650Y116000D02*
G03*
X238263Y117380I-2650J0D01*
G01*
X233926Y114350D02*
G03*
X238650Y116000I2074J1650D01*
G01*
X244350Y112074D02*
G03*
X248650Y110000I1650J-2074D01*
G01*
D02*
G03*
X247650Y112074I-2650J0D01*
G01*
X219613Y110850D02*
G03*
X224650Y112000I2387J1150D01*
G01*
D02*
G03*
X223225Y114350I-2650J0D01*
G01*
X218650Y108000D02*
G03*
X213613Y109150I-2650J0D01*
G01*
X214451Y105850D02*
G03*
X218650Y108000I1549J2150D01*
G01*
X212650Y102000D02*
G03*
X208451Y104150I-2650J0D01*
G01*
X207612Y100850D02*
G03*
X212650Y102000I2387J1150D01*
G01*
X198350Y132074D02*
G03*
X202650Y130000I1650J-2074D01*
G01*
X198791Y122500D02*
G03*
X196260Y125031I-2531J0D01*
G01*
Y119969D02*
G03*
X198791Y122500I0J2531D01*
G01*
X198586Y117650D02*
G03*
X196260Y119831I-2326J-150D01*
G01*
Y110169D02*
G03*
X197906Y110850I0J2331D01*
G01*
X192275Y115169D02*
G03*
X192536Y114831I1425J831D01*
G01*
X192275Y115169D02*
G03*
X192536Y114831I1425J831D01*
G01*
X196260Y105169D02*
G03*
X197906Y105850I0J2331D01*
G01*
Y109150D02*
G03*
X196260Y109831I-1647J-1650D01*
G01*
X197906Y104150D02*
G03*
X196260Y104831I-1647J-1650D01*
G01*
Y100169D02*
G03*
X197906Y100850I0J2331D01*
G01*
X198591Y97500D02*
G03*
X196260Y99831I-2331J0D01*
G01*
Y95169D02*
G03*
X198591Y97500I0J2331D01*
G01*
X346350Y67225D02*
G03*
X344000Y68650I-2350J-1225D01*
G01*
X346350Y67225D02*
G03*
X344000Y68650I-2350J-1225D01*
G01*
X341490Y63350D02*
G03*
X346350Y60387I2510J-1350D01*
G01*
X337980Y32800D02*
G03*
X337500Y32900I-480J-1100D01*
G01*
X335700D02*
G03*
X335220Y32800I0J-1200D01*
G01*
X332080Y32900D02*
G03*
X331600Y33000I-480J-1100D01*
G01*
X331100D02*
G03*
X330620Y32900I0J-1200D01*
G01*
X333280Y32800D02*
G03*
X332800Y32900I-480J-1100D01*
G01*
X329800D02*
G03*
X329320Y32800I0J-1200D01*
G01*
X329100D02*
G03*
X328620Y32700I0J-1200D01*
G01*
X341934Y31719D02*
G03*
X341526Y31879I-634J-1019D01*
G01*
X340834Y32119D02*
G03*
X340426Y32278I-634J-1019D01*
G01*
X340426Y32278D02*
G03*
X340126Y32379I-526J-1079D01*
G01*
X341434Y31919D02*
G03*
X340887Y32097I-634J-1019D01*
G01*
X342700Y29920D02*
G03*
X342800Y30400I-1100J480D01*
G01*
X342597Y29413D02*
G03*
X342700Y29900I-1097J487D01*
G01*
X342497Y29013D02*
G03*
X342597Y29413I-1097J487D01*
G01*
X342397Y31397D02*
G03*
X341934Y31719I-897J-797D01*
G01*
X342800Y30500D02*
G03*
X342397Y31397I-1200J0D01*
G01*
X338580Y32700D02*
G03*
X338100Y32800I-480J-1100D01*
G01*
X335100D02*
G03*
X334466Y32619I0J-1200D01*
G01*
X339287Y32597D02*
G03*
X338800Y32700I-487J-1097D01*
G01*
X333826Y32678D02*
G03*
X333300Y32800I-526J-1079D01*
G01*
X339687Y32497D02*
G03*
X339287Y32597I-487J-1097D01*
G01*
X334250Y32509D02*
G03*
X333826Y32678I-650J-1009D01*
G01*
X340126Y32379D02*
G03*
X339687Y32497I-526J-1079D01*
G01*
X328600Y32700D02*
G03*
X328113Y32597I0J-1200D01*
G01*
D02*
G03*
X327566Y32419I87J-1197D01*
G01*
X324000Y68650D02*
G03*
X324000Y63350I0J-2650D01*
G01*
Y68650D02*
G03*
X324000Y63350I0J-2650D01*
G01*
X285103Y55000D02*
G03*
X285103Y55000I-4103J0D01*
G01*
X326850Y38000D02*
G03*
X326850Y38000I-2850J0D01*
G01*
X327126Y32122D02*
G03*
X326700Y32200I-426J-1122D01*
G01*
X327566Y32419D02*
G03*
X327126Y32122I434J-1119D01*
G01*
X325100Y32200D02*
G03*
X324620Y32100I0J-1200D01*
G01*
X324400D02*
G03*
X323913Y31997I0J-1200D01*
G01*
D02*
G03*
X323474Y31879I87J-1197D01*
G01*
X323474Y31879D02*
G03*
X323174Y31778I226J-1178D01*
G01*
X323174Y31778D02*
G03*
X322874Y31679I226J-1178D01*
G01*
X322874Y31679D02*
G03*
X322574Y31578I226J-1178D01*
G01*
X322574Y31578D02*
G03*
X322166Y31419I226J-1178D01*
G01*
X322074Y31378D02*
G03*
X321492Y31087I226J-1178D01*
G01*
X321366Y31019D02*
G03*
X320992Y30787I434J-1119D01*
G01*
X320992D02*
G03*
X320692Y30587I508J-1087D01*
G01*
X320566Y30519D02*
G03*
X320192Y30287I434J-1119D01*
G01*
X320192D02*
G03*
X319803Y29997I508J-1087D01*
G01*
X285303Y35000D02*
G03*
X285303Y35000I-4303J0D01*
G01*
X319592Y29787D02*
G03*
X318921Y28926I508J-1087D01*
G01*
X342378Y28574D02*
G03*
X342497Y29013I-1079J526D01*
G01*
X342197Y27813D02*
G03*
X342300Y28300I-1097J487D01*
G01*
X342097Y27413D02*
G03*
X342197Y27813I-1097J487D01*
G01*
X341997Y27013D02*
G03*
X342097Y27413I-1097J487D01*
G01*
X341897Y26613D02*
G03*
X341997Y27013I-1097J487D01*
G01*
X341797Y26213D02*
G03*
X341897Y26613I-1097J487D01*
G01*
X341697Y25813D02*
G03*
X341797Y26213I-1097J487D01*
G01*
X341597Y25413D02*
G03*
X341697Y25813I-1097J487D01*
G01*
X341478Y24974D02*
G03*
X341597Y25413I-1079J526D01*
G01*
X341097Y24303D02*
G03*
X341478Y24974I-797J897D01*
G01*
X340298Y23904D02*
G03*
X341097Y24303I-98J1196D01*
G01*
X339819Y22866D02*
G03*
X339979Y23274I-1019J634D01*
G01*
X338019Y19166D02*
G03*
X338178Y19574I-1019J634D01*
G01*
X337787Y18792D02*
G03*
X338019Y19166I-887J808D01*
G01*
X337619Y18366D02*
G03*
X337778Y18774I-1019J634D01*
G01*
X337255Y17673D02*
G03*
X337419Y17966I-955J727D01*
G01*
X337119Y17366D02*
G03*
X337255Y17673I-1019J634D01*
G01*
X336787Y16692D02*
G03*
X337078Y17274I-887J808D01*
G01*
X336255Y15573D02*
G03*
X336478Y16074I-955J727D01*
G01*
X335987Y15092D02*
G03*
X336255Y15573I-887J808D01*
G01*
X335587Y14292D02*
G03*
X335878Y14874I-887J808D01*
G01*
X335419Y13866D02*
G03*
X335578Y14274I-1019J634D01*
G01*
X335097Y13403D02*
G03*
X335419Y13866I-797J897D01*
G01*
X334398Y13016D02*
G03*
X335097Y13403I-198J1183D01*
G01*
X334097Y12603D02*
G03*
X334398Y13016I-797J897D01*
G01*
X332366Y12381D02*
G03*
X333000Y12200I634J1019D01*
G01*
X333200D02*
G03*
X334097Y12603I0J1200D01*
G01*
X328920Y13500D02*
G03*
X329400Y13400I480J1100D01*
G01*
X328320Y13600D02*
G03*
X328800Y13500I480J1100D01*
G01*
X326928Y13881D02*
G03*
X327700Y13600I772J919D01*
G01*
X330966Y12981D02*
G03*
X331374Y12822I634J1019D01*
G01*
X330474Y13122D02*
G03*
X330913Y13003I526J1079D01*
G01*
X331466Y12781D02*
G03*
X331874Y12621I634J1019D01*
G01*
X329520Y13400D02*
G03*
X329913Y13303I480J1100D01*
G01*
X330174Y13221D02*
G03*
X330474Y13122I526J1079D01*
G01*
X318792Y28687D02*
G03*
X318403Y28397I508J-1087D01*
G01*
X318003Y27997D02*
G03*
X317603Y27187I797J-897D01*
G01*
X317501Y20150D02*
G03*
X317600Y19620I1199J-50D01*
G01*
X317603Y27187D02*
G03*
X317500Y26680I1097J-487D01*
G01*
X316403Y22187D02*
G03*
X317500Y20500I1097J-487D01*
G01*
X317901Y17550D02*
G03*
X318000Y17020I1199J-50D01*
G01*
X317801Y18250D02*
G03*
X317900Y17720I1199J-50D01*
G01*
X318000Y17020D02*
G03*
X318100Y16520I1200J-20D01*
G01*
X317601Y19550D02*
G03*
X317700Y19020I1199J-50D01*
G01*
X317701Y18950D02*
G03*
X317800Y18420I1199J-50D01*
G01*
X317422Y26426D02*
G03*
X317300Y25880I1079J-526D01*
G01*
D02*
G03*
X317203Y25487I1100J-480D01*
G01*
D02*
G03*
X317103Y25087I1097J-487D01*
G01*
D02*
G03*
X317003Y24687I1097J-487D01*
G01*
D02*
G03*
X316903Y24287I1097J-487D01*
G01*
D02*
G03*
X316800Y23780I1097J-487D01*
G01*
X316722Y23526D02*
G03*
X316600Y22980I1079J-526D01*
G01*
D02*
G03*
X316503Y22587I1100J-480D01*
G01*
D02*
G03*
X316403Y22187I1097J-487D01*
G01*
X325987Y13303D02*
G03*
X326928Y13881I-87J1197D01*
G01*
X325426Y13122D02*
G03*
X325726Y13221I-226J1178D01*
G01*
X325126Y13022D02*
G03*
X325426Y13122I-226J1178D01*
G01*
X324626Y12822D02*
G03*
X325034Y12981I-226J1178D01*
G01*
X323434Y12181D02*
G03*
X323808Y12413I-434J1119D01*
G01*
X323008Y11913D02*
G03*
X323308Y12113I-508J1087D01*
G01*
X322608Y11613D02*
G03*
X322997Y11903I-508J1087D01*
G01*
X322208Y11313D02*
G03*
X322597Y11603I-508J1087D01*
G01*
X321808Y11013D02*
G03*
X322197Y11303I-508J1087D01*
G01*
X320300Y10000D02*
G03*
X321197Y10403I0J1200D01*
G01*
X318401Y14450D02*
G03*
X318500Y13920I1199J-50D01*
G01*
X318300Y15120D02*
G03*
X318400Y14620I1200J-20D01*
G01*
X318501Y13750D02*
G03*
X318600Y13220I1199J-50D01*
G01*
X318101Y16350D02*
G03*
X318200Y15820I1199J-50D01*
G01*
X318201Y15650D02*
G03*
X318300Y15120I1199J-50D01*
G01*
X318901Y11350D02*
G03*
X319303Y10403I1199J-50D01*
G01*
X318801Y11950D02*
G03*
X318900Y11420I1199J-50D01*
G01*
X319303Y10403D02*
G03*
X320200Y10000I897J797D01*
G01*
X318600Y13220D02*
G03*
X318700Y12720I1200J-20D01*
G01*
X318701Y12550D02*
G03*
X318800Y12020I1199J-50D01*
G01*
X238650Y94000D02*
G03*
X234350Y91926I-2650J0D01*
G01*
X237650Y91926D02*
G03*
X238650Y94000I-1650J2074D01*
G01*
X284103Y65000D02*
G03*
X284103Y65000I-4103J0D01*
G01*
X274103D02*
G03*
X274103Y65000I-4103J0D01*
G01*
X275103Y55000D02*
G03*
X275103Y55000I-4103J0D01*
G01*
X198591Y92500D02*
G03*
X196260Y94831I-2331J0D01*
G01*
Y90169D02*
G03*
X198591Y92500I0J2331D01*
G01*
X196260Y85169D02*
G03*
X198591Y87500I0J2331D01*
G01*
D02*
G03*
X196260Y89831I-2331J0D01*
G01*
X198591Y82500D02*
G03*
X196260Y84831I-2331J0D01*
G01*
Y80169D02*
G03*
X198591Y82500I0J2331D01*
G01*
Y77500D02*
G03*
X196260Y79831I-2331J0D01*
G01*
Y75169D02*
G03*
X198591Y77500I0J2331D01*
G01*
X203650Y67926D02*
G03*
X204650Y70000I-1650J2074D01*
G01*
D02*
G03*
X200350Y67926I-2650J0D01*
G01*
X198178Y50490D02*
G03*
X198679Y50833I-666J1510D01*
G01*
X197418Y54239D02*
G03*
X198178Y50490I-1418J-2239D01*
G01*
X284103Y45000D02*
G03*
X284103Y45000I-4103J0D01*
G01*
X275303Y35000D02*
G03*
X275303Y35000I-4303J0D01*
G01*
X268511Y41177D02*
G03*
X274103Y45000I1489J3823D01*
G01*
D02*
G03*
X266126Y43650I-4103J0D01*
G01*
X267000Y40350D02*
G03*
X268167Y40833I0J1650D01*
G01*
X267000Y40350D02*
G03*
X268167Y40833I0J1650D01*
G01*
X275747Y19097D02*
G03*
X276914Y19580I0J1650D01*
G01*
X275747Y19097D02*
G03*
X276914Y19580I0J1650D01*
G01*
X274103Y25000D02*
G03*
X265914Y25365I-4103J0D01*
G01*
X273171Y22397D02*
G03*
X274103Y25000I-3171J2603D01*
G01*
X265914Y25365D02*
G03*
X264986Y25650I-928J-1364D01*
G01*
X267072Y19580D02*
G03*
X268238Y19097I1167J1167D01*
G01*
X267072Y19580D02*
G03*
X268238Y19097I1167J1167D01*
G01*
X198178Y50490D02*
G03*
X198679Y50833I-666J1510D01*
G01*
X218650Y32000D02*
G03*
X213926Y33650I-2650J0D01*
G01*
Y30350D02*
G03*
X218650Y32000I2074J1650D01*
G01*
X265914Y25365D02*
G03*
X264986Y25650I-928J-1364D01*
G01*
X182225Y167650D02*
G03*
X183650Y170000I-1225J2350D01*
G01*
D02*
G03*
X178926Y171650I-2650J0D01*
G01*
X167510D02*
G03*
X167850Y173000I-2510J1350D01*
G01*
X192850Y152000D02*
G03*
X192850Y152000I-2850J0D01*
G01*
X176850D02*
G03*
X176850Y152000I-2850J0D01*
G01*
X170000Y149650D02*
G03*
X167926Y148650I0J-2650D01*
G01*
X172650Y147000D02*
G03*
X170000Y149650I-2650J0D01*
G01*
X167000Y148650D02*
G03*
X165833Y148167I0J-1650D01*
G01*
X167926Y145350D02*
G03*
X172650Y147000I2074J1650D01*
G01*
X167000Y148650D02*
G03*
X165833Y148167I0J-1650D01*
G01*
X163574Y141924D02*
G03*
X164741Y142408I0J1650D01*
G01*
X167850Y173000D02*
G03*
X162490Y171650I-2850J0D01*
G01*
X161117Y163650D02*
G03*
X160268Y164350I-2074J-1650D01*
G01*
X157819D02*
G03*
X161117Y160350I1225J-2350D01*
G01*
X144926Y152350D02*
G03*
X149650Y154000I2074J1650D01*
G01*
D02*
G03*
X144926Y155650I-2650J0D01*
G01*
X163574Y141924D02*
G03*
X164741Y142408I0J1650D01*
G01*
X184833Y130710D02*
G03*
X184471Y130165I1167J-1167D01*
G01*
X184833Y130710D02*
G03*
X184471Y130165I1167J-1167D01*
G01*
D02*
G03*
X188650Y128000I1529J-2165D01*
G01*
X180650Y130000D02*
G03*
X176876Y132400I-2650J0D01*
G01*
Y127600D02*
G03*
X180650Y130000I1124J2400D01*
G01*
X188650Y128000D02*
G03*
X188227Y129437I-2650J0D01*
G01*
X160000Y132400D02*
G03*
X158158Y131538I0J-2400D01*
G01*
X160000Y132400D02*
G03*
X158158Y131538I0J-2400D01*
G01*
D02*
G03*
X157650Y132074I-2158J-1538D01*
G01*
X161697Y124504D02*
G03*
X162400Y126201I-1697J1697D01*
G01*
X161697Y124504D02*
G03*
X162400Y126201I-1697J1697D01*
G01*
X161189Y122500D02*
G03*
X160870Y123677I-2331J0D01*
G01*
X158858Y120169D02*
G03*
X161189Y122500I0J2331D01*
G01*
X191142Y119831D02*
G03*
X191142Y115169I0J-2331D01*
G01*
Y125031D02*
G03*
X191142Y119969I0J-2531D01*
G01*
Y114831D02*
G03*
X191142Y110169I0J-2331D01*
G01*
X161389Y117500D02*
G03*
X158858Y120031I-2531J0D01*
G01*
Y114969D02*
G03*
X161389Y117500I0J2531D01*
G01*
X191142Y109831D02*
G03*
X191142Y105169I0J-2331D01*
G01*
Y104831D02*
G03*
X191142Y100169I0J-2331D01*
G01*
X161189Y112500D02*
G03*
X158858Y114831I-2331J0D01*
G01*
Y110169D02*
G03*
X161189Y112500I0J2331D01*
G01*
Y107500D02*
G03*
X158858Y109831I-2331J0D01*
G01*
Y105169D02*
G03*
X161189Y107500I0J2331D01*
G01*
Y102500D02*
G03*
X158858Y104831I-2331J0D01*
G01*
Y100169D02*
G03*
X161189Y102500I0J2331D01*
G01*
X155728Y120169D02*
G03*
X156870Y120169I571J2331D01*
G01*
X154350Y132074D02*
G03*
X157600Y127887I1650J-2074D01*
G01*
X153740Y124831D02*
G03*
X153740Y120169I0J-2331D01*
G01*
Y120031D02*
G03*
X153740Y114969I0J-2531D01*
G01*
Y114831D02*
G03*
X151410Y112450I0J-2331D01*
G01*
X151772Y106250D02*
G03*
X153740Y105169I1968J1250D01*
G01*
X151150Y105100D02*
G03*
X150888Y106250I-2650J0D01*
G01*
X145958Y105850D02*
G03*
X146850Y103026I2542J-750D01*
G01*
X153740Y104831D02*
G03*
X153740Y100169I0J-2331D01*
G01*
X150150Y103026D02*
G03*
X151150Y105100I-1650J2074D01*
G01*
X143000Y155650D02*
G03*
X141999Y155312I0J-1650D01*
G01*
X118775Y168350D02*
G03*
X122074Y164350I1225J-2350D01*
G01*
X143000Y155650D02*
G03*
X141999Y155312I0J-1650D01*
G01*
X97926Y132350D02*
G03*
X102650Y134000I2074J1650D01*
G01*
D02*
G03*
X97926Y135650I-2650J0D01*
G01*
X66850Y190000D02*
G03*
X66850Y190000I-2850J0D01*
G01*
X24074Y171650D02*
G03*
X24074Y168350I-2074J-1650D01*
G01*
X60074Y135650D02*
G03*
X60074Y132350I-2074J-1650D01*
G01*
X36650Y136000D02*
G03*
X33700Y138633I-2650J0D01*
G01*
X31367Y136300D02*
G03*
X36650Y136000I2633J-299D01*
G01*
X20074Y139650D02*
G03*
X20074Y136350I-2074J-1650D01*
G01*
X33167Y139167D02*
G03*
X32000Y139650I-1167J-1167D01*
G01*
X33167Y139167D02*
G03*
X32000Y139650I-1167J-1167D01*
G01*
X142840Y112450D02*
G03*
X141674Y111967I0J-1650D01*
G01*
X142840Y112450D02*
G03*
X141674Y111967I0J-1650D01*
G01*
X110650Y118000D02*
G03*
X105926Y119650I-2650J0D01*
G01*
X120650Y114000D02*
G03*
X115926Y115650I-2650J0D01*
G01*
X109225D02*
G03*
X110650Y118000I-1225J2350D01*
G01*
X141373Y108350D02*
G03*
X145549Y105850I2627J-350D01*
G01*
X123478Y99800D02*
G03*
X125100Y101450I-28J1650D01*
G01*
X123478Y99800D02*
G03*
X125100Y101450I-28J1650D01*
G01*
X119225Y111650D02*
G03*
X120650Y114000I-1225J2350D01*
G01*
X114650Y106000D02*
G03*
X113225Y108350I-2650J0D01*
G01*
X109589Y104900D02*
G03*
X114650Y106000I2411J1100D01*
G01*
X125100Y101450D02*
G03*
X124617Y102617I-1650J0D01*
G01*
X125100Y101450D02*
G03*
X124617Y102617I-1650J0D01*
G01*
X120523Y99800D02*
G03*
X123478Y99800I1477J2200D01*
G01*
X124564Y102669D02*
G03*
X119589Y103100I-2564J-669D01*
G01*
X102000Y126261D02*
G03*
X106650Y128000I2000J1739D01*
G01*
D02*
G03*
X102000Y129738I-2650J0D01*
G01*
D02*
G03*
X102000Y126261I-2000J-1739D01*
G01*
X98775Y112350D02*
G03*
X98055Y108200I1225J-2350D01*
G01*
X86074Y119650D02*
G03*
X82775Y115650I-2074J-1650D01*
G01*
X62074D02*
G03*
X62074Y112350I-2074J-1650D01*
G01*
X72411Y103100D02*
G03*
X70272Y104636I-2411J-1100D01*
G01*
X69477Y108200D02*
G03*
X67728Y103364I-1477J-2200D01*
G01*
X30850Y108000D02*
G03*
X30850Y108000I-2850J0D01*
G01*
X67728Y103364D02*
G03*
X71477Y99800I2272J-1364D01*
G01*
X191142Y99831D02*
G03*
X191142Y95169I0J-2331D01*
G01*
X161189Y97500D02*
G03*
X158858Y99831I-2331J0D01*
G01*
X191142Y94831D02*
G03*
X191142Y90169I0J-2331D01*
G01*
X161189Y92500D02*
G03*
X158858Y94831I-2331J0D01*
G01*
Y95169D02*
G03*
X161189Y97500I0J2331D01*
G01*
X158858Y90169D02*
G03*
X161189Y92500I0J2331D01*
G01*
X191142Y89831D02*
G03*
X191142Y85169I0J-2331D01*
G01*
X161189Y87500D02*
G03*
X158858Y89831I-2331J0D01*
G01*
Y85169D02*
G03*
X161189Y87500I0J2331D01*
G01*
X155710Y89831D02*
G03*
X156298Y90169I-511J1569D01*
G01*
X155710Y89831D02*
G03*
X156298Y90169I-511J1569D01*
G01*
X191142Y79831D02*
G03*
X191142Y75169I0J-2331D01*
G01*
Y84831D02*
G03*
X191142Y80169I0J-2331D01*
G01*
X192850Y68000D02*
G03*
X192850Y68000I-2850J0D01*
G01*
X178850D02*
G03*
X178850Y68000I-2850J0D01*
G01*
X161189Y82500D02*
G03*
X158858Y84831I-2331J0D01*
G01*
Y80169D02*
G03*
X161189Y82500I0J2331D01*
G01*
X158858Y75169D02*
G03*
X161189Y77500I0J2331D01*
G01*
D02*
G03*
X158858Y79831I-2331J0D01*
G01*
X153740Y99831D02*
G03*
X151410Y97556I0J-2331D01*
G01*
D02*
G03*
X150793Y97167I550J-1556D01*
G01*
X146850Y98387D02*
G03*
X145499Y96875I1150J-2387D01*
G01*
X151410Y97556D02*
G03*
X150793Y97167I550J-1556D01*
G01*
X150501Y96875D02*
G03*
X150150Y97549I-2501J-875D01*
G01*
X130787Y97650D02*
G03*
X130950Y98600I-2687J950D01*
G01*
D02*
G03*
X125413Y97650I-2850J0D01*
G01*
X145207Y97167D02*
G03*
X144040Y97650I-1167J-1167D01*
G01*
X145207Y97167D02*
G03*
X144040Y97650I-1167J-1167D01*
G01*
X153131Y89750D02*
G03*
X153740Y85169I610J-2250D01*
G01*
Y84831D02*
G03*
X153740Y80169I0J-2331D01*
G01*
Y79831D02*
G03*
X153740Y75169I0J-2331D01*
G01*
X156650Y70000D02*
G03*
X152350Y67926I-2650J0D01*
G01*
X150650Y88000D02*
G03*
X149990Y89750I-2650J0D01*
G01*
X145458Y87250D02*
G03*
X150650Y88000I2542J750D01*
G01*
X183225Y43650D02*
G03*
X184650Y46000I-1225J2350D01*
G01*
D02*
G03*
X179926Y47650I-2650J0D01*
G01*
X155650Y67926D02*
G03*
X156650Y70000I-1650J2074D01*
G01*
X157822Y50490D02*
G03*
X162650Y52000I2178J1510D01*
G01*
D02*
G03*
X158582Y54239I-2650J0D01*
G01*
X157321Y50833D02*
G03*
X157822Y50490I1167J1167D01*
G01*
X157321Y50833D02*
G03*
X157822Y50490I1167J1167D01*
G01*
X192850Y10000D02*
G03*
X192850Y10000I-2850J0D01*
G01*
X170074Y33650D02*
G03*
X170074Y30350I-2074J-1650D01*
G01*
X148650Y50000D02*
G03*
X145701Y52633I-2650J0D01*
G01*
X147225Y47650D02*
G03*
X148650Y50000I-1225J2350D01*
G01*
X135850Y11000D02*
G03*
X135850Y11000I-2850J0D01*
G01*
X110074Y97650D02*
G03*
X105464Y96769I-2074J-1650D01*
G01*
X105464D02*
G03*
X100792Y96200I-2189J-1494D01*
G01*
X110650Y86000D02*
G03*
X110337Y87250I-2650J0D01*
G01*
X110321Y84722D02*
G03*
X110650Y86000I-2321J1278D01*
G01*
X82850Y98000D02*
G03*
X82210Y99800I-2850J0D01*
G01*
X77790D02*
G03*
X77790Y96200I2210J-1800D01*
G01*
X82210D02*
G03*
X82850Y98000I-2210J1800D01*
G01*
X105926Y84350D02*
G03*
X109278Y83679I2074J1650D01*
G01*
X93851Y84450D02*
G03*
X98074Y84350I2149J1550D01*
G01*
X102650Y80000D02*
G03*
X97926Y81650I-2650J0D01*
G01*
Y78350D02*
G03*
X102650Y80000I2074J1650D01*
G01*
X98850Y70000D02*
G03*
X98850Y70000I-2850J0D01*
G01*
X75126Y97167D02*
G03*
X73960Y97650I-1167J-1167D01*
G01*
X75126Y97167D02*
G03*
X73960Y97650I-1167J-1167D01*
G01*
X71013Y87250D02*
G03*
X75474Y84450I2387J-1150D01*
G01*
X72775Y94350D02*
G03*
X71782Y90550I1225J-2350D01*
G01*
X72074Y97650D02*
G03*
X72074Y94350I-2074J-1650D01*
G01*
X68746Y90543D02*
G03*
X70542Y87250I-746J-2543D01*
G01*
X70074Y81650D02*
G03*
X70074Y78350I-2074J-1650D01*
G01*
X72850Y74000D02*
G03*
X72850Y74000I-2850J0D01*
G01*
X12074Y63650D02*
G03*
X12074Y60350I-2074J-1650D01*
G01*
X110775Y44350D02*
G03*
X114074Y40350I1225J-2350D01*
G01*
X105349Y47650D02*
G03*
X105349Y44350I-2074J-1650D01*
G01*
X72850Y38000D02*
G03*
X72850Y38000I-2850J0D01*
G01*
X61926Y58350D02*
G03*
X66650Y60000I2074J1650D01*
G01*
D02*
G03*
X61926Y61650I-2650J0D01*
G01*
X66650Y38000D02*
G03*
X61926Y39650I-2650J0D01*
G01*
Y36350D02*
G03*
X66650Y38000I2074J1650D01*
G01*
X62850Y34000D02*
G03*
X61612Y36350I-2850J0D01*
G01*
X58388D02*
G03*
X62850Y34000I1612J-2350D01*
G01*
X65926Y22350D02*
G03*
X70074Y22350I2074J1650D01*
G01*
Y25650D02*
G03*
X65926Y25650I-2074J-1650D01*
G01*
X56074Y61650D02*
G03*
X56074Y58350I-2074J-1650D01*
G01*
X39926Y60350D02*
G03*
X44650Y62000I2074J1650D01*
G01*
D02*
G03*
X39926Y63650I-2650J0D01*
G01*
X28850Y48000D02*
G03*
X28850Y48000I-2850J0D01*
G01*
X44850Y32000D02*
G03*
X44850Y32000I-2850J0D01*
G01*
X48074Y25650D02*
G03*
X48074Y22350I-2074J-1650D01*
G01*
X40074Y39650D02*
G03*
X40074Y36350I-2074J-1650D01*
G01*
X335000Y191650D02*
Y196350D01*
X328000Y192784D02*
Y196350D01*
X332478Y191650D02*
X336200D01*
X329878Y192250D02*
X330400D01*
X331078Y192050D02*
X331400D01*
X322878Y193650D02*
X323600D01*
X321000Y194050D02*
Y196350D01*
X321878Y193850D02*
X322200D01*
X326278Y193050D02*
X326800D01*
X324278Y193450D02*
X325000D01*
X342000Y184784D02*
Y196350D01*
X337450Y189000D02*
X346350D01*
X344650Y182000D02*
X346350D01*
X343850Y175000D02*
X346350D01*
X310478Y194650D02*
X314200D01*
X314000D02*
Y196350D01*
X309400Y194850D02*
X309800Y194850D01*
X317878Y194250D02*
X319600D01*
X320278Y194050D02*
X321200D01*
X314878Y194450D02*
X317200D01*
X304800Y194650D02*
X308722D01*
X307000D02*
Y196350D01*
X301800Y194450D02*
X304122D01*
X300000Y194250D02*
Y196350D01*
X299400Y194250D02*
X301122D01*
X297800Y194050D02*
X298722D01*
X296800Y193850D02*
X297122D01*
X295400Y193650D02*
X296122D01*
X294000Y193450D02*
X294722D01*
X293000Y193184D02*
Y196350D01*
X292200Y193050D02*
X292722D01*
X288600Y192250D02*
X289122D01*
X287600Y192050D02*
X287922D01*
X289078Y170350D02*
X289400D01*
X343850Y168000D02*
X346350D01*
X334250D02*
X337050D01*
X335000Y153485D02*
Y168703D01*
X329960Y161000D02*
X346350D01*
X337242Y140000D02*
X346350D01*
X337242Y147000D02*
X346350D01*
X337242Y139308D02*
Y153485D01*
X325650Y154000D02*
X346350D01*
X325610Y153485D02*
X337242D01*
X328000D02*
Y158839D01*
X298400Y157550D02*
X299122D01*
X281950Y168000D02*
X288840D01*
X207333Y161000D02*
X291840D01*
X291555Y153485D02*
X301149D01*
X291555Y139308D02*
X337242D01*
X246673Y126000D02*
X346350D01*
X246673Y133000D02*
X346350D01*
X247739Y112000D02*
X346350D01*
X246334Y119000D02*
X346350D01*
X198537Y98000D02*
X346350D01*
X300400Y157150D02*
X300722D01*
X300000Y153485D02*
Y157216D01*
X293000Y153485D02*
Y160416D01*
X246673Y140000D02*
X291555D01*
Y139308D02*
Y153485D01*
X244061Y154000D02*
X300816D01*
X246673Y147000D02*
X291555D01*
X286000Y191650D02*
Y196350D01*
X283400Y191650D02*
X286522D01*
X279000Y185497D02*
Y196350D01*
X278200Y166950D02*
X278800Y166950D01*
X255738Y168000D02*
X276966D01*
X251000Y167650D02*
Y196350D01*
X244000Y167650D02*
Y196350D01*
X230000Y167650D02*
Y196350D01*
X223000Y167650D02*
Y196350D01*
X237000Y167650D02*
Y196350D01*
Y157173D02*
Y164350D01*
X230000Y157173D02*
Y164350D01*
X223000Y157172D02*
Y164350D01*
X216000Y157172D02*
Y164350D01*
Y167650D02*
Y196350D01*
X209000Y167650D02*
Y196350D01*
Y159334D02*
Y164350D01*
X195000Y167650D02*
Y196350D01*
X202000Y167650D02*
Y196350D01*
X205167Y163167D02*
X209700Y158633D01*
X195000Y163650D02*
Y164350D01*
X202000Y163650D02*
Y164350D01*
X238524Y157049D02*
X243524Y154549D01*
X215500Y157172D02*
X238000Y157173D01*
X244000Y154087D02*
Y164350D01*
X212648Y155885D02*
X214976Y157049D01*
X244049Y154024D02*
X246549Y149024D01*
X209000Y153122D02*
Y153546D01*
X246673Y126000D02*
Y148500D01*
X192030Y154000D02*
X208261D01*
X206951Y149024D02*
X209179Y153480D01*
X203316Y160350D02*
X207367Y156299D01*
X202000Y147055D02*
Y160350D01*
X195000Y140877D02*
Y160350D01*
X203906Y140031D02*
Y147055D01*
X196094D02*
X203906D01*
X206827Y126000D02*
X206827Y148500D01*
X196094Y141971D02*
Y147055D01*
X244318Y121015D02*
X247167Y118167D01*
X244318Y121015D02*
X246549Y125476D01*
X209000Y117650D02*
Y121378D01*
X203906Y147000D02*
X206827D01*
X198790Y140000D02*
X206827D01*
X206951Y125476D02*
X209451Y120475D01*
X238524Y117451D02*
X241652Y119015D01*
X198586Y117650D02*
X214578D01*
X209976Y119951D02*
X214578Y117650D01*
X203906Y133000D02*
X206827D01*
X198821Y140031D02*
X203906D01*
Y132945D02*
Y139969D01*
X198759D02*
X203906D01*
X198350Y132074D02*
Y132945D01*
X201650D02*
X203906D01*
X202000Y131738D02*
Y132945D01*
Y117650D02*
Y128261D01*
X201650Y132074D02*
Y132945D01*
X247650Y112074D02*
Y117000D01*
X244350Y112074D02*
Y116316D01*
X244000Y111739D02*
Y116666D01*
X241652Y119015D02*
X244350Y116316D01*
X237000Y96454D02*
Y113546D01*
X223225Y114350D02*
X233926D01*
X224650Y112000D02*
X244262D01*
X202000Y109150D02*
Y110850D01*
X209000Y109150D02*
Y110850D01*
Y104454D02*
Y105850D01*
X202000Y104150D02*
Y105850D01*
X196094Y132945D02*
X198350D01*
X191142Y125031D02*
X196260D01*
X198044Y119000D02*
X211878D01*
X197906Y110850D02*
X219613D01*
X191142Y119831D02*
X196260D01*
X196094Y132945D02*
Y137304D01*
X195000Y125031D02*
Y136210D01*
X191790Y133000D02*
X196094D01*
X191142Y119969D02*
X196260D01*
X191142Y115169D02*
X192275D01*
X191142Y114831D02*
X192536D01*
X197906Y105850D02*
X214451D01*
X197906Y109150D02*
X213613D01*
X197906Y104150D02*
X208451D01*
X197906Y100850D02*
X207612D01*
X191142Y95169D02*
X196260D01*
X191142Y110169D02*
X196260D01*
X195000Y109831D02*
Y110169D01*
Y104831D02*
Y105169D01*
X191142Y109831D02*
X196260D01*
X191142Y105169D02*
X196260D01*
X191142Y100169D02*
X196260D01*
X191142Y104831D02*
X196260D01*
X195000Y99831D02*
Y100169D01*
X191142Y99831D02*
X196260D01*
X191142Y94831D02*
X196260D01*
X346350Y67225D02*
Y196350D01*
X342000Y68650D02*
Y166016D01*
X335000Y32796D02*
Y63350D01*
X335700Y32900D02*
X337500D01*
X335000Y68650D02*
Y139308D01*
X331100Y33000D02*
X331600D01*
X328000Y68650D02*
Y139308D01*
X332080Y32900D02*
X332800D01*
X329800D02*
X330620D01*
X342000Y31691D02*
Y59970D01*
X346350Y6650D02*
Y60387D01*
X328000Y32583D02*
Y63350D01*
X246673Y70000D02*
X346350D01*
X324000Y68650D02*
X344000D01*
X324000Y63350D02*
X341490D01*
X244061Y84000D02*
X346350D01*
X237650Y91000D02*
X346350D01*
X246673Y77000D02*
X346350D01*
X284979Y56000D02*
X346350D01*
X283582Y63000D02*
X341331D01*
X285303Y35000D02*
X346350D01*
X280912Y49000D02*
X346350D01*
X282799Y42000D02*
X346350D01*
X325100Y32200D02*
X326700D01*
X321000Y30794D02*
Y139308D01*
X307000Y6650D02*
Y139308D01*
X300000Y6650D02*
Y139308D01*
X314000Y6650D02*
Y139308D01*
X286000Y6650D02*
Y169350D01*
X293000Y6650D02*
Y139308D01*
X342262Y28000D02*
X346350D01*
X338891Y21000D02*
X346350D01*
X342000Y6650D02*
Y27020D01*
X335491Y14000D02*
X346350D01*
X335000Y6650D02*
Y13306D01*
X328000Y6650D02*
Y13600D01*
X327700D02*
X328320D01*
X284103Y28000D02*
X318006D01*
X284103Y21000D02*
X316525D01*
X321000Y6650D02*
Y10225D01*
X279000Y68979D02*
Y166966D01*
X244000Y84087D02*
Y108262D01*
X272000Y68582D02*
Y196350D01*
X237650Y87173D02*
Y91926D01*
X244049Y84024D02*
X246549Y79024D01*
X238524Y87049D02*
X243524Y84549D01*
X246673Y63000D02*
X266418D01*
X237650Y87173D02*
X238000D01*
X215500Y87172D02*
X234350Y87173D01*
Y91926D01*
X230000Y87173D02*
Y114350D01*
X223000Y87172D02*
Y109546D01*
X216000Y87172D02*
Y105350D01*
X209000Y83122D02*
Y99546D01*
X209976Y84549D02*
X214976Y87049D01*
X206951Y79024D02*
X209451Y84024D01*
X205906Y63000D02*
X206827D01*
X204650Y70000D02*
X206827D01*
X203650Y67087D02*
X205906D01*
X273582Y63000D02*
X276418D01*
X279000Y58582D02*
Y61021D01*
X272000Y58979D02*
Y61418D01*
X265000Y43650D02*
Y196350D01*
X279000Y48979D02*
Y51418D01*
X274979Y56000D02*
X277021D01*
X272000Y48582D02*
Y51021D01*
X246673Y56000D02*
X267021D01*
X251000Y43650D02*
Y164350D01*
X246673Y56000D02*
Y78500D01*
X258000Y43650D02*
Y196350D01*
X205906Y60062D02*
Y67087D01*
X206827Y56000D02*
X206827Y78500D01*
X244049Y50476D02*
X246549Y55476D01*
X206951Y55476D02*
X209451Y50476D01*
X209000Y43650D02*
Y51378D01*
X205906Y56000D02*
X206827D01*
X205906Y52976D02*
Y60000D01*
X198044Y91000D02*
X234350D01*
X198044Y84000D02*
X209439D01*
X198537Y77000D02*
X206827D01*
X195000Y89831D02*
Y90169D01*
Y94831D02*
Y95169D01*
X191142Y85169D02*
X196260D01*
X191142Y90169D02*
X196260D01*
X191142Y89831D02*
X196260D01*
X195000Y79831D02*
Y80169D01*
Y84831D02*
Y85169D01*
X191142Y79831D02*
X196260D01*
X191142Y84831D02*
X196260D01*
X191142Y80169D02*
X196260D01*
X202000Y72650D02*
Y100850D01*
X203650Y67087D02*
Y67926D01*
X200350Y67087D02*
Y67926D01*
X198094Y67087D02*
X200350D01*
X200821Y52976D02*
X205906D01*
X198679Y50833D02*
X200821Y52976D01*
X202000Y43650D02*
Y52976D01*
X198094Y60062D02*
X205906D01*
X198094Y60000D02*
X205906D01*
X192030Y70000D02*
X199350D01*
X191142Y75169D02*
X196260D01*
X195000Y54454D02*
Y75169D01*
X198094Y54915D02*
Y60000D01*
Y60062D02*
Y67087D01*
X197418Y54239D02*
X198094Y54915D01*
X279000Y38810D02*
Y41021D01*
X270913Y49000D02*
X279087D01*
X272799Y42000D02*
X277201D01*
X275303Y35000D02*
X276697D01*
X275897Y29103D02*
X284103D01*
X268167Y40833D02*
X268511Y41177D01*
X272000Y39185D02*
Y41418D01*
X284103Y20897D02*
Y29103D01*
X279000D02*
Y31190D01*
X276914Y19580D02*
X278231Y20897D01*
X275897Y23231D02*
Y29103D01*
X272799Y28000D02*
X275897D01*
X275064Y22397D02*
X275897Y23231D01*
X278231Y20897D02*
X284103D01*
X279000Y6650D02*
Y20897D01*
X268238Y19097D02*
X275747D01*
X272000Y28582D02*
Y30815D01*
X265000Y25650D02*
Y40350D01*
X273171Y22397D02*
X275064D01*
X272000Y6650D02*
Y19097D01*
X265000Y6650D02*
Y21652D01*
X241622Y49000D02*
X269088D01*
X238524Y47451D02*
X243524Y49951D01*
X244000Y43650D02*
Y50413D01*
X215500Y47327D02*
X238000Y47328D01*
X230000Y43650D02*
Y47327D01*
X237000Y43650D02*
Y47328D01*
X244000Y25650D02*
Y40350D01*
X237000Y25650D02*
Y40350D01*
X251000Y25650D02*
Y40350D01*
X223000Y43650D02*
Y47327D01*
Y25650D02*
Y40350D01*
X216000Y43650D02*
Y47327D01*
X209976Y49951D02*
X214976Y47451D01*
X216000Y34650D02*
Y40350D01*
X195000Y43650D02*
Y49546D01*
X209000Y33650D02*
Y40350D01*
X195000Y33650D02*
Y40350D01*
X202000Y33650D02*
Y40350D01*
X258000Y25650D02*
Y40350D01*
X264302Y22350D02*
X267072Y19580D01*
X251000Y6650D02*
Y22350D01*
X230000Y25650D02*
Y40350D01*
X258000Y6650D02*
Y22350D01*
X237000Y6650D02*
Y22350D01*
X230000Y6650D02*
Y22350D01*
X244000Y6650D02*
Y22350D01*
X216000Y6650D02*
Y22350D01*
X223000Y6650D02*
Y22350D01*
X216000Y25650D02*
Y29350D01*
X209000Y25650D02*
Y30350D01*
Y6650D02*
Y22350D01*
X195000Y25650D02*
Y30350D01*
X202000Y25650D02*
Y30350D01*
X195000Y6650D02*
Y22350D01*
X202000Y6650D02*
Y22350D01*
X182738Y168000D02*
X252261D01*
X188000Y167650D02*
Y196350D01*
X167030Y175000D02*
X275616D01*
X181000Y172650D02*
Y196350D01*
X182225Y167650D02*
X251926D01*
X188000Y163650D02*
Y164350D01*
Y154030D02*
Y160350D01*
X181000Y163650D02*
Y164350D01*
X176030Y154000D02*
X187970D01*
X167000Y175030D02*
Y196350D01*
X174000Y171650D02*
Y196350D01*
Y154850D02*
Y160350D01*
Y163650D02*
Y164350D01*
X167510Y171650D02*
X178926D01*
X167000Y163650D02*
Y164350D01*
X184833Y130710D02*
X196094Y141971D01*
X188000Y133877D02*
Y149970D01*
X188227Y129437D02*
X196094Y137304D01*
X172650Y147000D02*
X196094D01*
X174000Y132400D02*
Y149150D01*
X167000Y148650D02*
Y160350D01*
Y148650D02*
X167926D01*
X167000Y132400D02*
Y144667D01*
X164741Y142408D02*
X167683Y145350D01*
X6650Y196000D02*
X346350D01*
X66669Y189000D02*
X282150D01*
X6650Y196350D02*
X346350D01*
X6650Y182000D02*
X274350D01*
X6650Y175000D02*
X162970D01*
X161117Y163650D02*
X204000D01*
X161117Y160350D02*
X203316D01*
X160268Y164350D02*
X251926D01*
X149650Y154000D02*
X171970D01*
X160000Y171650D02*
Y196350D01*
X24074Y171650D02*
X162490D01*
X153000D02*
Y196350D01*
Y147087D02*
Y164350D01*
X122074D02*
X157819D01*
X6650Y161000D02*
X156589D01*
X162891Y145224D02*
X165833Y148167D01*
X160000Y145224D02*
Y159529D01*
X159906Y147000D02*
X164666D01*
X159906Y145224D02*
X162891D01*
X159906D02*
Y147087D01*
Y141924D02*
X163574D01*
X159906Y140062D02*
Y141924D01*
X160000Y132400D02*
Y141924D01*
X146672Y140000D02*
X194123D01*
X159906Y133000D02*
X187123D01*
X152094Y147087D02*
X159906D01*
X152094Y140062D02*
Y147087D01*
Y140062D02*
X159906D01*
X146672Y147000D02*
X152094D01*
X146672Y126000D02*
Y148500D01*
X159906Y132976D02*
Y140000D01*
X152094Y132976D02*
Y140000D01*
X157650Y132074D02*
Y132976D01*
X152094Y140000D02*
X159906D01*
X146672Y133000D02*
X152094D01*
X160000Y132400D02*
X176876D01*
X187739Y126000D02*
X206827D01*
X162400Y127600D02*
X176876D01*
X162392Y126000D02*
X184262D01*
X162400Y126201D02*
Y127600D01*
X157650Y132976D02*
X159906D01*
X160870Y123677D02*
X161697Y124504D01*
X160897Y119000D02*
X189357D01*
X161135Y112000D02*
X188865D01*
X161135Y98000D02*
X188865D01*
X160000Y114532D02*
Y115241D01*
Y119759D02*
Y120468D01*
Y109532D02*
Y110468D01*
Y104532D02*
Y105468D01*
Y99532D02*
Y100468D01*
X156870Y120169D02*
X158858D01*
X157600Y127195D02*
Y127887D01*
X155236Y124831D02*
X157600Y127195D01*
X153740Y120031D02*
X158858D01*
X153740Y114969D02*
X158858D01*
X153740Y124831D02*
X155236D01*
X154350Y132074D02*
Y132976D01*
X153000Y124711D02*
Y132976D01*
X152094D02*
X154350D01*
X146672Y126000D02*
X156405D01*
X153740Y120169D02*
X155728D01*
X153000Y119921D02*
Y120290D01*
X141622Y119000D02*
X151701D01*
X156302Y110169D02*
X158858D01*
X155964Y109831D02*
X156302Y110169D01*
X155964Y109831D02*
X158858D01*
X153740Y114831D02*
X158858D01*
X153740Y104831D02*
X158858D01*
X153740Y105169D02*
X158858D01*
X153740Y99831D02*
X158858D01*
X151148Y105000D02*
X346350D01*
X153740Y100169D02*
X158858D01*
X153000Y114710D02*
Y115079D01*
X150888Y106250D02*
X151772D01*
X142840Y112450D02*
X151410D01*
X153000Y104710D02*
Y105289D01*
Y99711D02*
Y100289D01*
X146850Y98387D02*
Y103026D01*
X146000Y171650D02*
Y196350D01*
X139000Y171650D02*
Y196350D01*
X146000Y156454D02*
Y164350D01*
X132000Y171650D02*
Y196350D01*
X125000Y171650D02*
Y196350D01*
X139000Y156811D02*
Y164350D01*
X143000Y155650D02*
X144926D01*
X132000Y157173D02*
Y164350D01*
X125000Y157173D02*
Y164350D01*
X115500Y157172D02*
X138000Y157173D01*
X111000Y171650D02*
Y196350D01*
X104000Y171650D02*
Y196350D01*
X118000Y171650D02*
Y196350D01*
X76000Y171650D02*
Y196350D01*
X97000Y171650D02*
Y196350D01*
X118000Y167738D02*
Y168350D01*
Y157172D02*
Y164261D01*
X83000Y171650D02*
Y196350D01*
X90000Y171650D02*
Y196350D01*
X138524Y157049D02*
X141999Y155312D01*
X111000Y155061D02*
Y168350D01*
X109976Y154549D02*
X114976Y157049D01*
X106951Y149024D02*
X109451Y154024D01*
X104000Y130650D02*
Y168350D01*
X144886Y152350D02*
X146549Y149024D01*
X146000Y150122D02*
Y151546D01*
X106827Y126000D02*
X106827Y148500D01*
X102454Y133000D02*
X106827D01*
X90000Y135650D02*
Y168350D01*
X83000Y135650D02*
Y168350D01*
X97000Y135650D02*
Y168350D01*
X69000Y135650D02*
Y168350D01*
X76000Y135650D02*
Y168350D01*
X97000Y119650D02*
Y132350D01*
X90000Y119650D02*
Y132350D01*
X83000Y120454D02*
Y132350D01*
X76000Y115650D02*
Y132350D01*
X69000Y171650D02*
Y196350D01*
X62000Y192030D02*
Y196350D01*
X24074Y168350D02*
X118775D01*
X23739Y168000D02*
X118262D01*
X6650Y154000D02*
X109439D01*
X6650Y147000D02*
X106827D01*
X48000Y171650D02*
Y196350D01*
X41000Y171650D02*
Y196350D01*
X55000Y171650D02*
Y196350D01*
X20000Y171739D02*
Y196350D01*
X34000Y171650D02*
Y196350D01*
X62000Y171650D02*
Y187970D01*
X27000Y171650D02*
Y196350D01*
X6650Y189000D02*
X61331D01*
X6650Y168000D02*
X20261D01*
X62000Y135650D02*
Y168350D01*
X34000Y138650D02*
Y168350D01*
X19738Y140000D02*
X106827D01*
X60074Y135650D02*
X97926D01*
X62000Y115738D02*
Y132350D01*
X69000Y115650D02*
Y132350D01*
X6650Y133000D02*
X55546D01*
X60074Y132350D02*
X97926D01*
X20074Y139650D02*
X32000D01*
X20000Y139739D02*
Y168262D01*
X27000Y139650D02*
Y168350D01*
X6650Y140000D02*
X16262D01*
X33167Y139167D02*
X33700Y138633D01*
X20074Y136350D02*
X31317D01*
X27000Y110669D02*
Y136350D01*
X144049Y120475D02*
X146549Y125476D01*
X146000Y112450D02*
Y124378D01*
X139000Y111650D02*
Y117689D01*
X138524Y117451D02*
X143524Y119951D01*
X115500Y117327D02*
X138000Y117327D01*
X132000Y111650D02*
Y117327D01*
X141357Y111650D02*
X141674Y111967D01*
X119738Y112000D02*
X141708D01*
X125000Y111650D02*
Y117327D01*
X109976Y119951D02*
X114976Y117451D01*
X106951Y125476D02*
X109451Y120475D01*
X111000Y115650D02*
Y119439D01*
X105738Y126000D02*
X106827D01*
X118000Y116650D02*
Y117327D01*
X110454Y119000D02*
X111878D01*
X109225Y115650D02*
X115926D01*
X145549Y105850D02*
X145958D01*
X113225Y108350D02*
X141373D01*
X119225Y111650D02*
X141357D01*
X114454Y105000D02*
X145852D01*
X130886Y98000D02*
X146262D01*
X118000Y103100D02*
Y108350D01*
X125000Y102016D02*
Y108350D01*
X111000Y103100D02*
Y103546D01*
X104000Y119650D02*
Y125350D01*
X101739Y126000D02*
X102261D01*
X6650D02*
X98261D01*
X86074Y119650D02*
X105926D01*
X69477Y108200D02*
X98055D01*
X62074Y112350D02*
X98775D01*
X61739Y112000D02*
X98261D01*
X62074Y115650D02*
X82775D01*
X97000Y108200D02*
Y112350D01*
X6650Y119000D02*
X81546D01*
X83000Y108200D02*
Y112350D01*
X76000Y108200D02*
Y112350D01*
X90000Y108200D02*
Y112350D01*
X6650Y112000D02*
X58262D01*
X69000Y108454D02*
Y112350D01*
X97000Y103100D02*
Y104900D01*
X90000Y103100D02*
Y104900D01*
X104000Y103100D02*
Y104900D01*
X70411D02*
X109589D01*
X76000Y103100D02*
Y104900D01*
X83000Y103100D02*
Y104900D01*
X82210Y99800D02*
X120523D01*
X72411Y103100D02*
X119589D01*
X71738Y98000D02*
X77150D01*
X71477Y99800D02*
X77790D01*
X69000Y98454D02*
Y99546D01*
X6650Y105000D02*
X65546D01*
X6650Y98000D02*
X68261D01*
X160643Y91000D02*
X189357D01*
X160643Y84000D02*
X189357D01*
X160000Y94532D02*
Y95468D01*
X156302Y95169D02*
X158858D01*
X160000Y89532D02*
Y90468D01*
X155966Y94833D02*
X156302Y95169D01*
X155964Y94831D02*
X158858D01*
X156298Y90169D02*
X158858D01*
X160000Y84532D02*
Y85468D01*
X155710Y89831D02*
X158858D01*
X188000Y70030D02*
Y126261D01*
X161135Y77000D02*
X188865D01*
X174000Y70030D02*
Y127600D01*
X181000Y48454D02*
Y160350D01*
X178030Y70000D02*
X187970D01*
X156650D02*
X173970D01*
X160000Y79532D02*
Y80468D01*
X167000Y47650D02*
Y127600D01*
X153740Y80169D02*
X158858D01*
X160000Y54650D02*
Y75468D01*
X153740Y79831D02*
X158858D01*
X153740Y75169D02*
X158858D01*
X150150Y97549D02*
Y103026D01*
Y98000D02*
X151463D01*
X146000Y97738D02*
Y104221D01*
X150501Y96875D02*
X150793Y97167D01*
X145207D02*
X145499Y96875D01*
X149990Y89750D02*
X153131D01*
X132000Y97650D02*
Y108350D01*
X139000Y97650D02*
Y108350D01*
X125000Y97650D02*
Y100884D01*
X130787Y97650D02*
X144040D01*
X109739Y98000D02*
X125314D01*
X110074Y97650D02*
X125413D01*
X153740Y84831D02*
X158858D01*
X153740Y85169D02*
X158858D01*
X153000Y84711D02*
Y85290D01*
X144061Y84000D02*
X151956D01*
X153000Y79711D02*
Y80290D01*
Y72454D02*
Y75289D01*
X146672Y77000D02*
X151463D01*
X139000Y86811D02*
Y87250D01*
X110337D02*
X145458D01*
X115500Y87172D02*
X138000Y87173D01*
X146672Y70000D02*
X151350D01*
X146000Y80122D02*
Y86261D01*
X146672Y56000D02*
Y78500D01*
X138524Y87049D02*
X143524Y84549D01*
X144049Y84024D02*
X146549Y79024D01*
X174000Y47650D02*
Y65970D01*
X183225Y43650D02*
X266126D01*
X157906Y63000D02*
X198094D01*
X157906Y56000D02*
X198094D01*
X157906Y54915D02*
Y60000D01*
Y60062D02*
Y67087D01*
Y54915D02*
X158582Y54239D01*
X155650Y67087D02*
X157906D01*
X160000Y47650D02*
Y49350D01*
X188000Y33650D02*
Y40350D01*
Y43650D02*
Y65970D01*
X181000Y33650D02*
Y40350D01*
X170074Y30350D02*
X213926D01*
X170074Y33650D02*
X213926D01*
X181000Y25650D02*
Y30350D01*
X188000Y12030D02*
Y22350D01*
Y25650D02*
Y30350D01*
Y6650D02*
Y7970D01*
X174000Y33650D02*
Y40350D01*
X167000Y34454D02*
Y40350D01*
X174000Y25650D02*
Y30350D01*
X160000Y25650D02*
Y40350D01*
X174000Y6650D02*
Y22350D01*
X167000Y25650D02*
Y29546D01*
X181000Y6650D02*
Y22350D01*
X160000Y6650D02*
Y22350D01*
X167000Y6650D02*
Y22350D01*
X155650Y67087D02*
Y67926D01*
X150094Y67087D02*
X152350D01*
X153000Y47650D02*
Y52976D01*
X150094Y60000D02*
X157906D01*
X150094Y60062D02*
X157906D01*
X150094Y52976D02*
X155179D01*
X148454Y49000D02*
X211878D01*
X155179Y52976D02*
X157321Y50833D01*
X147225Y47650D02*
X179926D01*
X114074Y40350D02*
X267000D01*
X62669Y35000D02*
X266697D01*
X152350Y67087D02*
Y67926D01*
X150094Y60062D02*
Y67087D01*
Y52976D02*
Y60000D01*
X146672Y63000D02*
X150094D01*
X146672Y56000D02*
X150094D01*
X146000Y52650D02*
Y54378D01*
X145318Y53015D02*
X146549Y55476D01*
X145318Y53015D02*
X145701Y52633D01*
X153000Y25650D02*
Y40350D01*
X146000Y25650D02*
Y40350D01*
X153000Y6650D02*
Y22350D01*
X6650Y28000D02*
X267201D01*
X70074Y25650D02*
X264986D01*
X146000Y6650D02*
Y22350D01*
X6650Y21000D02*
X265652D01*
X70074Y22350D02*
X264302D01*
X6650Y14000D02*
X318469D01*
X6650Y7000D02*
X346350D01*
X6650Y6650D02*
X346350D01*
X139000Y25650D02*
Y40350D01*
X132000Y25650D02*
Y40350D01*
X139000Y6650D02*
Y22350D01*
X132000Y13669D02*
Y22350D01*
Y6650D02*
Y8331D01*
X118000Y97650D02*
Y99800D01*
X111000Y97650D02*
Y99800D01*
X82850Y98000D02*
X106262D01*
X104000Y97824D02*
Y99800D01*
X111000Y85061D02*
Y87250D01*
X110321Y84722D02*
X114976Y87049D01*
X98074Y84350D02*
X105926D01*
X90000Y96200D02*
Y99800D01*
X83000Y96200D02*
Y99800D01*
X97000Y96200D02*
Y99800D01*
X82210Y96200D02*
X100792D01*
X76093D02*
X77790D01*
X106951Y79024D02*
X109278Y83679D01*
X104000Y48549D02*
Y84350D01*
X97738Y84000D02*
X106262D01*
X98850Y70000D02*
X106827D01*
X106827Y56000D02*
X106827Y78500D01*
X97000Y81650D02*
Y83546D01*
X90000Y81650D02*
Y84450D01*
X97000Y72669D02*
Y78350D01*
X83000Y81650D02*
Y84450D01*
Y25650D02*
Y78350D01*
X97000Y25650D02*
Y67331D01*
X90000Y25650D02*
Y78350D01*
X76000Y96293D02*
Y99800D01*
X75126Y97167D02*
X76093Y96200D01*
X72074Y97650D02*
X73960D01*
X75016Y84000D02*
X94261D01*
X75474Y84450D02*
X93851D01*
X76000Y81650D02*
Y84450D01*
X70074Y81650D02*
X97926D01*
X70074Y78350D02*
X97926D01*
X72074Y94350D02*
X72775D01*
X69000Y90550D02*
Y93546D01*
X6650Y91000D02*
X71546D01*
X68900Y90550D02*
X71782D01*
X70542Y87250D02*
X71013D01*
X69000Y82454D02*
Y85546D01*
X6650Y84000D02*
X71784D01*
X69000Y76669D02*
Y77546D01*
X76000Y25650D02*
Y78350D01*
X6650Y77000D02*
X106827D01*
X69000Y40669D02*
Y71331D01*
X6650Y70000D02*
X93150D01*
X55000Y62454D02*
Y168350D01*
X41000Y64454D02*
Y168350D01*
X48000Y39650D02*
Y168350D01*
X13000Y63650D02*
Y196350D01*
X6650Y6650D02*
Y196350D01*
X34000Y63650D02*
Y133350D01*
X27000Y63650D02*
Y105331D01*
X62000Y61739D02*
Y112261D01*
X20000Y63650D02*
Y136261D01*
X109976Y49951D02*
X114578Y47650D01*
X111000D02*
Y49439D01*
X105349Y47650D02*
X114578D01*
X106951Y55476D02*
X109451Y50476D01*
X105349Y44350D02*
X110775D01*
X62000Y39739D02*
Y58262D01*
X56074Y58350D02*
X61926D01*
X61612Y36350D02*
X61926D01*
X125000Y25650D02*
Y40350D01*
X118000Y25650D02*
Y40350D01*
Y6650D02*
Y22350D01*
X111000Y25650D02*
Y39546D01*
X104000Y25650D02*
Y43451D01*
X83000Y6650D02*
Y22350D01*
X111000Y6650D02*
Y22350D01*
X104000Y6650D02*
Y22350D01*
X125000Y6650D02*
Y22350D01*
X90000Y6650D02*
Y22350D01*
X97000Y6650D02*
Y22350D01*
X69000Y26454D02*
Y35331D01*
X62000Y25650D02*
Y31970D01*
X69000Y6650D02*
Y21546D01*
X76000Y6650D02*
Y22350D01*
X62000Y6650D02*
Y22350D01*
X44454Y63000D02*
X106827D01*
X56074Y61650D02*
X61926D01*
X41000Y39650D02*
Y59546D01*
X28669Y49000D02*
X111878D01*
X40074Y39650D02*
X61926D01*
X55000D02*
Y57546D01*
X6650Y56000D02*
X106827D01*
X6650Y42000D02*
X109350D01*
X12074Y63650D02*
X39926D01*
X27000Y50669D02*
Y60350D01*
X6650Y63000D02*
X7546D01*
X12074Y60350D02*
X39926D01*
X6650Y49000D02*
X23331D01*
X48000Y25738D02*
Y36350D01*
X55000Y25650D02*
Y36350D01*
X40074D02*
X58388D01*
X6650Y35000D02*
X57331D01*
X48074Y22350D02*
X65926D01*
X48074Y25650D02*
X65926D01*
X55000Y6650D02*
Y22350D01*
X48000Y6650D02*
Y22262D01*
X34000Y6650D02*
Y60350D01*
X27000Y6650D02*
Y45331D01*
X13000Y6650D02*
Y60350D01*
X20000Y6650D02*
Y60350D01*
X41000Y34669D02*
Y36350D01*
Y6650D02*
Y29331D01*
D11*
X126000Y137000D02*
D03*
Y67000D02*
D03*
X226000Y137000D02*
D03*
Y67000D02*
D03*
D12*
X156000Y143574D02*
D03*
Y136488D02*
D03*
X202000Y63574D02*
D03*
Y56488D02*
D03*
X200000Y136457D02*
D03*
Y143543D02*
D03*
X154000Y63574D02*
D03*
Y56488D02*
D03*
D13*
X156299Y122500D02*
D03*
Y117500D02*
D03*
Y112500D02*
D03*
Y107500D02*
D03*
Y102500D02*
D03*
Y97500D02*
D03*
Y92500D02*
D03*
Y87500D02*
D03*
Y82500D02*
D03*
Y77500D02*
D03*
X193701Y122500D02*
D03*
Y117500D02*
D03*
Y112500D02*
D03*
Y107500D02*
D03*
Y102500D02*
D03*
Y97500D02*
D03*
Y92500D02*
D03*
Y87500D02*
D03*
Y82500D02*
D03*
Y77500D02*
D03*
D14*
X190000Y152000D02*
Y154500D01*
Y149500D02*
Y152000D01*
X192500D01*
X193701Y122500D02*
X198441D01*
X193701Y120319D02*
Y122500D01*
Y124681D01*
X344000Y59500D02*
Y62000D01*
X341500D02*
X344000D01*
X324000Y38000D02*
Y40500D01*
Y38000D02*
X326500D01*
X321500D02*
X324000D01*
Y35500D02*
Y38000D01*
X190000Y68000D02*
Y70500D01*
Y65500D02*
Y68000D01*
X281000Y35000D02*
Y38953D01*
Y35000D02*
X284953D01*
X277047D02*
X281000D01*
Y31047D02*
Y35000D01*
X271000D02*
X274953D01*
X271000D02*
Y38953D01*
Y31047D02*
Y35000D01*
X267047D02*
X271000D01*
X190000Y10000D02*
Y12500D01*
Y10000D02*
X192500D01*
X190000Y7500D02*
Y10000D01*
X165000Y173000D02*
Y175500D01*
Y173000D02*
X167500D01*
X174000Y152000D02*
X176500D01*
X187500D02*
X190000D01*
X174000D02*
Y154500D01*
Y149500D02*
Y152000D01*
X171500D02*
X174000D01*
X162500Y173000D02*
X165000D01*
X188961Y122500D02*
X193701D01*
X156299Y117500D02*
X161039D01*
X156299D02*
Y119681D01*
Y115319D02*
Y117500D01*
X151559D02*
X156299D01*
X64000Y187500D02*
Y190000D01*
Y192500D01*
X61500Y190000D02*
X64000D01*
X66500D01*
X128100Y98600D02*
X130600D01*
X128100D02*
Y101100D01*
X125600Y98600D02*
X128100D01*
X28000Y105500D02*
Y108000D01*
Y110500D01*
Y108000D02*
X30500D01*
X25500D02*
X28000D01*
X176000Y68000D02*
Y70500D01*
X187500Y68000D02*
X190000D01*
X176000D02*
X178500D01*
X190000D02*
X192500D01*
X176000Y65500D02*
Y68000D01*
X173500D02*
X176000D01*
X187500Y10000D02*
X190000D01*
X133000Y11000D02*
X135500D01*
X133000D02*
Y13500D01*
Y8500D02*
Y11000D01*
X130500D02*
X133000D01*
X80000Y98000D02*
X82500D01*
X77500D02*
X80000D01*
X96000Y70000D02*
X98500D01*
X96000Y67500D02*
Y70000D01*
Y72500D01*
X93500Y70000D02*
X96000D01*
X70000Y74000D02*
Y76500D01*
Y74000D02*
X72500D01*
X70000Y71500D02*
Y74000D01*
X67500D02*
X70000D01*
Y38000D02*
Y40500D01*
Y35500D02*
Y38000D01*
X72500D01*
X67500D02*
X70000D01*
X60000Y34000D02*
X62500D01*
X60000Y31500D02*
Y34000D01*
X57500D02*
X60000D01*
X26000Y48000D02*
X28500D01*
X26000D02*
Y50500D01*
Y45500D02*
Y48000D01*
X23500D02*
X26000D01*
X42000Y32000D02*
X44500D01*
X42000D02*
Y34500D01*
Y29500D02*
Y32000D01*
X39500D02*
X42000D01*
X169000Y147000D02*
X170000Y148000D01*
X167000Y147000D02*
X169000D01*
X163574Y143574D02*
X167000Y147000D01*
X170000D02*
Y148000D01*
X159043Y162000D02*
X204000D01*
X143000Y154000D02*
X147000D01*
X204000Y162000D02*
X210000Y156000D01*
X70550Y101450D02*
X123450D01*
X193701Y116000D02*
X236000D01*
X226000Y137000D02*
X246000Y117000D01*
Y110000D02*
Y117000D01*
X236000Y77000D02*
Y94000D01*
X226000Y67000D02*
X236000Y77000D01*
X168000Y32000D02*
X168000Y32000D01*
X216000D01*
X112000Y42000D02*
X267000D01*
X129460Y96000D02*
X144040D01*
X129260Y95800D02*
X129460Y96000D01*
X126940Y95800D02*
X129260D01*
X126740Y96000D02*
X126940Y95800D01*
X108000Y96000D02*
X126740D01*
X144040D02*
X146840Y93200D01*
X147340Y107900D02*
X155899D01*
X156299Y107500D01*
X146940D02*
X147340Y107900D01*
X144500Y107500D02*
X146940D01*
X148500Y96500D02*
Y105100D01*
X148000Y96000D02*
X148500Y96500D01*
X73960Y96000D02*
X75410Y94550D01*
X70000Y96000D02*
X73960D01*
X75410Y94550D02*
X102550D01*
X74000Y92000D02*
X116000D01*
X155199Y91400D02*
X156299Y92500D01*
X149160Y93200D02*
X151960Y96000D01*
X154799D01*
X124600Y91400D02*
X155199D01*
X124000Y92000D02*
X124600Y91400D01*
X146840Y93200D02*
X149160D01*
X60000Y114000D02*
X118000D01*
X122000Y102000D02*
X122900D01*
X123450Y101450D01*
X38000Y38000D02*
X64000D01*
X70000Y102000D02*
X70550Y101450D01*
X68550Y106550D02*
X111450D01*
X112000Y106000D01*
X68000D02*
X68550Y106550D01*
X154799Y96000D02*
X156299Y97500D01*
X144000Y108000D02*
X144500Y107500D01*
X100000Y110000D02*
X100550Y110550D01*
X120000Y166000D02*
X254000D01*
X275747Y20747D02*
X280000Y25000D01*
X268238Y20747D02*
X275747D01*
X264986Y24000D02*
X268238Y20747D01*
X68000Y24000D02*
X264986D01*
X193701Y116000D02*
Y117500D01*
X221500Y112500D02*
X222000Y112000D01*
X193701Y112500D02*
X221500D01*
X193701Y107500D02*
X215500D01*
X126000Y137000D02*
X143000Y154000D01*
X209500Y102500D02*
X210000Y102000D01*
X193701Y102500D02*
X209500D01*
X126000Y67000D02*
X129000D01*
X146000Y50000D01*
X100000Y128000D02*
X104000D01*
X84000Y118000D02*
X108000D01*
X102550Y94550D02*
X103275Y95275D01*
X96000Y86000D02*
X108000D01*
X196000Y52000D02*
X197512D01*
X202000Y56488D01*
X158488Y52000D02*
X160000D01*
X154000Y56488D02*
X158488Y52000D01*
X186000Y128000D02*
Y129543D01*
X200000Y143543D01*
X156000Y143574D02*
X163574D01*
X154000Y63574D02*
X154000Y63574D01*
Y70000D01*
X202000Y63574D02*
X202000Y63574D01*
Y70000D01*
X200000Y130000D02*
X200000Y130000D01*
Y136457D01*
X156000Y130000D02*
X156000Y130000D01*
Y136488D01*
X10000Y62000D02*
X42000D01*
X58000Y134000D02*
X100000D01*
X32000Y138000D02*
X34000Y136000D01*
X18000Y138000D02*
X32000D01*
X22000Y170000D02*
X181000D01*
X267000Y42000D02*
X270000Y45000D01*
X103275Y46000D02*
X182000D01*
X68000Y80000D02*
X100000D01*
X54000Y60000D02*
X64000D01*
X46000Y24000D02*
X68000D01*
X100000Y110000D02*
X142040D01*
X142840Y110800D01*
X154599D01*
X156299Y112500D01*
X95900Y86100D02*
X96000Y86000D01*
X73400Y86100D02*
X95900D01*
X68900Y88900D02*
X147100D01*
X68000Y88000D02*
X68900Y88900D01*
X147100D02*
X148000Y88000D01*
X0Y0D02*
X353000D01*
X0D02*
Y203000D01*
X353000D01*
Y0D02*
Y203000D01*
D15*
X156299Y122500D02*
X160000Y126201D01*
Y130000D01*
X178000D01*
D16*
X324000Y66000D02*
X344000D01*
D17*
X336200Y173800D02*
X340200D01*
X336200Y173600D02*
X340200D01*
X336400Y173400D02*
X340200Y173400D01*
X336400Y173200D02*
X340200D01*
X336400Y173000D02*
X340200Y173000D01*
X336600Y172800D02*
X340200D01*
X336600Y172600D02*
X340200Y172600D01*
X336800Y172400D02*
X340200D01*
X335000Y172200D02*
X335600Y172200D01*
X336800Y172200D02*
X340200Y172200D01*
X335200Y172000D02*
X335600D01*
X336800D02*
X340200D01*
X336800Y171800D02*
X340200D01*
X337000Y171600D02*
X340200D01*
X337000Y171400D02*
X340200D01*
X337400Y171200D02*
X340200D01*
X338000Y171000D02*
X340200D01*
X338400Y170800D02*
X340200Y170800D01*
X338800Y170600D02*
X339800D01*
X340000D02*
X340200D01*
X339400Y170400D02*
X339800D01*
X334600Y170200D02*
X338200D01*
X335400Y170000D02*
X338800D01*
X335600Y169800D02*
X339000D01*
X336400Y169600D02*
X339600D01*
X337000Y169400D02*
X340200D01*
X337400Y169200D02*
X340600D01*
X338000Y169000D02*
X341200D01*
X337200Y181800D02*
X340200D01*
X337200Y181600D02*
X340400D01*
X337200Y181400D02*
X340400D01*
X337200Y181200D02*
X340400D01*
X337200Y181000D02*
X340400Y181000D01*
X337200Y180800D02*
X340400Y180800D01*
X337200Y180600D02*
X340400D01*
X337400Y180400D02*
X340400D01*
X337400Y180200D02*
X340400D01*
X337400Y180000D02*
X340400D01*
X335800Y175400D02*
X340200D01*
X335800Y175200D02*
X340200D01*
X335800Y175000D02*
X340200D01*
X336000Y174800D02*
X340200Y174800D01*
X336000Y174600D02*
X340200D01*
X336200Y174400D02*
X340200D01*
X336200Y174200D02*
X340200D01*
X335000Y189200D02*
X336200Y189200D01*
X335000Y189000D02*
X336200D01*
X335000Y188800D02*
X336200D01*
X335000Y188600D02*
X336200D01*
X335000Y188400D02*
X336200D01*
X335000Y188200D02*
X336200D01*
X335000Y188000D02*
X336200D01*
X335000Y187800D02*
X336200D01*
X335000Y187600D02*
X336200Y187600D01*
X335000Y187400D02*
X336200Y187400D01*
X335000Y187200D02*
X336200D01*
X335000Y187000D02*
X336200D01*
X335000Y186800D02*
X336200D01*
X335000Y186600D02*
X336200D01*
X335000Y186400D02*
X336200D01*
X335000Y186200D02*
X336200Y186200D01*
X335000Y186000D02*
X336200Y186000D01*
X335000Y185800D02*
X336200D01*
X335000Y185600D02*
X336200D01*
X335000Y185400D02*
X336400D01*
X335000Y185200D02*
X337200Y185200D01*
X335000Y185000D02*
X337800D01*
X335000Y184800D02*
X338400Y184800D01*
X335400Y184600D02*
X338800D01*
X336000Y184400D02*
X339400Y184400D01*
X336800Y184200D02*
X340000D01*
X337000Y184000D02*
X340400D01*
X337800Y183800D02*
X341000D01*
X338400Y183600D02*
X341600D01*
X339000Y183400D02*
X342200D01*
X337600Y182800D02*
X338000D01*
X337600Y182600D02*
X338200D01*
X337200Y182400D02*
X338800D01*
X337200Y182200D02*
X339400Y182200D01*
X330200Y165800D02*
X331800D01*
X330200Y165600D02*
X331600D01*
X329800Y165400D02*
X331400D01*
X329800Y165200D02*
X331400D01*
X329600Y165000D02*
X331600D01*
X329800Y164800D02*
X331800Y164800D01*
X330000Y164600D02*
X331800D01*
X330200Y164400D02*
X331800D01*
X330000Y164200D02*
X331600D01*
X329800Y164000D02*
X331400D01*
X329600Y163800D02*
X331400D01*
X329400Y163600D02*
X331000D01*
X329200Y163400D02*
X330800D01*
X329000Y163200D02*
X330800D01*
X328800Y163000D02*
X330400D01*
X328400Y162800D02*
X330200D01*
X328200Y162600D02*
X330000D01*
X327800Y162400D02*
X329800D01*
X327400Y162200D02*
X329600D01*
X327000Y162000D02*
X329200D01*
X326800Y161800D02*
X329000Y161800D01*
X326600Y161200D02*
X328000D01*
X326800Y161000D02*
X328200D01*
X326600Y160800D02*
X328200D01*
X327600Y173600D02*
X331600D01*
X328600Y173400D02*
X331400Y173400D01*
X329000Y173200D02*
X331400D01*
X330000Y173000D02*
X331400D01*
X330400Y172800D02*
X331400D01*
X330400Y172600D02*
X331400Y172600D01*
X330400Y172400D02*
X331400D01*
X330400Y172200D02*
X331800D01*
X330400Y172000D02*
X332400D01*
X327000Y171800D02*
X329600D01*
X330400D02*
X333000D01*
X327600Y171600D02*
X329800D01*
X330400D02*
X333800D01*
X328200Y171400D02*
X330400D01*
X328400Y171200D02*
X330200D01*
X328600Y171000D02*
X330000D01*
X328400Y170800D02*
X330000D01*
X328200Y170600D02*
X330200D01*
X328400Y170400D02*
X330400Y170400D01*
X328800Y170200D02*
X330800D01*
X329200Y170000D02*
X331000Y170000D01*
X329400Y169800D02*
X331400D01*
X329800Y169600D02*
X331600D01*
X330000Y169400D02*
X331800D01*
X330200Y169200D02*
X332000D01*
X330600Y169000D02*
X332200D01*
X330800Y168800D02*
X332400D01*
X331000Y168600D02*
X332600D01*
X331400Y168400D02*
X332800D01*
X331600Y168200D02*
X333000D01*
X331800Y168000D02*
X333000D01*
X331600Y167800D02*
X333000D01*
X331600Y167600D02*
X332800D01*
X331400Y167400D02*
X332800D01*
X331400Y167200D02*
X332600D01*
X331200Y167000D02*
X332400D01*
X331000Y166800D02*
X332400D01*
X331000Y166600D02*
X332200D01*
X330800Y166400D02*
X332200D01*
X330600Y166200D02*
X332000D01*
X328800Y181800D02*
X331800D01*
X328800Y181600D02*
X331800D01*
X328800Y181400D02*
X331800D01*
X328800Y181200D02*
X331800D01*
X328800Y181000D02*
X331800D01*
X328800Y180800D02*
X331800D01*
X328800Y180600D02*
X331800D01*
X328800Y180400D02*
X331800D01*
X328800Y180200D02*
X331800D01*
X328800Y180000D02*
X331800D01*
X328800Y179800D02*
X331800D01*
X328800Y179600D02*
X331800D01*
X328800Y179400D02*
X331800D01*
X328800Y179200D02*
X331800D01*
X328800Y179000D02*
X331800D01*
X328800Y178800D02*
X331800D01*
X328800Y178600D02*
X331800D01*
X328800Y178400D02*
X331800D01*
X328800Y178200D02*
X331800D01*
X328800Y178000D02*
X331800D01*
X328800Y177800D02*
X331800D01*
X328800Y177600D02*
X331800D01*
X328800Y177400D02*
X331800D01*
X328800Y177200D02*
X331800D01*
X328600Y177000D02*
X331800D01*
X328400Y176800D02*
X332000D01*
X328400Y176600D02*
X332000Y176600D01*
X326600Y176400D02*
X327800D01*
X328400Y176400D02*
X332200Y176400D01*
X326800Y176200D02*
X327800D01*
X328400D02*
X332200D01*
X326800Y176000D02*
X327800D01*
X328400D02*
X332200D01*
X326800Y175800D02*
X327800D01*
X328400D02*
X332200D01*
X326800Y175600D02*
X327800D01*
X328400D02*
X332200D01*
X326800Y175400D02*
X327800D01*
X328400D02*
X332200D01*
X326600Y175200D02*
X327800D01*
X328400Y175200D02*
X332200Y175200D01*
X326600Y175000D02*
X327800D01*
X329000D02*
X332200D01*
X326600Y174800D02*
X327800D01*
X329800Y174800D02*
X332200Y174800D01*
X330200Y174600D02*
X332200D01*
X331000Y174400D02*
X331800D01*
X326800Y189600D02*
X328200D01*
X326600Y189400D02*
X328600D01*
X330600Y188800D02*
X331200D01*
X328400Y188600D02*
X329800D01*
X330600D02*
X331600D01*
X328800Y188400D02*
X330000D01*
X330800D02*
X332400D01*
X329000Y188200D02*
X330200D01*
X330800D02*
X333200D01*
X329000Y188000D02*
X330200D01*
X330800D02*
X333600D01*
X334000D02*
X334200D01*
X329000Y187800D02*
X330200D01*
X330800D02*
X334200D01*
X329000Y187600D02*
X330200D01*
X330800D02*
X332000Y187600D01*
X332200Y187600D02*
X334200D01*
X328800Y187400D02*
X330200D01*
X330800D02*
X332000Y187400D01*
X332400Y187400D02*
X334200D01*
X326800Y187200D02*
X330200D01*
X330800D02*
X332800D01*
X333400D02*
X334200D01*
X327000Y187000D02*
X330200Y187000D01*
X330800D02*
X333600D01*
X333800D02*
X334200Y187000D01*
X327600Y186800D02*
X329800Y186800D01*
X330800Y186800D02*
X333600D01*
X327800Y186600D02*
X329800Y186600D01*
X330800Y186600D02*
X333600D01*
X330800Y186400D02*
X332000D01*
X332400D02*
X333600D01*
X330600Y186200D02*
X332000D01*
X333200Y186200D02*
X333600Y186200D01*
X330600Y186000D02*
X332000D01*
X333400Y186000D02*
X333600D01*
X331200Y185800D02*
X332200D01*
X329000Y185600D02*
X329400D01*
X331800D02*
X332200D01*
X329000Y185400D02*
X329600D01*
X328400Y185200D02*
X330600Y185200D01*
X333000Y184400D02*
X333400Y184400D01*
X333000Y184200D02*
X334200D01*
X328800Y183400D02*
X332200D01*
X328800Y183200D02*
X332200D01*
X328800Y183000D02*
X332200D01*
X328800Y182800D02*
X332000D01*
X328200Y182600D02*
X328400D01*
X328800D02*
X332000D01*
X327200Y182400D02*
X328000D01*
X328800D02*
X331800D01*
X328800Y182200D02*
X331800D01*
X327000Y190600D02*
X331800D01*
X319200Y157800D02*
X321000D01*
X321800D02*
X324000D01*
X319200Y157600D02*
X321000D01*
X321800D02*
X324000D01*
X319400Y157400D02*
X321000D01*
X321800Y157400D02*
X324000D01*
X319400Y157200D02*
X321200Y157200D01*
X321800D02*
X324000Y157200D01*
X319400Y157000D02*
X321200D01*
X321800D02*
X324000D01*
X319400Y156800D02*
X321200D01*
X321800D02*
X324000D01*
X319400Y156600D02*
X321200D01*
X321800D02*
X324000D01*
X319200Y156400D02*
X321200D01*
X322000D02*
X324200D01*
X319000Y156200D02*
X321200D01*
X322000D02*
X324200D01*
X320400Y156000D02*
X321400D01*
X322200D02*
X324400D01*
X320400Y155800D02*
X321400D01*
X322200D02*
X324400D01*
X320400Y155600D02*
X321600D01*
X322200D02*
X324400D01*
X320400Y155400D02*
X321600D01*
X322200D02*
X324600D01*
X320400Y155200D02*
X321600Y155200D01*
X322400Y155200D02*
X324600Y155200D01*
X320600Y155000D02*
X321800D01*
X322400D02*
X324600Y155000D01*
X319000Y154800D02*
X320000D01*
X320600D02*
X321800D01*
X322600D02*
X324600D01*
X319000Y154600D02*
X320200D01*
X320800D02*
X322000D01*
X322600D02*
X324400D01*
X319000Y154400D02*
X320200D01*
X320800D02*
X322000D01*
X322600D02*
X324400D01*
X319000Y154200D02*
X320200D01*
X321000Y154200D02*
X322200Y154200D01*
X322600D02*
X324400D01*
X319200Y154000D02*
X320400D01*
X321000D02*
X324400D01*
X319200Y153800D02*
X320400D01*
X321000D02*
X324400D01*
X319200Y153600D02*
X320400D01*
X321000D02*
X324200D01*
X319400Y153400D02*
X324200D01*
X319400Y153200D02*
X324200D01*
X319400Y153000D02*
X323800D01*
X318600Y164800D02*
X320400D01*
X319000Y164600D02*
X320200D01*
X323600Y163000D02*
X326200D01*
X323400Y162800D02*
X325800D01*
X323200Y162600D02*
X325600Y162600D01*
X323000Y162400D02*
X325200D01*
X322600Y162200D02*
X324400D01*
X322400Y162000D02*
X323800D01*
X322200Y161800D02*
X323600D01*
X322000Y161600D02*
X322800D01*
X321600Y161400D02*
X322200D01*
X321400Y161200D02*
X321800Y161200D01*
X321000Y161000D02*
X321200D01*
X318600Y160400D02*
X319000D01*
X318600Y160200D02*
X319200D01*
X318800Y160000D02*
X319400D01*
X318800Y159800D02*
X319600D01*
X318800Y159600D02*
X319600Y159600D01*
X318800Y159400D02*
X319800Y159400D01*
X321000D02*
X326000Y159400D01*
X318800Y159200D02*
X319800D01*
X320600D02*
X325600D01*
X318800Y159000D02*
X319800D01*
X320200D02*
X324200D01*
X318600Y158800D02*
X323800D01*
X318600Y158600D02*
X323800Y158600D01*
X318600Y158400D02*
X324000D01*
X319000Y158200D02*
X321000D01*
X321600Y158200D02*
X324000Y158200D01*
Y173800D02*
X325400D01*
X323600Y173600D02*
X325200D01*
X323200Y173400D02*
X325200D01*
X323200Y173200D02*
X325000D01*
X323800Y173000D02*
X325000D01*
X324400Y172800D02*
X324800D01*
X322600Y172000D02*
X323000D01*
Y171800D02*
X323800D01*
X323200Y171600D02*
X324400D01*
X323600Y171400D02*
X325200D01*
X323600Y171200D02*
X325600D01*
X323800Y171000D02*
X326200D01*
X320000Y170200D02*
X321200D01*
X324600D02*
X326200D01*
X319400Y170000D02*
X321600Y170000D01*
X319200Y169800D02*
X321600D01*
X319000Y169600D02*
X321800D01*
X318600Y169400D02*
X321800D01*
X320800Y169000D02*
X322000D01*
X321200Y168800D02*
X322000D01*
X321400Y168600D02*
X322000D01*
X321600Y168400D02*
X322000D01*
X319800Y167400D02*
X320000D01*
X319800Y167200D02*
X320200D01*
X318600Y167000D02*
X319200D01*
X319800D02*
X320400D01*
X319800Y166800D02*
X320600D01*
X319600Y166600D02*
X320600D01*
X319600Y166400D02*
X320800D01*
X322200Y180400D02*
X323000D01*
X321600Y180200D02*
X324200D01*
X321600Y179800D02*
X324800D01*
X321600Y179600D02*
X324800D01*
X321600Y179400D02*
X324800D01*
X321600Y179200D02*
X324800D01*
X321600Y179000D02*
X324800D01*
X321600Y178800D02*
X324800Y178800D01*
X321600Y178600D02*
X325000Y178600D01*
X321600Y178400D02*
X325200D01*
X319200Y177000D02*
X322600D01*
X324400Y176600D02*
X324600D01*
X324800D02*
X325200D01*
X323400Y176400D02*
X325200D01*
X322600Y176200D02*
X325000D01*
X322200Y176000D02*
X325000D01*
X321600Y175800D02*
X325000D01*
X321000Y175600D02*
X324800D01*
X320400Y175400D02*
X324600D01*
X325400D02*
X325600D01*
X320200Y175200D02*
X324400D01*
X325400Y175200D02*
X325600Y175200D01*
X325200Y175000D02*
X325600D01*
X325000Y174800D02*
X325600D01*
X325000Y174600D02*
X325600D01*
X324800Y174400D02*
X325600D01*
X324400Y174200D02*
X325600D01*
X321200Y189800D02*
X322400Y189800D01*
X322600Y189800D02*
X324200D01*
X321200Y189600D02*
X324000Y189600D01*
X321400Y189400D02*
X323800D01*
X321600Y189200D02*
X323600Y189200D01*
X321800Y189000D02*
X323200D01*
X321800Y188800D02*
X323200D01*
X321800Y188600D02*
X323200D01*
X321800Y188400D02*
X323200D01*
X321600Y188200D02*
X323200D01*
X321600Y188000D02*
X323200D01*
X322200Y187800D02*
X323200D01*
X318600Y187600D02*
X319600D01*
X318600Y187400D02*
X320400Y187400D01*
X323200Y186800D02*
X325400D01*
X323000Y186600D02*
X325800D01*
X318600Y185200D02*
X321200D01*
X318600Y185000D02*
X321200D01*
X318600Y184800D02*
X321200Y184800D01*
X318600Y184600D02*
X321200D01*
X321600Y184200D02*
X324800D01*
X321600Y184000D02*
X324800D01*
X321600Y183800D02*
X324800D01*
X321600Y183600D02*
X324800D01*
X321600Y183400D02*
X325000D01*
X321600Y183200D02*
X325000D01*
X321800Y182600D02*
X326000D01*
X319600Y191200D02*
X319800D01*
X320400Y191000D02*
X320600D01*
X320400Y190800D02*
X322200D01*
X320400Y190600D02*
X322200D01*
X320600Y190400D02*
X322200D01*
X323000D02*
X324200D01*
X319600Y190200D02*
X320000D01*
X320800D02*
X322200D01*
X323000D02*
X324600D01*
X311200Y157800D02*
X312400D01*
X316000D02*
X317800D01*
X316600Y157600D02*
X317800D01*
X317000Y157400D02*
X317800D01*
X314000Y157200D02*
X315800D01*
X317000D02*
X317800D01*
X311800Y157000D02*
X312000D01*
X313400D02*
X316400D01*
X311200Y156800D02*
X311800D01*
X314600D02*
X316800D01*
X315600Y156600D02*
X317200D01*
X315800Y156400D02*
X317400D01*
X316200Y156200D02*
X317800D01*
X311800Y155000D02*
X314400Y155000D01*
X312000Y154200D02*
X316800Y154200D01*
X312000Y154000D02*
X313200D01*
X313800D02*
X316600D01*
X312000Y153800D02*
X313200D01*
X313800D02*
X315000D01*
X315600D02*
X316600D01*
X312000Y153600D02*
X313200D01*
X313800D02*
X315000D01*
X315600D02*
X316600D01*
X312000Y153400D02*
X313000D01*
X313800D02*
X315000D01*
X315600D02*
X316800D01*
X311800Y153200D02*
X313200D01*
X313800D02*
X315000D01*
X315600D02*
X316800D01*
X311800Y153000D02*
X313200D01*
X313800D02*
X315000Y153000D01*
X315600Y153000D02*
X316800D01*
X311800Y152800D02*
X313000D01*
X313800D02*
X315000Y152800D01*
X315600Y152800D02*
X317000D01*
X313800Y152600D02*
X315000D01*
X315800D02*
X317000D01*
X313600Y152400D02*
X315000D01*
X315800D02*
X317000D01*
X312000Y150600D02*
X317200Y150600D01*
X313600Y150400D02*
X316000D01*
X315600Y165800D02*
X317000D01*
X312600Y165200D02*
X314200D01*
X311800Y165000D02*
X315400D01*
X311200Y164800D02*
X316000D01*
X311200Y164600D02*
X316400D01*
X310600Y164400D02*
X316600D01*
X310800Y164200D02*
X316800D01*
X313600Y162000D02*
X313800D01*
X315600D02*
X315800D01*
X313600Y161800D02*
X314000Y161800D01*
X315600D02*
X315800D01*
X313400Y161600D02*
X314200D01*
X315400D02*
X316000D01*
X316400Y161600D02*
X317800Y161600D01*
X311400Y161400D02*
X316000D01*
X316400D02*
X317200D01*
X311800Y161200D02*
X316000D01*
X316400D02*
X317200Y161200D01*
X312000Y161000D02*
X317000D01*
X312400Y160800D02*
X317000D01*
X312600Y160600D02*
X316800D01*
X313000Y160400D02*
X316600Y160400D01*
X313600Y160200D02*
X316400Y160200D01*
X314000Y160000D02*
X316000D01*
X314600Y159800D02*
X315800D01*
X312600Y159200D02*
X314600D01*
X311600Y159000D02*
X315800D01*
X311200Y158800D02*
X316400D01*
X311000Y158600D02*
X317000D01*
X311000Y158400D02*
X317000D01*
X311000Y158200D02*
X317400Y158200D01*
X314800Y170200D02*
X318200D01*
X314800Y170000D02*
X318200D01*
X314800Y169800D02*
X318000D01*
X315000Y169600D02*
X317800D01*
X315000Y169400D02*
X317800D01*
X315000Y169200D02*
X317800Y169200D01*
X315000Y169000D02*
X317600Y169000D01*
X315000Y168800D02*
X317400D01*
X315200Y168600D02*
X317200D01*
X315200Y168400D02*
X317200D01*
X315200Y168200D02*
X317000D01*
X315200Y168000D02*
X316600D01*
X315200Y167800D02*
X316600D01*
X314600Y167600D02*
X314800D01*
X315400D02*
X316000D01*
X314600Y167400D02*
X315000D01*
X311600Y167200D02*
X311800D01*
X314600D02*
X315200D01*
X311400Y167000D02*
X311800Y167000D01*
X310800Y166800D02*
X311800D01*
X314800D02*
X318200D01*
X314800Y166600D02*
X318200D01*
X315000Y166400D02*
X317800D01*
X315200Y166200D02*
X317600D01*
X310800Y181800D02*
X314000D01*
X310800Y181600D02*
X314000D01*
X310800Y181400D02*
X314000D01*
X310800Y181200D02*
X314000D01*
X310800Y181000D02*
X314000D01*
X310800Y180800D02*
X314000D01*
X310800Y180600D02*
X314000D01*
X310800Y180400D02*
X314000D01*
X310600Y180200D02*
X314000D01*
X314400D02*
X317000D01*
X314400Y180000D02*
X317000Y180000D01*
X314400Y179800D02*
X317000D01*
X314200Y179600D02*
X317000D01*
X314000Y179400D02*
X317200D01*
X314000Y179200D02*
X317200D01*
X314000Y179000D02*
X317200D01*
X314000Y178800D02*
X317200Y178800D01*
X314000Y178600D02*
X317200Y178600D01*
X314000Y178400D02*
X317200D01*
X314000Y178200D02*
X317200D01*
X314000Y178000D02*
X317200D01*
X316600Y177400D02*
X316800D01*
X312000Y177000D02*
X317600D01*
X311400Y176200D02*
X311800D01*
X311600Y176000D02*
X312400D01*
X313800D02*
X314000D01*
X311800Y175800D02*
X313200D01*
X313800D02*
X314800D01*
X312000Y175600D02*
X315400D01*
X312000Y175400D02*
X316000D01*
X316600D02*
X317000D01*
X312200Y175200D02*
X316200Y175200D01*
X316600Y175200D02*
X317600Y175200D01*
X312000Y189800D02*
X313800D01*
X314400D02*
X315600D01*
X314400Y189600D02*
X315600D01*
X314400Y189400D02*
X315600D01*
X314400Y189200D02*
X315600Y189200D01*
X314400Y189000D02*
X315600D01*
X311400Y188800D02*
X312200D01*
X314200D02*
X315800D01*
X314400Y188600D02*
X314800D01*
X315000D02*
X315800D01*
X314400Y188000D02*
X315000D01*
X314400Y187800D02*
X317400D01*
X314000Y187600D02*
X317600D01*
X314000Y187400D02*
X317600D01*
X314000Y187200D02*
X317600D01*
X314000Y187000D02*
X317800D01*
X314000Y186800D02*
X317800D01*
X314000Y186600D02*
X317800Y186600D01*
X314000Y186400D02*
X318000D01*
X314000Y186200D02*
X318000D01*
X314000Y186000D02*
X318200D01*
X310600Y185800D02*
X314000D01*
X314200D02*
X318200D01*
X310600Y185600D02*
X314000D01*
X314400D02*
X318200D01*
X310600Y185400D02*
X314000Y185400D01*
X314400D02*
X318200D01*
X310800Y185200D02*
X314000D01*
X310800Y185000D02*
X314000D01*
X310800Y184800D02*
X314000D01*
X310800Y184600D02*
X314000D01*
X310800Y184400D02*
X314000D01*
X310800Y184200D02*
X314000D01*
X310800Y184000D02*
X314000D01*
X310800Y183800D02*
X314000D01*
X310800Y183600D02*
X314000D01*
X310800Y183400D02*
X314000D01*
X310800Y183200D02*
X314000D01*
X310800Y183000D02*
X314000D01*
X310800Y182800D02*
X314000D01*
X310800Y182600D02*
X314000D01*
X310800Y182400D02*
X314000D01*
X310800Y182200D02*
X314000Y182200D01*
X310600Y191600D02*
X312800D01*
X316000D02*
X316400D01*
X313400Y191400D02*
X313600Y191400D01*
X314200Y191400D02*
X315800D01*
X316000D02*
X316400Y191400D01*
X314400Y191200D02*
X315800D01*
X314400Y191000D02*
X315600D01*
X312800Y190800D02*
X313200D01*
X314400D02*
X315600D01*
X313000Y190600D02*
X313200D01*
X314400Y190600D02*
X315600Y190600D01*
X314400Y190400D02*
X315600Y190400D01*
X316200D02*
X316400D01*
X314400Y190200D02*
X315600D01*
X305400Y157600D02*
X309200D01*
X305400Y157400D02*
X306200Y157400D01*
X307000Y157400D02*
X309200Y157400D01*
X305200Y157200D02*
X306200Y157200D01*
X307000Y157200D02*
X309200Y157200D01*
X305200Y157000D02*
X306200D01*
X307000D02*
X308000D01*
X308200D02*
X309600D01*
X305200Y156800D02*
X306200D01*
X307000D02*
X308000D01*
X308400D02*
X309800D01*
X305200Y156600D02*
X306200D01*
X307000D02*
X308000D01*
X305200Y156400D02*
X306200D01*
X307000Y156400D02*
X308000Y156400D01*
X305200Y156200D02*
X306200D01*
X306800D02*
X308000D01*
X305200Y156000D02*
X306200Y156000D01*
X306800Y156000D02*
X308000D01*
X305000Y155800D02*
X306000D01*
X306800D02*
X308000D01*
X305000Y155600D02*
X306000D01*
X306800D02*
X307800D01*
X308600D02*
X309600D01*
X305000Y155400D02*
X306000D01*
X306600D02*
X307800D01*
X308600D02*
X309600D01*
X304800Y155200D02*
X306000D01*
X306600D02*
X307800D01*
X308400Y155200D02*
X309600Y155200D01*
X304600Y155000D02*
X306000D01*
X306600D02*
X307800D01*
X308400Y155000D02*
X309600Y155000D01*
X304600Y154800D02*
X305800D01*
X306600D02*
X307800D01*
X308400D02*
X309600D01*
X304400Y154600D02*
X305800D01*
X306600D02*
X307600D01*
X308400D02*
X309600D01*
X306400Y154400D02*
X307600D01*
X308400D02*
X309600D01*
X306400Y154200D02*
X307400D01*
X308200D02*
X309600D01*
X308200Y154000D02*
X309600D01*
X308200Y153800D02*
X309600D01*
X302600Y153600D02*
X307400D01*
X308000D02*
X309400D01*
X303000Y153400D02*
X307600D01*
X308000D02*
X309200D01*
X303200Y153200D02*
X309200D01*
X303400Y153000D02*
X309400D01*
X304800Y165800D02*
X307800D01*
X305000Y165600D02*
X307800D01*
X305000Y165400D02*
X307800D01*
X305200Y165200D02*
X307600D01*
X305200Y165000D02*
X307400D01*
X305400Y164800D02*
X307200D01*
X305800Y164600D02*
X307000D01*
X309400Y161600D02*
X309600D01*
X302600Y160800D02*
X305600D01*
X303200Y160600D02*
X305800D01*
X304600Y160400D02*
X306600Y160400D01*
X306200Y160200D02*
X307200Y160200D01*
X309200Y159000D02*
X309400Y159000D01*
X308800Y158800D02*
X309200D01*
X308600Y158600D02*
X309200Y158600D01*
X308400Y158400D02*
X309200D01*
X302600Y172400D02*
X309800D01*
X303200Y172200D02*
X309800Y172200D01*
X303400Y172000D02*
X309800D01*
X304000Y171800D02*
X310000D01*
X304400Y171600D02*
X310000D01*
X305000Y171400D02*
X310000D01*
X305000Y171200D02*
X310200D01*
X305400Y171000D02*
X310200D01*
X303400Y170400D02*
X304400Y170400D01*
X303000Y170200D02*
X305400D01*
X302600Y170000D02*
X305800Y170000D01*
X302600Y169800D02*
X306000D01*
X304400Y168800D02*
X307200D01*
X305000Y168600D02*
X307200D01*
X305400Y168400D02*
X307400D01*
X305800Y168200D02*
X307800D01*
X306400Y168000D02*
X308000D01*
X306400Y167800D02*
X308200D01*
X306600Y167600D02*
X308400D01*
X305600Y167400D02*
X306000D01*
X307000D02*
X308800D01*
X305400Y167200D02*
X306000D01*
X307000D02*
X309000D01*
X305200Y167000D02*
X306000D01*
X306600D02*
X307000Y167000D01*
X307200Y167000D02*
X309200D01*
X305000Y166800D02*
X306000D01*
X306400D02*
X307200D01*
X307400D02*
X310000D01*
X305000Y166600D02*
X306000D01*
X306400D02*
X307200D01*
X305000Y166400D02*
X306000D01*
X306400D02*
X307400D01*
X304800Y166200D02*
X307800D01*
X303800Y181800D02*
X310000Y181800D01*
X303800Y181600D02*
X310000D01*
X303800Y181400D02*
X310000D01*
X303800Y181200D02*
X310000D01*
X303800Y181000D02*
X310000D01*
X303800Y180800D02*
X310000D01*
X303800Y180600D02*
X310000D01*
X303800Y180400D02*
X310200D01*
X306400Y176000D02*
X307200D01*
X303800Y175800D02*
X304600D01*
X305400D02*
X307400D01*
X303200Y175600D02*
X304600D01*
X305000D02*
X307600D01*
X302600Y175400D02*
X307800D01*
X305400Y189800D02*
X308400D01*
X304400Y189600D02*
X304800Y189600D01*
X305400Y189600D02*
X306600D01*
X307200D02*
X308600D01*
X303800Y189400D02*
X304800D01*
X305400D02*
X306600D01*
X307400D02*
X308800D01*
X305400Y189200D02*
X306600Y189200D01*
X307600D02*
X309000D01*
X305400Y189000D02*
X307000D01*
X307600D02*
X309200D01*
X305200Y188800D02*
X306800D01*
X303000Y188200D02*
X305000D01*
X302600Y188000D02*
X305400D01*
X303600Y185600D02*
X310000D01*
X303800Y185400D02*
X310000D01*
X303800Y185200D02*
X310000D01*
X303800Y185000D02*
X310000D01*
X303800Y184800D02*
X310000D01*
X303800Y184600D02*
X310000D01*
X303800Y184400D02*
X306600Y184400D01*
X307000Y184400D02*
X310000D01*
X303800Y184200D02*
X306600D01*
X307000D02*
X310000D01*
X303800Y184000D02*
X305000D01*
X307000D02*
X310000D01*
X307000Y183800D02*
X310000D01*
X307000Y183600D02*
X310000D01*
X307000Y183400D02*
X310000D01*
X307000Y183200D02*
X310000Y183200D01*
X307000Y183000D02*
X310000D01*
X307000Y182800D02*
X310000D01*
X307000Y182600D02*
X310000D01*
X307000Y182400D02*
X310000D01*
X304400Y182200D02*
X310000D01*
X309400Y193600D02*
X309800Y193600D01*
X304400Y191600D02*
X304800D01*
X305400D02*
X308600D01*
X303200Y191400D02*
X304800D01*
X305200Y191400D02*
X309000Y191400D01*
X305400Y191200D02*
X309200D01*
X305400Y191000D02*
X309200D01*
X305400Y190800D02*
X306600D01*
X308000D02*
X309200D01*
X304200Y190600D02*
X304800D01*
X305400Y190600D02*
X306600Y190600D01*
X307800D02*
X309200D01*
X303000Y190400D02*
X304600D01*
X305400Y190400D02*
X309200Y190400D01*
X305400Y190200D02*
X309000D01*
X294600Y165000D02*
X299200D01*
X295000Y164800D02*
X299400D01*
X295200Y164600D02*
X299400D01*
X295600Y164400D02*
X299800D01*
X296000Y164200D02*
X300000D01*
X296400Y164000D02*
X300200D01*
X296400Y163800D02*
X300400D01*
X296400Y163600D02*
X300600D01*
X296200Y163400D02*
X300800D01*
X296000Y163200D02*
X301200D01*
X296400Y163000D02*
X301400D01*
X296800Y162800D02*
X301800D01*
X296800Y162600D02*
X302000D01*
X294800Y160800D02*
X298000Y160800D01*
X295200Y160600D02*
X298400D01*
X295800Y160400D02*
X299200Y160400D01*
X296400Y160200D02*
X300000D01*
X297200Y160000D02*
X300000D01*
X297400Y159800D02*
X299800D01*
X298000Y159600D02*
X300000D01*
X298600Y159400D02*
X301200D01*
X298600Y159200D02*
X301800D01*
X298400Y171600D02*
X298800D01*
X297800Y171400D02*
X298600D01*
X297600Y171200D02*
X298600D01*
X297200Y171000D02*
X298400D01*
X296800Y170800D02*
X298400D01*
X296600Y170600D02*
X298400D01*
X296200Y170400D02*
X298200D01*
X295800Y170200D02*
X298000D01*
X295400Y170000D02*
X298000Y170000D01*
X295400Y169800D02*
X298000D01*
X295000Y169600D02*
X298000D01*
X294600Y169400D02*
X298000D01*
X294600Y169200D02*
X298000D01*
X294600Y168200D02*
X297800D01*
X302000Y167800D02*
X302200D01*
X295800Y180400D02*
X296200D01*
X294600Y180200D02*
X296200D01*
X296800Y179000D02*
X299800D01*
X296000Y176000D02*
X302200D01*
X297000Y175800D02*
X301600D01*
X298200Y175600D02*
X300600Y175600D01*
X301200Y175200D02*
X301600Y175200D01*
X300600Y175000D02*
X301800D01*
X294800Y189800D02*
X296000D01*
X297200D02*
X298600D01*
X299200D02*
X300400D01*
X294800Y189600D02*
X296000Y189600D01*
X297400D02*
X298800D01*
X299200Y189600D02*
X300200Y189600D01*
X294800Y189400D02*
X296000D01*
X297400D02*
X300000D01*
X294800Y189200D02*
X296000D01*
X297400D02*
X300000D01*
X294800Y189000D02*
X296000D01*
X297800D02*
X299800D01*
X294800Y188800D02*
X296000D01*
X297800D02*
X299800D01*
X294800Y188600D02*
X296000D01*
X297800D02*
X299800D01*
X294800Y188400D02*
X296000D01*
X298000D02*
X299600D01*
X301400D02*
X301800Y188400D01*
X294800Y188200D02*
X296000D01*
X298000D02*
X299600D01*
X294800Y188000D02*
X296000D01*
X298000D02*
X298800D01*
X294800Y187800D02*
X296400D01*
X294600Y187600D02*
X295800D01*
X294600Y187400D02*
X295200Y187400D01*
X296000Y187200D02*
X299000D01*
X295200Y187000D02*
X299600D01*
X294800Y186800D02*
X299800D01*
X294600Y186600D02*
X299800Y186600D01*
X296600Y184800D02*
X299800Y184800D01*
X296800Y184600D02*
X299800D01*
X296800Y184400D02*
X299800Y184400D01*
X296800Y184200D02*
X299400D01*
X296800Y184000D02*
X299400D01*
X296800Y183800D02*
X297800D01*
X299600Y191000D02*
X301000D01*
X297400Y190800D02*
X298400D01*
X299600D02*
X300800D01*
X296800Y190600D02*
X298400D01*
X299600Y190600D02*
X300800Y190600D01*
X295200Y190400D02*
X296400Y190400D01*
X296800D02*
X298400D01*
X299400D02*
X300600D01*
X294600Y190200D02*
X296000D01*
X297000D02*
X298600D01*
X299400D02*
X300600D01*
X289800Y165800D02*
X291200D01*
X289800Y165600D02*
X291400D01*
X290000Y165400D02*
X291600D01*
X290200Y165200D02*
X291800D01*
X290400Y165000D02*
X292000D01*
X290600Y164800D02*
X292200D01*
X290800Y164600D02*
X292400D01*
X291000Y164400D02*
X292800D01*
X291200Y164200D02*
X293200D01*
X291600Y164000D02*
X293400D01*
X291800Y163800D02*
X293600Y163800D01*
X292000Y163600D02*
X294000D01*
X292400Y163400D02*
X294200D01*
X292800Y163000D02*
X294200D01*
X292600Y162800D02*
X294000D01*
X292600Y162600D02*
X294000D01*
X292200Y162400D02*
X294000Y162400D01*
X289000Y173800D02*
X291400D01*
X292800D02*
X293400D01*
X289000Y173600D02*
X291400Y173600D01*
X292800Y173600D02*
X293800D01*
X289000Y173400D02*
X291400Y173400D01*
X293000D02*
X294000Y173400D01*
X289000Y173200D02*
X290000D01*
X290400D02*
X291600D01*
X293000D02*
X294200D01*
X289000Y173000D02*
X290000D01*
X290600Y173000D02*
X291800Y173000D01*
X289000Y172800D02*
X290000D01*
X290600D02*
X291800D01*
X288800Y172600D02*
X290000D01*
X290600Y172600D02*
X291800Y172600D01*
X288000Y172400D02*
X290000D01*
X290600D02*
X292000D01*
X287200Y172200D02*
X290000Y172200D01*
X290800Y172200D02*
X292000D01*
X286800Y172000D02*
X290000Y172000D01*
X290800Y172000D02*
X292000D01*
X291000Y171800D02*
X292200D01*
X291200Y171600D02*
X292400D01*
X291200Y171400D02*
X292600D01*
X291400Y171200D02*
X292600D01*
X291400Y171000D02*
X292800D01*
X291800Y170800D02*
X293000Y170800D01*
X291800Y170600D02*
X293200D01*
X291600Y170400D02*
X293200Y170400D01*
X291400Y170200D02*
X293200D01*
X291200Y170000D02*
X292800D01*
X290800Y169800D02*
X292600D01*
X290600Y169600D02*
X292400D01*
X290400Y169400D02*
X292200D01*
X290200Y169200D02*
X292000D01*
X290000Y169000D02*
X291800Y169000D01*
X290000Y168800D02*
X291400D01*
X290000Y168600D02*
X291400D01*
X290200Y168400D02*
X291600D01*
X290400Y168200D02*
X291800D01*
X290600Y168000D02*
X292000D01*
X290600Y167800D02*
X292200D01*
X290200Y167600D02*
X292200D01*
X290000Y167400D02*
X291800D01*
X289800Y167200D02*
X291600D01*
X289600Y167000D02*
X291400D01*
X289400Y166800D02*
X291000D01*
X289200Y166600D02*
X290800D01*
X289200Y166400D02*
X290600D01*
X289400Y166200D02*
X290800D01*
X289400Y181800D02*
X292600D01*
X289400Y181600D02*
X292600D01*
X289400Y181400D02*
X292600D01*
X289400Y181200D02*
X292600D01*
X289400Y181000D02*
X292600D01*
X289400Y180800D02*
X292600D01*
X289400Y180600D02*
X292600D01*
X289400Y180400D02*
X292600D01*
X289400Y180200D02*
X292600D01*
X289400Y180000D02*
X292600Y180000D01*
X289400Y179800D02*
X292600D01*
X289400Y179600D02*
X292600D01*
X289400Y179400D02*
X292600D01*
X289400Y179200D02*
X292600D01*
X289400Y179000D02*
X292600D01*
X289400Y178800D02*
X292600D01*
X289400Y178600D02*
X292600D01*
X289400Y178400D02*
X292600D01*
X289400Y178200D02*
X292800D01*
X289400Y178000D02*
X292800D01*
X289400Y177800D02*
X292800Y177800D01*
X289200Y176600D02*
X293200D01*
X289200Y176400D02*
X292200D01*
X289200Y176200D02*
X291800D01*
X289200Y176000D02*
X291800D01*
X289200Y175800D02*
X291400Y175800D01*
X289200Y175600D02*
X291400Y175600D01*
X289200Y175400D02*
X291400D01*
X289200Y175200D02*
X291400Y175200D01*
X289200Y175000D02*
X289400D01*
X290200D02*
X291200D01*
X290200Y174800D02*
X291200D01*
X290200Y174600D02*
X291200D01*
X290000Y174400D02*
X291400D01*
X292800D02*
X293000D01*
X289000Y174200D02*
X291400D01*
X292800D02*
X293200D01*
X292600Y189800D02*
X294000D01*
X291400Y189600D02*
X291800Y189600D01*
X292800Y189600D02*
X294000Y189600D01*
X290800Y189400D02*
X291800D01*
X292800D02*
X294000D01*
X290000Y189200D02*
X291800D01*
X292800D02*
X294000D01*
X289200Y189000D02*
X289400D01*
X290000D02*
X292000D01*
X292800D02*
X294000D01*
X288200Y188800D02*
X289400D01*
X290000D02*
X292600D01*
X292800D02*
X294000D01*
X287800Y188600D02*
X289200D01*
X290000D02*
X292600D01*
X292800D02*
X294000D01*
X287600Y188400D02*
X289200D01*
X290000Y188400D02*
X294000Y188400D01*
X288000Y188200D02*
X289200D01*
X290000Y188200D02*
X294000Y188200D01*
X288000Y188000D02*
X289200D01*
X290000D02*
X291200D01*
X291400D02*
X294000D01*
X288000Y187800D02*
X289200D01*
X290000D02*
X291200D01*
X291800D02*
X294000D01*
X288000Y187600D02*
X289200Y187600D01*
X290000Y187600D02*
X291200D01*
X292200Y187600D02*
X294000Y187600D01*
X288000Y187400D02*
X289200Y187400D01*
X290000Y187400D02*
X291200D01*
X292200Y187400D02*
X294200Y187400D01*
X288000Y187200D02*
X289200D01*
X290000D02*
X291200D01*
X292600D02*
X294000D01*
X288000Y187000D02*
X289200D01*
X290000Y187000D02*
X291200Y187000D01*
X292600D02*
X292800Y187000D01*
X287800Y186800D02*
X289200D01*
X290000D02*
X291400D01*
X287600Y186600D02*
X289000D01*
X290000Y186600D02*
X291400D01*
X287200Y186400D02*
X288800D01*
X290000D02*
X290400D01*
X291800Y186200D02*
X292800D01*
X291200Y186000D02*
X292800D01*
X290200Y185800D02*
X292800D01*
X289600Y185600D02*
X292800D01*
X288600Y185400D02*
X289200D01*
X289600D02*
X292800D01*
X288000Y185200D02*
X292800Y185200D01*
X287200Y185000D02*
X289000D01*
X289200D02*
X292800D01*
X289200Y184800D02*
X292800Y184800D01*
X289200Y184600D02*
X292800D01*
X289200Y184400D02*
X292800Y184400D01*
X289200Y184200D02*
X292600D01*
X289200Y184000D02*
X292600D01*
X289200Y183800D02*
X292600D01*
X289200Y183600D02*
X292600D01*
X289200Y183400D02*
X292600D01*
X289400Y183200D02*
X292600D01*
X289400Y183000D02*
X292600D01*
X289400Y182800D02*
X292600D01*
X289400Y182600D02*
X292600D01*
X289400Y182400D02*
X292600D01*
X289400Y182200D02*
X292600D01*
X288600Y191000D02*
X294000D01*
X287600Y190800D02*
X292600D01*
X287200Y190600D02*
X292000D01*
X279200Y173800D02*
X282800D01*
X279200Y173600D02*
X282800D01*
X279200Y173400D02*
X282800D01*
X279200Y173200D02*
X282800D01*
X279400Y173000D02*
X282800D01*
X284000D02*
X286000D01*
X279400Y172800D02*
X282800D01*
X284000D02*
X285400D01*
X279400Y172600D02*
X282800D01*
X284000D02*
X284800Y172600D01*
X279400Y172400D02*
X282600D01*
X279400Y172200D02*
X282600Y172200D01*
X279400Y172000D02*
X282600Y172000D01*
X279400Y171800D02*
X282400D01*
X279600Y171600D02*
X282000D01*
X279600Y171400D02*
X281400D01*
X279600Y171200D02*
X281000D01*
X279600Y171000D02*
X280400D01*
X279600Y170800D02*
X280000Y170800D01*
X282600Y170800D02*
X286200Y170800D01*
X282200Y170600D02*
X286000D01*
X281600Y170400D02*
X285200D01*
X280800Y170200D02*
X284400D01*
X280200Y170000D02*
X283600D01*
X280000Y169800D02*
X283400D01*
X279400Y169600D02*
X282600D01*
X278600Y181800D02*
X282000Y181800D01*
X282200Y181800D02*
X285400D01*
X282200Y181600D02*
X285400D01*
X282200Y181400D02*
X285400D01*
X282200Y181200D02*
X285400D01*
X282200Y181000D02*
X285400D01*
X282200Y180800D02*
X285400D01*
X282200Y180600D02*
X285400D01*
X282200Y180400D02*
X285600D01*
X282200Y180200D02*
X285600D01*
X282200Y180000D02*
X285600D01*
X282200Y179800D02*
X285600D01*
X282200Y179600D02*
X285600Y179600D01*
X278800Y176200D02*
X283400D01*
X278800Y176000D02*
X283200D01*
X278800Y175800D02*
X283200D01*
X278800Y175600D02*
X283200D01*
X279000Y175400D02*
X283200D01*
X279000Y175200D02*
X283200D01*
X279000Y175000D02*
X283200D01*
X279000Y174800D02*
X283200D01*
X279000Y174600D02*
X283200D01*
X279000Y174400D02*
X283000Y174400D01*
X279000Y174200D02*
X283000D01*
X283400Y189200D02*
X284400Y189200D01*
X283400Y189000D02*
X284400D01*
X283400Y188800D02*
X284400D01*
X283400Y188600D02*
X284400D01*
X283400Y188400D02*
X284400D01*
X283400Y188200D02*
X284400D01*
X283400Y188000D02*
X284400D01*
X283400Y187800D02*
X284400D01*
X283400Y187600D02*
X284400Y187600D01*
X283400Y187400D02*
X284400Y187400D01*
X283400Y187200D02*
X284400D01*
X283400Y187000D02*
X284400D01*
X283400Y186800D02*
X284400D01*
X283400Y186600D02*
X284400D01*
X283400Y186400D02*
X284400D01*
X283400Y186200D02*
X284400Y186200D01*
X283400Y186000D02*
X284400Y186000D01*
X283400Y185800D02*
X284400D01*
X283000Y185600D02*
X284400D01*
X282600Y185400D02*
X284400Y185400D01*
X281800Y185200D02*
X284400D01*
X281200Y185000D02*
X284400D01*
X280600Y184800D02*
X284000Y184800D01*
X280200Y184600D02*
X283600D01*
X279600Y184400D02*
X283000D01*
X279000Y184200D02*
X282400D01*
X284800D02*
X285400D01*
X278600Y184000D02*
X282000D01*
X284400D02*
X285400D01*
X283600Y183800D02*
X285400D01*
X283200Y183600D02*
X285400D01*
X282400Y183400D02*
X285400D01*
X282400Y183200D02*
X285400D01*
X281600Y183000D02*
X282000D01*
X282200D02*
X285400D01*
X281000Y182800D02*
X282000D01*
X282200D02*
X285400D01*
X280600Y182600D02*
X282000D01*
X282200D02*
X285400D01*
X280000Y182400D02*
X282000D01*
X282200D02*
X285400D01*
X279400Y182200D02*
X282000D01*
X282200D02*
X285400Y182200D01*
X275600Y181800D02*
X276800D01*
X275600Y181600D02*
X276800D01*
X275600Y181400D02*
X276800D01*
X275600Y181200D02*
X276800D01*
X275600Y181000D02*
X276800Y181000D01*
X275600Y180800D02*
X276800Y180800D01*
X275600Y180600D02*
X276800D01*
X275600Y180400D02*
X276800D01*
X275600Y180200D02*
X276800D01*
X275600Y180000D02*
X276800D01*
X275600Y179800D02*
X276800D01*
X275600Y179600D02*
X276800Y179600D01*
X275600Y179400D02*
X276800D01*
X275600Y179200D02*
X276800D01*
X275600Y179000D02*
X276800D01*
X275600Y178800D02*
X276800D01*
X275600Y178600D02*
X277000D01*
X275600Y178400D02*
X277200D01*
X275800Y178200D02*
X277400D01*
X276000Y178000D02*
X277400D01*
X276200Y177800D02*
X277600D01*
X276400Y177600D02*
X277600D01*
X276600Y177400D02*
X277600Y177400D01*
X276600Y177200D02*
X277600D01*
X276600Y177000D02*
X277800D01*
X276600Y176800D02*
X277800D01*
X276800Y176600D02*
X277800Y176600D01*
X276800Y176400D02*
X278000D01*
X276800Y176200D02*
X278000D01*
X276800Y176000D02*
X278000D01*
X276800Y175800D02*
X278000D01*
X276800Y175600D02*
X278000D01*
X276800Y175400D02*
X278000D01*
X277000Y175200D02*
X278200Y175200D01*
X277000Y175000D02*
X278200D01*
X277000Y174800D02*
X278200Y174800D01*
X277000Y174600D02*
X278200D01*
X277000Y174400D02*
X278200D01*
X277000Y174200D02*
X278200D01*
X275600Y182600D02*
X278200D01*
X275600Y182400D02*
X277600D01*
X275600Y182200D02*
X277000D01*
X336200Y174000D02*
X340200D01*
X337200Y182000D02*
X339600D01*
X330400Y166000D02*
X331800D01*
X328800Y182000D02*
X331800D01*
X324400Y174000D02*
X325400D01*
X319200Y158000D02*
X321000D01*
X321800D02*
X324200D01*
X321000Y190000D02*
X322400D01*
X323000D02*
X324600D01*
X315600Y166000D02*
X317200D01*
X311000Y158000D02*
X313000D01*
X315600D02*
X317600D01*
X314400Y190000D02*
X315600D01*
X310800Y182000D02*
X314000D01*
X304800Y166000D02*
X307800D01*
X305400Y190000D02*
X309000D01*
X304200Y182000D02*
X310000D01*
X294600Y190000D02*
X296000D01*
X297000D02*
X298600D01*
X299400D02*
X300400D01*
X288800Y174000D02*
X291400D01*
X292800D02*
X293200D01*
X289600Y166000D02*
X291000D01*
X293400Y190000D02*
X294200D01*
X289400Y182000D02*
X292600D01*
X279000Y174000D02*
X283000D01*
X279200Y182000D02*
X282000D01*
X282200D02*
X285400D01*
X277200Y174000D02*
X278200D01*
X275600Y182000D02*
X276800D01*
X341600Y173800D02*
X342600D01*
X341600Y173600D02*
X342600Y173600D01*
X341600Y173400D02*
X342600Y173400D01*
X341600Y173200D02*
X342600D01*
X341600Y173000D02*
X342600D01*
X341600Y172800D02*
X342600D01*
X341600Y172600D02*
X342600D01*
X341600Y172400D02*
X342600D01*
X341600Y172200D02*
X342600Y172200D01*
X341600Y172000D02*
X342600Y172000D01*
X341600Y171800D02*
X342600D01*
X341600Y171600D02*
X342600D01*
X341600Y171400D02*
X342600D01*
X341600Y171200D02*
X342600D01*
X341600Y171000D02*
X342600D01*
X341600Y170800D02*
X342600Y170800D01*
X341600Y170600D02*
X342600Y170600D01*
X341600Y170400D02*
X342600Y170400D01*
X341600Y170200D02*
X342600D01*
X341600Y170000D02*
X342600D01*
X341600Y169800D02*
X342600D01*
X341600Y169600D02*
X342600D01*
X341600Y169400D02*
X342600D01*
X341600Y169200D02*
X342600Y169200D01*
X341600Y169000D02*
X342600Y169000D01*
X338600Y168800D02*
X342600D01*
X339000Y168600D02*
X342600D01*
X339600Y168400D02*
X342600D01*
X340200Y168200D02*
X342600D01*
X340800Y168000D02*
X342600D01*
X341000Y167800D02*
X342600D01*
X341600Y167600D02*
X342600Y167600D01*
X342200Y167400D02*
X342600D01*
X342400Y167200D02*
X342600D01*
X342200Y181800D02*
X343400Y181800D01*
X342200Y181600D02*
X343400D01*
X342200Y181400D02*
X343400D01*
X342200Y181200D02*
X343400D01*
X342200Y181000D02*
X343400D01*
X342200Y180800D02*
X343400D01*
X342200Y180600D02*
X343400D01*
X342200Y180400D02*
X343400D01*
X342200Y180200D02*
X343400D01*
X342200Y180000D02*
X343400Y180000D01*
X342200Y179800D02*
X343400D01*
X342200Y179600D02*
X343400D01*
X342200Y179400D02*
X343400D01*
X342200Y179200D02*
X343400D01*
X342200Y179000D02*
X343400D01*
X342000Y178800D02*
X343400D01*
X341600Y178600D02*
X343400D01*
X341600Y178400D02*
X343200D01*
X341600Y178200D02*
X343000D01*
X341600Y178000D02*
X342800Y178000D01*
X341600Y177800D02*
X342600Y177800D01*
X341600Y177600D02*
X342600D01*
X341600Y177400D02*
X342600D01*
X341600Y177200D02*
X342600D01*
X341600Y177000D02*
X342600D01*
X341600Y176800D02*
X342600D01*
X341600Y176600D02*
X342600Y176600D01*
X341600Y176400D02*
X342600Y176400D01*
X341600Y176200D02*
X342600D01*
X341600Y176000D02*
X342600D01*
X341600Y175800D02*
X342600D01*
X341600Y175600D02*
X342600D01*
X341600Y175400D02*
X342600D01*
X341600Y175200D02*
X342600Y175200D01*
X341600Y175000D02*
X342600Y175000D01*
X341600Y174800D02*
X342600Y174800D01*
X341600Y174600D02*
X342600D01*
X341600Y174400D02*
X342600D01*
X341600Y174200D02*
X342600D01*
X339400Y183200D02*
X342400D01*
X340000Y183000D02*
X343000D01*
X340400Y182800D02*
X343400D01*
X340800Y182600D02*
X343400D01*
X341400Y182400D02*
X343400D01*
X342000Y182200D02*
X343400D01*
X308400Y156600D02*
X311800Y156600D01*
X308600Y156400D02*
X311800D01*
X308600Y156200D02*
X311800D01*
X308600Y156000D02*
X312000Y156000D01*
X316600D02*
X320200Y156000D01*
X308600Y155800D02*
X312200D01*
X316600D02*
X320200D01*
X310200Y155600D02*
X312600D01*
X317000D02*
X320000D01*
X310400Y155400D02*
X313200D01*
X316600D02*
X319800D01*
X310400Y155200D02*
X313600D01*
X316400D02*
X319800D01*
X310400Y155000D02*
X311400Y155000D01*
X315600Y155000D02*
X319800D01*
X310400Y154800D02*
X311400D01*
X312000D02*
X318600D01*
X310400Y154600D02*
X311400D01*
X312000D02*
X318400D01*
X310400Y154400D02*
X311400D01*
X312000D02*
X318400D01*
X310200Y154200D02*
X311400D01*
X317200D02*
X318400D01*
X310200Y154000D02*
X311400D01*
X317200D02*
X318400D01*
X310200Y153800D02*
X311200Y153800D01*
X317200D02*
X318400Y153800D01*
X310000Y153600D02*
X311200D01*
X317400D02*
X318600D01*
X310000Y153400D02*
X311200D01*
X317400D02*
X318600D01*
X310000Y153200D02*
X311200D01*
X317400D02*
X318600D01*
X309800Y153000D02*
X311200D01*
X317600D02*
X318800D01*
X317600Y152800D02*
X323600D01*
X317600Y152600D02*
X323200D01*
X317600Y152400D02*
X323200D01*
X315600Y152200D02*
X322800D01*
X306600Y151600D02*
X321600D01*
X307400Y151400D02*
X321000D01*
X308000Y151200D02*
X320600D01*
X309000Y151000D02*
X320000D01*
X310200Y150800D02*
X319000D01*
X308600Y165800D02*
X311200D01*
X318000D02*
X321000D01*
X325400D02*
X328600D01*
X309000Y165600D02*
X311000D01*
X318000D02*
X321000D01*
X325200D02*
X328400D01*
X309400Y165400D02*
X310600D01*
X318200D02*
X320800D01*
X325200D02*
X328000D01*
X318200Y165200D02*
X320600D01*
X325200D02*
X327800D01*
X318400Y165000D02*
X320600D01*
X325000D02*
X328000D01*
X325000Y164800D02*
X328200D01*
X324800Y164600D02*
X328400Y164600D01*
X324800Y164400D02*
X328400D01*
X324600Y164200D02*
X328000D01*
X310400Y164000D02*
X316800D01*
X324400D02*
X327800D01*
X310000Y163800D02*
X317000Y163800D01*
X324400D02*
X327600Y163800D01*
X308600Y163600D02*
X317600D01*
X324200D02*
X327200D01*
X308600Y163400D02*
X318400D01*
X324000Y163400D02*
X326800D01*
X308600Y163200D02*
X318400D01*
X323800D02*
X326800D01*
X306600Y163000D02*
X320400D01*
X306800Y162800D02*
X313800D01*
X315200D02*
X320200D01*
X306800Y162600D02*
X313600D01*
X315600D02*
X320200Y162600D01*
X307200Y162400D02*
X313200D01*
X316000D02*
X319800D01*
X307400Y162200D02*
X313200D01*
X316200D02*
X319600D01*
X307800Y162000D02*
X313000D01*
X316400D02*
X319000D01*
X308200Y161800D02*
X313000D01*
X316400D02*
X318600D01*
X309800Y161600D02*
X313000D01*
X326400D02*
X328600D01*
X326400Y161400D02*
X328200D01*
X318400Y160800D02*
X318600Y160800D01*
X318400Y160600D02*
X318600D01*
X326400D02*
X328400D01*
X325600Y160400D02*
X328200Y160400D01*
X324600Y160200D02*
X327800D01*
X323200Y160000D02*
X327400D01*
X322600Y159800D02*
X327200D01*
X321800Y159600D02*
X326800D01*
X313200Y173800D02*
X322600D01*
X326200D02*
X331400D01*
X332800D02*
X336000D01*
X313400Y173600D02*
X322000D01*
X326200D02*
X327200D01*
X332800Y173600D02*
X336000Y173600D01*
X313600Y173400D02*
X321400Y173400D01*
X326000D02*
X327200D01*
X332800Y173400D02*
X336000Y173400D01*
X313600Y173200D02*
X321200D01*
X326000D02*
X327200D01*
X332800D02*
X336000D01*
X313600Y173000D02*
X320800D01*
X325800D02*
X327000D01*
X332800D02*
X336000D01*
X313800Y172800D02*
X320400D01*
X325800D02*
X327600D01*
X333200D02*
X336000D01*
X313800Y172600D02*
X320200Y172600D01*
X325600Y172600D02*
X327800D01*
X333600Y172600D02*
X336000Y172600D01*
X314000Y172400D02*
X319800D01*
X325600D02*
X328400D01*
X334400D02*
X336000D01*
X314000Y172200D02*
X319600Y172200D01*
X326200Y172200D02*
X329000D01*
X314000Y172000D02*
X319600D01*
X326400D02*
X329200D01*
X314200Y171800D02*
X319200D01*
X314400Y171600D02*
X319000D01*
X314400Y171400D02*
X319000D01*
X330600Y171400D02*
X334800Y171400D01*
X314400Y171200D02*
X318800D01*
X331000Y171200D02*
X335000Y171200D01*
X314400Y171000D02*
X318600D01*
X331800D02*
X335800D01*
X314600Y170800D02*
X318400D01*
X324200D02*
X326600D01*
X332800Y170800D02*
X336400Y170800D01*
X314600Y170600D02*
X318400D01*
X324200D02*
X326600D01*
X333000D02*
X336800D01*
X314600Y170400D02*
X318400D01*
X324400D02*
X326400D01*
X333800D02*
X337400D01*
X306600Y170000D02*
X310600D01*
X324800D02*
X326400D01*
X307000Y169800D02*
X310600D01*
X324800D02*
X326800D01*
X307200Y169600D02*
X310600D01*
X325000D02*
X327000D01*
X307400Y169400D02*
X310600D01*
X325000D02*
X327600D01*
X307400Y169200D02*
X310600Y169200D01*
X318400Y169200D02*
X321800D01*
X325200D02*
X327600D01*
X307800Y169000D02*
X310800D01*
X318200D02*
X320400D01*
X325200D02*
X328200D01*
X308000Y168800D02*
X310800D01*
X318000D02*
X320000D01*
X325200D02*
X328400D01*
X308000Y168600D02*
X310800D01*
X317800D02*
X319800D01*
X325400D02*
X328800D01*
X308400Y168400D02*
X311000Y168400D01*
X317800D02*
X319600D01*
X325400D02*
X329000D01*
X308400Y168200D02*
X311000Y168200D01*
X317600D02*
X319400D01*
X325600D02*
X329200Y168200D01*
X308600Y168000D02*
X311000D01*
X317200D02*
X319200D01*
X325600D02*
X329600D01*
X309000Y167800D02*
X311000Y167800D01*
X317200D02*
X319200D01*
X325600D02*
X329800Y167800D01*
X309200Y167600D02*
X311000D01*
X317000D02*
X319000D01*
X325600D02*
X330000D01*
X316600Y167400D02*
X318600D01*
X325600D02*
X329800D01*
X316600Y167200D02*
X318600D01*
X325600D02*
X329600D01*
X314600Y167000D02*
X318400D01*
X325600D02*
X329600D01*
X318400Y166800D02*
X319200D01*
X325600D02*
X329400D01*
X307600Y166600D02*
X311800D01*
X318400D02*
X319400D01*
X325600D02*
X329200D01*
X307800Y166400D02*
X311600D01*
X318200D02*
X319400D01*
X325600D02*
X329000D01*
X308000Y166200D02*
X311600D01*
X318000Y166200D02*
X321000Y166200D01*
X325400Y166200D02*
X328800Y166200D01*
X314400Y181800D02*
X321200Y181800D01*
X322200D02*
X327200D01*
X333000D02*
X336800D01*
X314400Y181600D02*
X321200D01*
X322400D02*
X327600Y181600D01*
X333000Y181600D02*
X336800D01*
X314400Y181400D02*
X321200D01*
X322400D02*
X327800D01*
X333000D02*
X336800D01*
X314400Y181200D02*
X321200D01*
X322600D02*
X328000D01*
X333000D02*
X336800D01*
X314400Y181000D02*
X321200D01*
X323000D02*
X328200D01*
X333000D02*
X337000D01*
X314400Y180800D02*
X321200D01*
X323200D02*
X328200D01*
X333000D02*
X337000D01*
X314400Y180600D02*
X321200D01*
X323400D02*
X328400D01*
X333000D02*
X337000D01*
X314400Y180400D02*
X321200D01*
X323800D02*
X328400D01*
X333000D02*
X337000D01*
X317200Y180200D02*
X321200D01*
X324400D02*
X328400D01*
X333000D02*
X337200D01*
X317200Y180000D02*
X321200Y180000D01*
X321600Y180000D02*
X328400Y180000D01*
X333000D02*
X337200D01*
X317200Y179800D02*
X321200D01*
X325000D02*
X328400D01*
X317200Y179600D02*
X321200D01*
X325200D02*
X328600D01*
X317400Y179400D02*
X321200D01*
X325200D02*
X328600D01*
X307200Y179200D02*
X313600D01*
X317400D02*
X321200D01*
X325400D02*
X328600D01*
X307200Y179000D02*
X313600D01*
X317600D02*
X321200D01*
X325400D02*
X328600D01*
X307400Y178800D02*
X313200D01*
X317600D02*
X321200D01*
X325400D02*
X328600D01*
X307400Y178600D02*
X313200D01*
X317600D02*
X321200D01*
X325400D02*
X328600D01*
X307600Y178400D02*
X313000D01*
X317800D02*
X321200D01*
X325400D02*
X328600D01*
X307800Y178200D02*
X312600D01*
X317800D02*
X321200D01*
X321600D02*
X328600D01*
X307000Y178000D02*
X312600D01*
X317800D02*
X321200D01*
X321600D02*
X328600D01*
X317800Y177800D02*
X321200D01*
X321600D02*
X328400Y177800D01*
X318000Y177600D02*
X328400D01*
X318200Y177400D02*
X328400D01*
X318200Y177200D02*
X323800D01*
X325200D02*
X328400D01*
X326200Y177000D02*
X328200D01*
X313800Y176800D02*
X322000D01*
X326400D02*
X328000D01*
X314400Y176600D02*
X321600D01*
X326400D02*
X327800D01*
X315400Y176400D02*
X321200D01*
X316200Y176200D02*
X320600D01*
X316600Y176000D02*
X320400D01*
X317800Y175800D02*
X319600D01*
X333000Y175400D02*
X335600D01*
X333000Y175200D02*
X335600Y175200D01*
X312400Y175000D02*
X324200D01*
X332800D02*
X335600D01*
X312600Y174800D02*
X324000Y174800D01*
X332800D02*
X335800D01*
X312600Y174600D02*
X323800D01*
X326400D02*
X328200D01*
X332800D02*
X335800D01*
X312800Y174400D02*
X323600Y174400D01*
X326400D02*
X329000Y174400D01*
X332800Y174400D02*
X335800D01*
X313000Y174200D02*
X323200Y174200D01*
X326400Y174200D02*
X330000D01*
X332800D02*
X336000D01*
X310000Y189800D02*
X310600Y189800D01*
X317400Y189800D02*
X318600D01*
X330200D02*
X336200D01*
X309800Y189600D02*
X313800D01*
X317400D02*
X318600D01*
X331400Y189600D02*
X336200Y189600D01*
X309800Y189400D02*
X313800D01*
X317400D02*
X318600D01*
X331800D02*
X336200D01*
X309800Y189200D02*
X313600Y189200D01*
X317400Y189200D02*
X318600D01*
X326200D02*
X329000D01*
X309600Y189000D02*
X313200D01*
X317400D02*
X318600D01*
X326200D02*
X329400D01*
X317200Y188800D02*
X318600D01*
X326000D02*
X329800D01*
X317200Y188600D02*
X318600D01*
X326000D02*
X327400D01*
X309800Y188400D02*
X311400D01*
X317600D02*
X318800D01*
X326000D02*
X327200D01*
X309000Y188200D02*
X312200D01*
X326200D02*
X327200D01*
X308800Y188000D02*
X312400D01*
X326200D02*
X327200D01*
X308400Y187800D02*
X312800D01*
X326200D02*
X327600D01*
X308000Y187600D02*
X313200D01*
X326400D02*
X327800D01*
X308000Y187400D02*
X313200D01*
X326400D02*
X328200D01*
X307600Y187200D02*
X313400D01*
X318400D02*
X321600D01*
X307400Y187000D02*
X313600Y187000D01*
X318400Y187000D02*
X321600D01*
X307200Y186800D02*
X313600D01*
X318400D02*
X321600D01*
X307200Y186600D02*
X313800D01*
X318400D02*
X321600D01*
X307200Y186400D02*
X313800D01*
X318400D02*
X321600D01*
X322600D02*
X326400D01*
X318400Y186200D02*
X321600Y186200D01*
X322200Y186200D02*
X326800D01*
X318400Y186000D02*
X321600D01*
X322200D02*
X327000D01*
X318400Y185800D02*
X321600D01*
X321800D02*
X327400D01*
X318400Y185600D02*
X321600D01*
X321800D02*
X327600D01*
X318400Y185400D02*
X321600D01*
X321800D02*
X327800D01*
X314400Y185200D02*
X318400D01*
X321600D02*
X328200Y185200D01*
X314400Y185000D02*
X318400D01*
X321600D02*
X331400D01*
X314400Y184800D02*
X318400Y184800D01*
X321600Y184800D02*
X332200D01*
X314400Y184600D02*
X318400D01*
X321600D02*
X332200D01*
X314400Y184400D02*
X321200Y184400D01*
X321600Y184400D02*
X332200D01*
X314400Y184200D02*
X321200D01*
X325000D02*
X332200D01*
X314400Y184000D02*
X321200D01*
X325200D02*
X332200D01*
X332800Y184000D02*
X334400Y184000D01*
X314400Y183800D02*
X321200D01*
X325200D02*
X332200D01*
X332800Y183800D02*
X335200Y183800D01*
X314400Y183600D02*
X321200D01*
X325400D02*
X332200D01*
X332800D02*
X335800D01*
X314400Y183400D02*
X321200D01*
X325400D02*
X328400D01*
X332800D02*
X336200D01*
X314400Y183200D02*
X321200D01*
X325400D02*
X328400D01*
X332800D02*
X336200D01*
X314400Y183000D02*
X321200Y183000D01*
X321600Y183000D02*
X328400Y183000D01*
X332800D02*
X336400Y183000D01*
X314400Y182800D02*
X321200D01*
X321600D02*
X328400D01*
X332800D02*
X336400D01*
X314400Y182600D02*
X321200D01*
X326400D02*
X328000D01*
X332800D02*
X336400D01*
X314400Y182400D02*
X321200D01*
X321800D02*
X326400D01*
X332800D02*
X336600D01*
X314400Y182200D02*
X321200D01*
X321800D02*
X326800Y182200D01*
X332800D02*
X336600Y182200D01*
X312200Y192400D02*
X323600D01*
X316600Y192200D02*
X325000D01*
X317800Y192000D02*
X325600D01*
X320000Y191800D02*
X326800D01*
X321600Y191600D02*
X327600D01*
X310400Y191400D02*
X313200D01*
X322400Y191400D02*
X328400D01*
X310000Y191200D02*
X313600Y191200D01*
X316000Y191200D02*
X318600D01*
X323800D02*
X329200D01*
X309800Y191000D02*
X313600D01*
X316000D02*
X320000D01*
X325000D02*
X330400D01*
X309800Y190800D02*
X311600D01*
X316000D02*
X320000D01*
X326400D02*
X331400D01*
X309800Y190600D02*
X312600Y190600D01*
X316000D02*
X320000D01*
X310000Y190400D02*
X313400D01*
X317400D02*
X320000D01*
X327800D02*
X336200D01*
X310200Y190200D02*
X313600D01*
X317400D02*
X318600D01*
X328800D02*
X336200D01*
X302400Y157600D02*
X304600D01*
X302400Y157400D02*
X304600D01*
X302400Y157200D02*
X304600D01*
X302400Y157000D02*
X304600D01*
X302400Y156800D02*
X304600D01*
X302200Y156600D02*
X304600D01*
X302200Y156400D02*
X304600D01*
X302000Y156200D02*
X304400D01*
X302000Y156000D02*
X304400D01*
X302000Y155800D02*
X304400D01*
X302000Y155600D02*
X304400D01*
X302000Y155400D02*
X304200D01*
X302000Y155200D02*
X304000Y155200D01*
X302000Y155000D02*
X304000Y155000D01*
X302000Y154800D02*
X304000D01*
X302000Y154600D02*
X304200D01*
X302000Y154400D02*
X305800D01*
X302200Y154200D02*
X305800D01*
X293800Y165800D02*
X298600D01*
X294000Y165600D02*
X298800D01*
X294200Y165400D02*
X298800D01*
X294400Y165200D02*
X299000D01*
X292600Y163200D02*
X294400Y163200D01*
X297400Y162400D02*
X302400D01*
X292400Y162200D02*
X294600D01*
X298000D02*
X302600D01*
X292800Y162000D02*
X295000D01*
X298600D02*
X303200D01*
X292800Y161800D02*
X295400D01*
X298800Y161800D02*
X303400Y161800D01*
X293400Y161600D02*
X295800Y161600D01*
X299600Y161600D02*
X303800D01*
X293800Y161400D02*
X296400D01*
X300400D02*
X304400D01*
X294000Y161200D02*
X296800Y161200D01*
X300800Y161200D02*
X304600D01*
X294400Y161000D02*
X297400D01*
X301800D02*
X305200D01*
X298400Y159000D02*
X303000D01*
X298400Y158800D02*
X305000D01*
X277200Y173800D02*
X278400D01*
X284000D02*
X287200D01*
X277200Y173600D02*
X278400D01*
X284000D02*
X287000Y173600D01*
X277200Y173400D02*
X278400D01*
X284000Y173400D02*
X287000D01*
X277400Y173200D02*
X278600D01*
X284000D02*
X286800D01*
X277400Y173000D02*
X278600Y173000D01*
X293200D02*
X294600D01*
X277400Y172800D02*
X278600D01*
X293200D02*
X295200D01*
X277400Y172600D02*
X278600Y172600D01*
X293200D02*
X295400D01*
X277400Y172400D02*
X278600D01*
X293400D02*
X296000D01*
X277400Y172200D02*
X278600D01*
X293400D02*
X295800Y172200D01*
X277600Y172000D02*
X278600D01*
X293600D02*
X295400D01*
X277600Y171800D02*
X278800D01*
X286000D02*
X290000D01*
X293800D02*
X295200D01*
X277600Y171600D02*
X278800D01*
X285200D02*
X289400D01*
X293800D02*
X294800D01*
X277600Y171400D02*
X278800D01*
X284400D02*
X288400D01*
X294000D02*
X294600D01*
X277600Y171200D02*
X278800Y171200D01*
X284000Y171200D02*
X288000D01*
X294200D02*
X294400D01*
X277800Y171000D02*
X278800D01*
X283200D02*
X287200D01*
X277800Y170800D02*
X279000D01*
X277800Y170600D02*
X279000D01*
X277800Y170400D02*
X279000D01*
X278000Y170200D02*
X279000D01*
X278000Y170000D02*
X279000Y170000D01*
X278000Y169800D02*
X279000D01*
X278000Y169600D02*
X279200D01*
X278000Y169400D02*
X282000D01*
X278000Y169200D02*
X281600D01*
X278200Y169000D02*
X281000Y169000D01*
X294200D02*
X297800D01*
X278200Y168800D02*
X280400D01*
X294000D02*
X297800D01*
X302000D02*
X303400D01*
X278200Y168600D02*
X280000D01*
X294000D02*
X297800D01*
X302000D02*
X303200D01*
X278200Y168400D02*
X279400D01*
X294400D02*
X297800D01*
X302000D02*
X302800D01*
X278200Y168200D02*
X278800Y168200D01*
X302000Y168200D02*
X302400Y168200D01*
X294400Y168000D02*
X298000D01*
X302000D02*
X302400D01*
X294200Y167800D02*
X298000D01*
X294000Y167600D02*
X298000D01*
X293800Y167400D02*
X298000D01*
X293800Y167200D02*
X298000D01*
X293400Y167000D02*
X298000Y167000D01*
X293400Y166800D02*
X298200D01*
X293200Y166600D02*
X298200D01*
X293200Y166400D02*
X298400D01*
X293400Y166200D02*
X298400D01*
X286000Y181800D02*
X288400D01*
X293200D02*
X303200D01*
X278200Y181600D02*
X282000D01*
X286000D02*
X288400D01*
X293400D02*
X303200D01*
X278200Y181400D02*
X282000D01*
X286000D02*
X288200D01*
X293800D02*
X303200D01*
X278000Y181200D02*
X282000D01*
X286000D02*
X288200D01*
X293800D02*
X303200D01*
X278000Y181000D02*
X281800D01*
X286000D02*
X288200D01*
X294200D02*
X303200Y181000D01*
X278000Y180800D02*
X281600D01*
X285800D02*
X288200D01*
X294800D02*
X303200Y180800D01*
X278000Y180600D02*
X281600D01*
X285800D02*
X288200D01*
X295400D02*
X303200D01*
X278000Y180400D02*
X281600D01*
X285800D02*
X288200D01*
X296600D02*
X303200D01*
X278000Y180200D02*
X281600D01*
X285800D02*
X288200D01*
X296800D02*
X303200D01*
X278000Y180000D02*
X281800Y180000D01*
X285800Y180000D02*
X288200D01*
X293800Y180000D02*
X296200Y180000D01*
X296800D02*
X303200D01*
X278000Y179800D02*
X281800D01*
X285800D02*
X288200D01*
X293600D02*
X296200D01*
X278000Y179600D02*
X281800D01*
X285800D02*
X288000D01*
X293200D02*
X296400D01*
X278000Y179400D02*
X281800D01*
X282000D02*
X288000D01*
X293200D02*
X296400D01*
X278000Y179200D02*
X281800D01*
X282000D02*
X288000D01*
X293200D02*
X296400D01*
X278200Y179000D02*
X281800D01*
X282000D02*
X288000D01*
X293200D02*
X296600D01*
X278400Y178800D02*
X288000D01*
X293200D02*
X299800D01*
X278400Y178600D02*
X281800Y178600D01*
X282000Y178600D02*
X288000D01*
X293200D02*
X299800D01*
X278400Y178400D02*
X288000D01*
X293200D02*
X299400D01*
X278400Y178200D02*
X288000D01*
X293200D02*
X299400D01*
X300600D02*
X306000D01*
X278600Y178000D02*
X287800D01*
X293200D02*
X299200D01*
X300600D02*
X306000D01*
X278600Y177800D02*
X287800D01*
X293200D02*
X299000D01*
X278600Y177600D02*
X287800D01*
X289400D02*
X298800D01*
X278600Y177400D02*
X287800Y177400D01*
X289400D02*
X298400Y177400D01*
X278600Y177200D02*
X287600D01*
X289400D02*
X298400D01*
X278600Y177000D02*
X287600D01*
X289400D02*
X298000D01*
X278600Y176800D02*
X287600D01*
X289200D02*
X297800D01*
X300800D02*
X305400D01*
X278800Y176600D02*
X287600D01*
X294000D02*
X298600D01*
X300200Y176600D02*
X304600Y176600D01*
X278800Y176400D02*
X287600D01*
X295000D02*
X303600D01*
X283600Y176200D02*
X287600D01*
X295800D02*
X302600D01*
X283600Y176000D02*
X287600D01*
X283600Y175800D02*
X287400D01*
X292600D02*
X294400D01*
X283600Y175600D02*
X287400D01*
X292600D02*
X295200Y175600D01*
X283600Y175400D02*
X287400D01*
X292800D02*
X295800D01*
X283600Y175200D02*
X287400D01*
X292800Y175200D02*
X296200Y175200D01*
X283600Y175000D02*
X287400D01*
X293200D02*
X297000D01*
X283800Y174800D02*
X287400D01*
X293400D02*
X298800Y174800D01*
X283800Y174600D02*
X287400D01*
X283800Y174400D02*
X287400D01*
X283800Y174200D02*
X287200D01*
X283400Y189800D02*
X288800D01*
X301400D02*
X304600D01*
X283400Y189600D02*
X287600D01*
X301400D02*
X302800D01*
X283400Y189400D02*
X287200D01*
X301400D02*
X302600D01*
X301400Y189200D02*
X304800D01*
X301400Y189000D02*
X304800D01*
X301400Y188800D02*
X304800D01*
X301400Y188600D02*
X304800D01*
X286000Y188200D02*
X286800D01*
X285600Y188000D02*
X286800D01*
X285200Y187800D02*
X286600D01*
X302000D02*
X306000D01*
X285200Y187600D02*
X286600D01*
X285400Y187400D02*
X286600D01*
X285400Y187200D02*
X286600D01*
X285400Y187000D02*
X286600Y187000D01*
X285400Y186800D02*
X286600D01*
X285400Y186600D02*
X286600Y186600D01*
X285400Y186400D02*
X286600D01*
X294400D02*
X299800D01*
X285400Y186200D02*
X288600D01*
X294000D02*
X299800D01*
X285400Y186000D02*
X288400D01*
X294000D02*
X299800D01*
X285400Y185800D02*
X288000D01*
X293800D02*
X299800D01*
X285600Y185600D02*
X287400D01*
X293600D02*
X299800D01*
X300000D02*
X303200D01*
X285600Y185400D02*
X287200Y185400D01*
X293400D02*
X299800D01*
X300000D02*
X303200Y185400D01*
X293400Y185200D02*
X299800D01*
X300000D02*
X303200Y185200D01*
X293200Y185000D02*
X299800D01*
X300000D02*
X303200D01*
X286400Y184800D02*
X289000Y184800D01*
X293200D02*
X296400D01*
X300000D02*
X303200D01*
X286000Y184600D02*
X289000D01*
X293200D02*
X296200D01*
X300000D02*
X303200D01*
X286000Y184400D02*
X289000D01*
X293200D02*
X296200D01*
X300000D02*
X303200D01*
X285600Y184200D02*
X289000D01*
X293000D02*
X296200D01*
X300000D02*
X303200D01*
X285600Y184000D02*
X289000Y184000D01*
X293000Y184000D02*
X296400Y184000D01*
X300000D02*
X303200Y184000D01*
X278000Y183800D02*
X281400D01*
X285600Y183800D02*
X289000Y183800D01*
X293000D02*
X296600D01*
X300000D02*
X303200Y183800D01*
X277400Y183600D02*
X280600D01*
X285600D02*
X289000D01*
X293000D02*
X297400D01*
X300000D02*
X303200D01*
X276800Y183400D02*
X280000D01*
X285600D02*
X288800D01*
X293000D02*
X298600D01*
X300000D02*
X303200D01*
X276600Y183200D02*
X279600D01*
X285600D02*
X288800D01*
X293000D02*
X298800D01*
X300000D02*
X303200D01*
X276000Y183000D02*
X279000D01*
X285600Y183000D02*
X288800D01*
X293000D02*
X299200D01*
X300000D02*
X303200D01*
X275600Y182800D02*
X278400D01*
X285600D02*
X288600D01*
X293000D02*
X299600D01*
X300000D02*
X303200D01*
X285600Y182600D02*
X288600D01*
X293000D02*
X299800D01*
X300000D02*
X303200D01*
X285600Y182400D02*
X288600D01*
X293200D02*
X299800D01*
X300000D02*
X303200D01*
X285600Y182200D02*
X288600D01*
X293200Y182200D02*
X299800D01*
X300000D02*
X303200Y182200D01*
X294000Y192200D02*
X302400D01*
X293400Y192000D02*
X301200D01*
X292200Y191800D02*
X299000Y191800D01*
X291400Y191600D02*
X297400D01*
X290600Y191400D02*
X296600D01*
X289800Y191200D02*
X295200D01*
X301200D02*
X304800D01*
X301400Y191000D02*
X304800D01*
X301400Y190800D02*
X304800D01*
X301400Y190600D02*
X303400D01*
X283400Y190400D02*
X291000Y190400D01*
X301400D02*
X302600Y190400D01*
X283400Y190200D02*
X290200D01*
X301400D02*
X304600D01*
X341600Y174000D02*
X342600D01*
X342200Y182000D02*
X343400D01*
X313000Y174000D02*
X323000D01*
X326400D02*
X330400D01*
X332800D02*
X336000D01*
X308400Y166000D02*
X311400D01*
X318000Y166000D02*
X321000D01*
X325400D02*
X328800Y166000D01*
X310200Y190000D02*
X313600D01*
X317400D02*
X318600D01*
X329200D02*
X336200D01*
X314400Y182000D02*
X321200D01*
X322000D02*
X327000D01*
X332800D02*
X336600D01*
X283800Y174000D02*
X287200D01*
X293600Y166000D02*
X298600D01*
X283400Y190000D02*
X289800D01*
X301400D02*
X304600D01*
X285800Y182000D02*
X288400D01*
X293200D02*
X303200D01*
X333000Y179800D02*
X340400D01*
X333000Y179600D02*
X340400D01*
X333000Y179400D02*
X340200D01*
X333000Y179200D02*
X340200D01*
X333000Y179000D02*
X340200D01*
X333000Y178800D02*
X340200D01*
X333000Y178600D02*
X340200D01*
X333000Y178400D02*
X340200D01*
X333000Y178200D02*
X340200D01*
X333000Y178000D02*
X340200D01*
X333000Y177800D02*
X340200Y177800D01*
X333000Y177600D02*
X340200D01*
X333000Y177400D02*
X340200D01*
X333000Y177200D02*
X340200D01*
X333000Y177000D02*
X340200D01*
X333000Y176800D02*
X340200D01*
X333000Y176600D02*
X340200Y176600D01*
X333000Y176400D02*
X340200Y176400D01*
X333000Y176200D02*
X340200D01*
X333000Y176000D02*
X340200D01*
X333000Y175800D02*
X340200D01*
X333000Y175600D02*
X340200D01*
X302400Y157800D02*
X309000D01*
X302400Y154000D02*
X307400D01*
X302400Y153800D02*
X307400Y153800D01*
X304000Y152800D02*
X311200D01*
X304400Y152600D02*
X313200D01*
X304600Y152400D02*
X313200D01*
X305200Y152200D02*
X315200D01*
X306000Y151800D02*
X322200D01*
X299800Y158600D02*
X306800D01*
X300400Y158400D02*
X307400D01*
X301400Y158200D02*
X309000D01*
X295000Y173800D02*
X309000D01*
X295800Y173600D02*
X309200Y173600D01*
X296400Y173400D02*
X309200Y173400D01*
X296800Y173200D02*
X309200D01*
X298200Y173000D02*
X309400Y173000D01*
X301200Y172800D02*
X309600D01*
X301800Y172600D02*
X309600D01*
X305800Y170800D02*
X310400D01*
X305800Y170600D02*
X310400D01*
X306000Y170400D02*
X310400D01*
X306400Y170200D02*
X310400D01*
X302400Y169600D02*
X306400D01*
X302400Y169400D02*
X306600D01*
X302200Y169200D02*
X306800D01*
X302200Y169000D02*
X307000D01*
X303800Y180200D02*
X310400D01*
X303800Y180000D02*
X313800D01*
X296800Y179800D02*
X313800D01*
X297000Y179600D02*
X313800D01*
X296800Y179400D02*
X313800D01*
X296800Y179200D02*
X307000D01*
X300200Y179000D02*
X307000D01*
X300200Y178800D02*
X306800D01*
X300400Y178600D02*
X306600D01*
X300400Y178400D02*
X306400D01*
X300800Y177800D02*
X317200D01*
X301200Y177600D02*
X316800D01*
X302000Y177400D02*
X316400D01*
X302200Y177200D02*
X316600D01*
X301400Y177000D02*
X307200D01*
X302400Y175200D02*
X308000D01*
X302000Y175000D02*
X308200D01*
X299200Y174800D02*
X308400D01*
X293600Y174600D02*
X308400D01*
X294000Y174400D02*
X308600D01*
X294200Y174200D02*
X308800D01*
X301600Y187600D02*
X306600D01*
X301400Y187400D02*
X306600D01*
X301000Y187200D02*
X307000D01*
X300800Y187000D02*
X307000D01*
X300600Y186800D02*
X307000D01*
X300600Y186600D02*
X307000D01*
X300400Y186400D02*
X307000D01*
X300400Y186200D02*
X313800D01*
X300400Y186000D02*
X313800D01*
X300200Y185800D02*
X310000D01*
X304800Y193400D02*
X314200D01*
X301800Y193200D02*
X317200D01*
X299400Y193000D02*
X319600D01*
X297800Y192800D02*
X321200D01*
X296800Y192600D02*
X322200D01*
X295400Y192400D02*
X306800D01*
X294600Y174000D02*
X308800D01*
X302400Y158000D02*
X309000D01*
X305800Y152000D02*
X322400D01*
D18*
X331100Y31800D02*
X331600D01*
X329800Y31700D02*
X332800D01*
X335700D02*
X337500D01*
X329100Y31600D02*
X332700D01*
X332800D02*
X333300D01*
X335100D02*
X338100D01*
X328600Y31500D02*
X333600D01*
X334900D02*
X338800D01*
X328200Y31400D02*
X333600D01*
X334900D02*
X339200D01*
X328000Y31300D02*
X328500D01*
X328700D02*
X333500D01*
X334900D02*
X339600D01*
X328000Y31200D02*
X333500D01*
X334900D02*
X339900D01*
X327900Y31100D02*
X333500D01*
X334900D02*
X340200D01*
X325100Y31000D02*
X326700D01*
X327900D02*
X333500D01*
X334800D02*
X334900D01*
X335000D02*
X340400D01*
X324400Y30900D02*
X326600D01*
X327900D02*
X333500D01*
X334800D02*
X340800D01*
X324000Y30800D02*
X326600D01*
X327900D02*
X333400D01*
X334800D02*
X341000D01*
X323700Y30700D02*
X326600D01*
X327800D02*
X333400D01*
X334700D02*
X341300D01*
X323400Y30600D02*
X326500D01*
X327800D02*
X333400D01*
X334700D02*
X341500D01*
X323100Y30500D02*
X326500D01*
X327800D02*
X333400D01*
X334700D02*
X341600D01*
X322800Y30400D02*
X326500D01*
X327700D02*
X333300D01*
X334700D02*
X341600D01*
X322600Y30300D02*
X326500D01*
X327700D02*
X333300D01*
X334600D02*
X341500D01*
X322300Y30200D02*
X326400D01*
X327700D02*
X333300D01*
X334100D02*
X341500D01*
X322200Y30100D02*
X326400D01*
X327700D02*
X333300D01*
X333700D02*
X341500D01*
X322000Y30000D02*
X326400D01*
X327100D02*
X333200D01*
X333700D02*
X341500D01*
X321800Y29900D02*
X326400D01*
X326800D02*
X333200D01*
X333700D02*
X341500D01*
X321700Y29800D02*
X326400D01*
X326700D02*
X333200D01*
X333700D02*
X341400D01*
X321500Y29700D02*
X326400D01*
X326700D02*
X333200D01*
X333600D02*
X341400D01*
X321400Y29600D02*
X326300D01*
X326700D02*
X333100D01*
X333600D02*
X341400D01*
X321200Y29500D02*
X326300D01*
X326700D02*
X333100D01*
X333600D02*
X341400D01*
X321000Y29400D02*
X326300D01*
X326600D02*
X333100D01*
X333500D02*
X341300D01*
X320900Y29300D02*
X326200D01*
X326600D02*
X333100D01*
X333500D02*
X341300D01*
X320700Y29200D02*
X326200D01*
X326600D02*
X333100D01*
X333500D02*
X341300D01*
X320600Y29100D02*
X326200D01*
X326600D02*
X333100D01*
X333500D02*
X341300D01*
X320500Y29000D02*
X326200D01*
X326500D02*
X333000D01*
X333400D02*
X341200D01*
X320400Y28900D02*
X326100D01*
X326500D02*
X333000D01*
X333400D02*
X341200D01*
X320300Y28800D02*
X320500D01*
X320600D02*
X326100D01*
X326500D02*
X333000D01*
X333400D02*
X341200D01*
X320100Y28700D02*
X326100D01*
X326500D02*
X332700D01*
X332800D02*
X332900D01*
X333400D02*
X341100D01*
X320100Y28600D02*
X320300D01*
X320400D02*
X326100D01*
X326400D02*
X332900D01*
X333300D02*
X341100D01*
X320100Y28500D02*
X326100D01*
X326400D02*
X332900D01*
X333300D02*
X341100D01*
X320000Y28400D02*
X326100D01*
X326400D02*
X332900D01*
X333300D02*
X341100D01*
X320000Y28300D02*
X326000D01*
X326400D02*
X332800D01*
X333300D02*
X341100D01*
X320000Y28200D02*
X326000D01*
X326300D02*
X332800D01*
X333200D02*
X341000D01*
X320000Y28100D02*
X326000D01*
X326300D02*
X332800D01*
X333200D02*
X341000D01*
X319900Y28000D02*
X325900D01*
X326300D02*
X332800D01*
X333200D02*
X341000D01*
X319800Y27900D02*
X325900D01*
X326300D02*
X332800D01*
X333200D02*
X341000D01*
X319600Y27800D02*
X325900D01*
X326300D02*
X332700D01*
X333100D02*
X340900D01*
X319500Y27700D02*
X325800D01*
X326200D02*
X332700D01*
X333100D02*
X340900D01*
X319300Y27600D02*
X325800D01*
X326200D02*
X332700D01*
X333100D02*
X340900D01*
X319200Y27500D02*
X325800D01*
X326200D02*
X332700D01*
X333100D02*
X340900D01*
X319100Y27400D02*
X325800D01*
X326100D02*
X332700D01*
X333000D02*
X340800D01*
X319000Y27300D02*
X325800D01*
X326100D02*
X332600D01*
X333000D02*
X340800D01*
X318900Y27200D02*
X325800D01*
X326100D02*
X332600D01*
X333000D02*
X340800D01*
X318800Y27100D02*
X325700D01*
X326100D02*
X332600D01*
X333000D02*
X340800D01*
X318800Y27000D02*
X325700D01*
X326000D02*
X332500D01*
X333000D02*
X340700D01*
X318800Y26900D02*
X325700D01*
X326000D02*
X332500D01*
X332900D02*
X340700D01*
X318800Y26800D02*
X325700D01*
X326000D02*
X332500D01*
X332900D02*
X340700D01*
X318700Y26700D02*
X325600D01*
X326000D02*
X332500D01*
X332900D02*
X340700D01*
X318700Y26600D02*
X325600D01*
X325900D02*
X332500D01*
X332800D02*
X340600D01*
X318700Y26500D02*
X325600D01*
X325900D02*
X332500D01*
X332800D02*
X340600D01*
X318700Y26400D02*
X325600D01*
X325900D02*
X332400D01*
X332800D02*
X340600D01*
X318700Y26300D02*
X325600D01*
X325900D02*
X332400D01*
X332800D02*
X340600D01*
X318600Y26200D02*
X325500D01*
X325800D02*
X332400D01*
X332700D02*
X340500D01*
X318600Y26100D02*
X325500D01*
X325800D02*
X332400D01*
X332700D02*
X340500D01*
X318600Y26000D02*
X325500D01*
X325800D02*
X332300D01*
X332700D02*
X340500D01*
X318500Y25900D02*
X325500D01*
X325800D02*
X332300D01*
X332700D02*
X340500D01*
X318500Y25800D02*
X325400D01*
X325700D02*
X332300D01*
X332700D02*
X340400D01*
X318500Y25700D02*
X325400D01*
X325700D02*
X332300D01*
X332600D02*
X340400D01*
X318500Y25600D02*
X325400D01*
X325700D02*
X332000D01*
X332600D02*
X340400D01*
X318500Y25500D02*
X325400D01*
X325700D02*
X331900D01*
X332600D02*
X340400D01*
X318400Y25400D02*
X324900D01*
X325000D02*
X325300D01*
X325600D02*
X331800D01*
X332500D02*
X340300D01*
X318400Y25300D02*
X325300D01*
X325600D02*
X331700D01*
X332500D02*
X340300D01*
X318400Y25200D02*
X325300D01*
X325600D02*
X331700D01*
X332500D02*
X340300D01*
X318400Y25100D02*
X325300D01*
X325600D02*
X331600D01*
X332500D02*
X340000D01*
X340100D02*
X340200D01*
X318300Y25000D02*
X325000D01*
X325500D02*
X331600D01*
X332400D02*
X339600D01*
X318300Y24900D02*
X324900D01*
X325500D02*
X331600D01*
X332600D02*
X339500D01*
X318300Y24800D02*
X324800D01*
X325500D02*
X331600D01*
X332700D02*
X339400D01*
X318300Y24700D02*
X324700D01*
X325500D02*
X331600D01*
X332800D02*
X339400D01*
X318200Y24600D02*
X324600D01*
X325400D02*
X331600D01*
X332900D02*
X339100D01*
X339200D02*
X339300D01*
X318200Y24500D02*
X324600D01*
X325500D02*
X331600D01*
X332900D02*
X339200D01*
X318200Y24400D02*
X324600D01*
X325700D02*
X331600D01*
X332900D02*
X339200D01*
X318200Y24300D02*
X324600D01*
X325800D02*
X331600D01*
X332900D02*
X339100D01*
X318100Y24200D02*
X324600D01*
X325800D02*
X331600D01*
X332800D02*
X339100D01*
X318100Y24100D02*
X324600D01*
X325900D02*
X331600D01*
X332800D02*
X339000D01*
X318100Y24000D02*
X324500D01*
X325900D02*
X331600D01*
X332800D02*
X339000D01*
X318100Y23900D02*
X324500D01*
X325800D02*
X331600D01*
X332700D02*
X338900D01*
X318000Y23800D02*
X324500D01*
X325800D02*
X331600D01*
X332700D02*
X338900D01*
X318000Y23700D02*
X324600D01*
X325800D02*
X331700D01*
X332600D02*
X338800D01*
X318000Y23600D02*
X324600D01*
X325800D02*
X331700D01*
X332600D02*
X338800D01*
X318000Y23500D02*
X324600D01*
X325700D02*
X331700D01*
X332500D02*
X338800D01*
X318000Y23400D02*
X324600D01*
X325700D02*
X331700D01*
X332500D02*
X338700D01*
X317900Y23300D02*
X324600D01*
X325700D02*
X331700D01*
X332400D02*
X338700D01*
X317900Y23200D02*
X324600D01*
X325600D02*
X331700D01*
X332400D02*
X338600D01*
X317900Y23100D02*
X324600D01*
X325600D02*
X326500D01*
X326600D02*
X331700D01*
X332300D02*
X338600D01*
X317800Y23000D02*
X324600D01*
X325500D02*
X331700D01*
X332300D02*
X338500D01*
X317800Y22900D02*
X324600D01*
X325500D02*
X331700D01*
X332200D02*
X338500D01*
X317800Y22800D02*
X324600D01*
X325500D02*
X331800D01*
X332200D02*
X338400D01*
X317800Y22700D02*
X324600D01*
X325400D02*
X331800D01*
X332100D02*
X338400D01*
X317800Y22600D02*
X324600D01*
X325400D02*
X331800D01*
X332100D02*
X332900D01*
X333000D02*
X338300D01*
X317700Y22500D02*
X324700D01*
X325300D02*
X331800D01*
X332000D02*
X338300D01*
X317700Y22400D02*
X324700D01*
X325300D02*
X331800D01*
X332000D02*
X338200D01*
X317700Y22300D02*
X324700D01*
X325300D02*
X331800D01*
X332000D02*
X338200D01*
X317700Y22200D02*
X324700D01*
X325200D02*
X331800D01*
X331900D02*
X338100D01*
X317600Y22100D02*
X324700D01*
X325200D02*
X338100D01*
X317600Y22000D02*
X324700D01*
X325100D02*
X338000D01*
X317600Y21900D02*
X324700D01*
X325100D02*
X338000D01*
X317600Y21800D02*
X324700D01*
X325000D02*
X337900D01*
X317500Y21700D02*
X317700D01*
X318100D02*
X324700D01*
X325000D02*
X337900D01*
X318300Y21600D02*
X324700D01*
X324900D02*
X337800D01*
X318400Y21500D02*
X324700D01*
X324900D02*
X337800D01*
X318500Y21400D02*
X324700D01*
X324800D02*
X337700D01*
X318500Y21300D02*
X337700D01*
X318600Y21200D02*
X337600D01*
X318600Y21100D02*
X337600D01*
X318600Y21000D02*
X337500D01*
X318700Y20900D02*
X337500D01*
X318700Y20800D02*
X337400D01*
X318700Y20700D02*
X337400D01*
X318700Y20600D02*
X337300D01*
X318700Y20500D02*
X337300D01*
X318700Y20400D02*
X337200D01*
X318700Y20300D02*
X337200D01*
X318700Y20200D02*
X337100D01*
X318700Y20100D02*
X337100D01*
X318800Y20000D02*
X337000D01*
X318800Y19900D02*
X337000D01*
X318800Y19800D02*
X320200D01*
X320300D02*
X337000D01*
X318800Y19700D02*
X336900D01*
X318800Y19600D02*
X336900D01*
X318800Y19500D02*
X336800D01*
X318900Y19400D02*
X336700D01*
X318900Y19300D02*
X336700D01*
X318900Y19200D02*
X336600D01*
X318900Y19100D02*
X336600D01*
X318900Y19000D02*
X336600D01*
X318900Y18900D02*
X336500D01*
X319000Y18800D02*
X336500D01*
X319000Y18700D02*
X336400D01*
X319000Y18600D02*
X336400D01*
X319000Y18500D02*
X336300D01*
X319000Y18400D02*
X336300D01*
X319000Y18300D02*
X336200D01*
X319000Y18200D02*
X328500D01*
X328600D02*
X336100D01*
X319100Y18100D02*
X336100D01*
X319100Y18000D02*
X336100D01*
X319100Y17900D02*
X336000D01*
X319100Y17800D02*
X336000D01*
X319100Y17700D02*
X335900D01*
X319100Y17600D02*
X335900D01*
X319100Y17500D02*
X335900D01*
X319200Y17400D02*
X335800D01*
X319200Y17300D02*
X335700D01*
X319200Y17200D02*
X335700D01*
X319200Y17100D02*
X335600D01*
X319200Y17000D02*
X335600D01*
X319300Y16900D02*
X335500D01*
X319300Y16800D02*
X335500D01*
X319300Y16700D02*
X335400D01*
X319300Y16600D02*
X327400D01*
X327500D02*
X335400D01*
X319300Y16500D02*
X327300D01*
X327500D02*
X335300D01*
X319300Y16400D02*
X327300D01*
X327500D02*
X335300D01*
X319300Y16300D02*
X327200D01*
X327500D02*
X335300D01*
X319400Y16200D02*
X327200D01*
X327600D02*
X335200D01*
X319400Y16100D02*
X327100D01*
X327600D02*
X335100D01*
X319400Y16000D02*
X327100D01*
X327600D02*
X335100D01*
X319400Y15900D02*
X327100D01*
X327600D02*
X335100D01*
X319400Y15800D02*
X327000D01*
X327600D02*
X328800D01*
X328900D02*
X335000D01*
X319400Y15700D02*
X327000D01*
X327600D02*
X334900D01*
X319400Y15600D02*
X326900D01*
X327600D02*
X334900D01*
X319500Y15500D02*
X326900D01*
X327600D02*
X334800D01*
X319500Y15400D02*
X326400D01*
X327600D02*
X334800D01*
X319500Y15300D02*
X326200D01*
X327600D02*
X334700D01*
X319500Y15200D02*
X326200D01*
X327700D02*
X334700D01*
X319500Y15100D02*
X326100D01*
X327700D02*
X334700D01*
X319600Y15000D02*
X326100D01*
X327700D02*
X334600D01*
X319600Y14900D02*
X326000D01*
X327700D02*
X334500D01*
X319600Y14800D02*
X326000D01*
X327700D02*
X334500D01*
X319600Y14700D02*
X326000D01*
X328800D02*
X334400D01*
X319600Y14600D02*
X325900D01*
X329400D02*
X334400D01*
X319600Y14500D02*
X325900D01*
X330000D02*
X334400D01*
X319600Y14400D02*
X325500D01*
X330400D02*
X334300D01*
X319700Y14300D02*
X325200D01*
X330700D02*
X333700D01*
X333900D02*
X334300D01*
X319700Y14200D02*
X324900D01*
X331000D02*
X333600D01*
X334100D02*
X334200D01*
X319700Y14100D02*
X324600D01*
X331400D02*
X333600D01*
X319700Y14000D02*
X324400D01*
X331600D02*
X333500D01*
X319700Y13900D02*
X324100D01*
X331900D02*
X333500D01*
X319700Y13800D02*
X323900D01*
X332100D02*
X333400D01*
X319700Y13700D02*
X323700D01*
X332400D02*
X333400D01*
X319800Y13600D02*
X323500D01*
X332600D02*
X333300D01*
X319800Y13500D02*
X323300D01*
X332800D02*
X333300D01*
X319800Y13400D02*
X323100D01*
X333000D02*
X333200D01*
X319800Y13300D02*
X323000D01*
X319800Y13200D02*
X322800D01*
X319900Y13100D02*
X322600D01*
X319900Y13000D02*
X322500D01*
X319900Y12900D02*
X322300D01*
X319900Y12800D02*
X322200D01*
X319900Y12700D02*
X322100D01*
X319900Y12600D02*
X321900D01*
X319900Y12500D02*
X321800D01*
X320000Y12400D02*
X321700D01*
X320000Y12300D02*
X321500D01*
X320000Y12200D02*
X321400D01*
X320000Y12100D02*
X321300D01*
X320000Y12000D02*
X321100D01*
X320000Y11900D02*
X321000D01*
X320100Y11800D02*
X320900D01*
X320100Y11700D02*
X320800D01*
X320100Y11600D02*
X320700D01*
X320100Y11500D02*
X320600D01*
X320100Y11400D02*
X320500D01*
X320100Y11300D02*
X320400D01*
X320200Y11200D02*
X320300D01*
D19*
X305360Y148146D02*
X303027D01*
Y144647D01*
X305360D01*
X303027Y146396D02*
X304194D01*
X308859Y147563D02*
X308276Y148146D01*
X307109D01*
X306526Y147563D01*
Y145230D01*
X307109Y144647D01*
X308276D01*
X308859Y145230D01*
X312358Y148146D02*
X310025D01*
Y144647D01*
X312358D01*
X310025Y146396D02*
X311191D01*
X317023Y147563D02*
X317606Y148146D01*
X318772D01*
X319355Y147563D01*
Y146979D01*
X318772Y146396D01*
X318189D01*
X318772D01*
X319355Y145813D01*
Y145230D01*
X318772Y144647D01*
X317606D01*
X317023Y145230D01*
X320522Y144647D02*
X321688D01*
X321105D01*
Y148146D01*
X320522Y147563D01*
X325770Y148146D02*
X323437D01*
Y146396D01*
X324604Y146979D01*
X325187D01*
X325770Y146396D01*
Y145230D01*
X325187Y144647D01*
X324021D01*
X323437Y145230D01*
D20*
X270000Y65000D02*
D03*
X280000D02*
D03*
X271000Y55000D02*
D03*
X281000D02*
D03*
X270000Y45000D02*
D03*
X280000D02*
D03*
X271000Y35000D02*
D03*
X281000D02*
D03*
X270000Y25000D02*
D03*
D21*
X280000D02*
D03*
D22*
X133000Y11000D02*
D03*
X190000Y10000D02*
D03*
X165000Y173000D02*
D03*
X170000Y147000D02*
D03*
X159043Y162000D02*
D03*
X147000Y154000D02*
D03*
X246000Y110000D02*
D03*
X236000Y116000D02*
D03*
Y94000D02*
D03*
X168000Y32000D02*
D03*
X128100Y98600D02*
D03*
X148500Y105100D02*
D03*
X70000Y96000D02*
D03*
X74000Y92000D02*
D03*
X148000Y96000D02*
D03*
X118000Y114000D02*
D03*
X122000Y102000D02*
D03*
X64000Y190000D02*
D03*
X344000Y62000D02*
D03*
X324000Y38000D02*
D03*
X174000Y152000D02*
D03*
X190000D02*
D03*
X176000Y68000D02*
D03*
X190000D02*
D03*
X26000Y48000D02*
D03*
X42000Y32000D02*
D03*
X38000Y38000D02*
D03*
X70000Y102000D02*
D03*
X80000Y98000D02*
D03*
X96000Y70000D02*
D03*
X70000Y38000D02*
D03*
X60000Y34000D02*
D03*
X70000Y74000D02*
D03*
X28000Y108000D02*
D03*
X144000D02*
D03*
X178000Y130000D02*
D03*
X254000Y166000D02*
D03*
X344000Y66000D02*
D03*
X324000D02*
D03*
X222000Y112000D02*
D03*
X216000Y32000D02*
D03*
Y108000D02*
D03*
X210000Y156000D02*
D03*
Y102000D02*
D03*
X146000Y50000D02*
D03*
X104000Y128000D02*
D03*
X100000D02*
D03*
Y110000D02*
D03*
X103275Y95275D02*
D03*
X108000Y96000D02*
D03*
X112000Y106000D02*
D03*
X108000Y86000D02*
D03*
X196000Y52000D02*
D03*
X160000D02*
D03*
X186000Y128000D02*
D03*
X156000Y130000D02*
D03*
X200000D02*
D03*
X202000Y70000D02*
D03*
X154000D02*
D03*
X10000Y62000D02*
D03*
X100000Y134000D02*
D03*
X58000D02*
D03*
X34000Y136000D02*
D03*
X18000Y138000D02*
D03*
X22000Y170000D02*
D03*
X181000D02*
D03*
X120000Y166000D02*
D03*
X60000Y114000D02*
D03*
X112000Y42000D02*
D03*
X182000Y46000D02*
D03*
X103275D02*
D03*
X68000Y106000D02*
D03*
X124000Y92000D02*
D03*
X116000D02*
D03*
X96000Y86000D02*
D03*
X100000Y80000D02*
D03*
X148000Y88000D02*
D03*
X108000Y118000D02*
D03*
X84000D02*
D03*
X68000Y88000D02*
D03*
Y80000D02*
D03*
X64000Y38000D02*
D03*
Y60000D02*
D03*
X54000D02*
D03*
X68000Y24000D02*
D03*
X46000D02*
D03*
X42000Y62000D02*
D03*
X73400Y86100D02*
D03*
M02*
