G04 Layer_Color=32896*
%FSLAX25Y25*%
%MOIN*%
G70*
G01*
G75*
%ADD14C,0.01000*%
%ADD19C,0.00600*%
%ADD41C,0.02362*%
%ADD43C,0.00787*%
%ADD65C,0.01968*%
%ADD66C,0.00500*%
%ADD67C,0.01181*%
%ADD68C,0.00400*%
D14*
X55843Y138378D02*
X69622D01*
Y185622D01*
X55843D02*
X69622D01*
X22378Y138378D02*
X36158D01*
X22378D02*
Y185622D01*
X36158D01*
X129000Y16000D02*
X134998D01*
Y18999D01*
X133998Y19999D01*
X131999D01*
X130999Y18999D01*
Y16000D01*
Y17999D02*
X129000Y19999D01*
X134998Y25997D02*
Y21998D01*
X131999D01*
X132999Y23997D01*
Y24997D01*
X131999Y25997D01*
X130000D01*
X129000Y24997D01*
Y22998D01*
X130000Y21998D01*
X133998Y27996D02*
X134998Y28996D01*
Y30995D01*
X133998Y31995D01*
X130000D01*
X129000Y30995D01*
Y28996D01*
X130000Y27996D01*
X133998D01*
X134998Y33994D02*
Y37993D01*
X133998D01*
X130000Y33994D01*
X129000D01*
X184900Y25100D02*
Y31098D01*
X181901D01*
X180901Y30098D01*
Y28099D01*
X181901Y27099D01*
X184900D01*
X182901D02*
X180901Y25100D01*
X174903Y31098D02*
X178902D01*
Y28099D01*
X176903Y29099D01*
X175903D01*
X174903Y28099D01*
Y26100D01*
X175903Y25100D01*
X177902D01*
X178902Y26100D01*
X172904Y30098D02*
X171904Y31098D01*
X169905D01*
X168905Y30098D01*
Y26100D01*
X169905Y25100D01*
X171904D01*
X172904Y26100D01*
Y30098D01*
X162907Y31098D02*
X164907Y30098D01*
X166906Y28099D01*
Y26100D01*
X165906Y25100D01*
X163907D01*
X162907Y26100D01*
Y27099D01*
X163907Y28099D01*
X166906D01*
X200100Y166900D02*
Y172898D01*
X197101D01*
X196101Y171898D01*
Y169899D01*
X197101Y168899D01*
X200100D01*
X198101D02*
X196101Y166900D01*
X190103Y172898D02*
X194102D01*
Y169899D01*
X192103Y170899D01*
X191103D01*
X190103Y169899D01*
Y167900D01*
X191103Y166900D01*
X193102D01*
X194102Y167900D01*
X188104Y171898D02*
X187104Y172898D01*
X185105D01*
X184105Y171898D01*
Y167900D01*
X185105Y166900D01*
X187104D01*
X188104Y167900D01*
Y171898D01*
X178107Y172898D02*
X182106D01*
Y169899D01*
X180106Y170899D01*
X179107D01*
X178107Y169899D01*
Y167900D01*
X179107Y166900D01*
X181106D01*
X182106Y167900D01*
X167900Y166100D02*
Y172098D01*
X164901D01*
X163901Y171098D01*
Y169099D01*
X164901Y168099D01*
X167900D01*
X165901D02*
X163901Y166100D01*
X157903Y172098D02*
X161902D01*
Y169099D01*
X159903Y170099D01*
X158903D01*
X157903Y169099D01*
Y167100D01*
X158903Y166100D01*
X160902D01*
X161902Y167100D01*
X155904Y171098D02*
X154904Y172098D01*
X152905D01*
X151905Y171098D01*
Y167100D01*
X152905Y166100D01*
X154904D01*
X155904Y167100D01*
Y171098D01*
X146907Y166100D02*
Y172098D01*
X149906Y169099D01*
X145907D01*
X0Y0D02*
X353000D01*
X0D02*
Y203000D01*
X353000D01*
Y0D02*
Y203000D01*
D19*
X118000Y36000D02*
Y39499D01*
X116251D01*
X115667Y38916D01*
Y37749D01*
X116251Y37166D01*
X118000D01*
X116834D02*
X115667Y36000D01*
X112752D02*
Y39499D01*
X114501Y37749D01*
X112169D01*
X111002Y38916D02*
X110419Y39499D01*
X109253D01*
X108670Y38916D01*
Y36583D01*
X109253Y36000D01*
X110419D01*
X111002Y36583D01*
Y38916D01*
X107503D02*
X106920Y39499D01*
X105754D01*
X105171Y38916D01*
Y36583D01*
X105754Y36000D01*
X106920D01*
X107503Y36583D01*
Y38916D01*
X157906Y151000D02*
X161405D01*
Y152749D01*
X160822Y153333D01*
X159655D01*
X159072Y152749D01*
Y151000D01*
Y152166D02*
X157906Y153333D01*
Y156248D02*
X161405D01*
X159655Y154499D01*
Y156831D01*
X160822Y157998D02*
X161405Y158581D01*
Y159747D01*
X160822Y160330D01*
X158489D01*
X157906Y159747D01*
Y158581D01*
X158489Y157998D01*
X160822D01*
X157906Y163246D02*
X161405D01*
X159655Y161497D01*
Y163829D01*
X142969Y40500D02*
Y37001D01*
X144718D01*
X145301Y37584D01*
Y38751D01*
X144718Y39334D01*
X142969D01*
X144135D02*
X145301Y40500D01*
X148217D02*
Y37001D01*
X146468Y38751D01*
X148800D01*
X149967Y37584D02*
X150550Y37001D01*
X151716D01*
X152299Y37584D01*
Y39917D01*
X151716Y40500D01*
X150550D01*
X149967Y39917D01*
Y37584D01*
X155798Y37001D02*
X153465D01*
Y38751D01*
X154632Y38167D01*
X155215D01*
X155798Y38751D01*
Y39917D01*
X155215Y40500D01*
X154049D01*
X153465Y39917D01*
X251000Y93000D02*
X254499D01*
Y94749D01*
X253916Y95333D01*
X252749D01*
X252166Y94749D01*
Y93000D01*
Y94166D02*
X251000Y95333D01*
Y98248D02*
X254499D01*
X252749Y96499D01*
Y98831D01*
X253916Y99998D02*
X254499Y100581D01*
Y101747D01*
X253916Y102330D01*
X251583D01*
X251000Y101747D01*
Y100581D01*
X251583Y99998D01*
X253916D01*
X254499Y105829D02*
X253916Y104663D01*
X252749Y103497D01*
X251583D01*
X251000Y104080D01*
Y105246D01*
X251583Y105829D01*
X252166D01*
X252749Y105246D01*
Y103497D01*
X226000Y101000D02*
X229499D01*
Y102749D01*
X228916Y103333D01*
X227749D01*
X227166Y102749D01*
Y101000D01*
Y102166D02*
X226000Y103333D01*
Y106248D02*
X229499D01*
X227749Y104499D01*
Y106831D01*
X228916Y107998D02*
X229499Y108581D01*
Y109747D01*
X228916Y110330D01*
X226583D01*
X226000Y109747D01*
Y108581D01*
X226583Y107998D01*
X228916D01*
X229499Y111497D02*
Y113829D01*
X228916D01*
X226583Y111497D01*
X226000D01*
X127433Y91684D02*
X126849Y91101D01*
X125683D01*
X125100Y91684D01*
Y94017D01*
X125683Y94600D01*
X126849D01*
X127433Y94017D01*
X130348Y94600D02*
Y91101D01*
X128599Y92851D01*
X130931D01*
X132098Y91684D02*
X132681Y91101D01*
X133847D01*
X134430Y91684D01*
Y94017D01*
X133847Y94600D01*
X132681D01*
X132098Y94017D01*
Y91684D01*
X135597D02*
X136180Y91101D01*
X137346D01*
X137929Y91684D01*
Y94017D01*
X137346Y94600D01*
X136180D01*
X135597Y94017D01*
Y91684D01*
X52000Y21501D02*
X54333Y25000D01*
Y21501D02*
X52000Y25000D01*
X55499Y22084D02*
X56082Y21501D01*
X57248D01*
X57831Y22084D01*
Y22667D01*
X57248Y23251D01*
X56665D01*
X57248D01*
X57831Y23834D01*
Y24417D01*
X57248Y25000D01*
X56082D01*
X55499Y24417D01*
X58998Y22084D02*
X59581Y21501D01*
X60747D01*
X61330Y22084D01*
Y24417D01*
X60747Y25000D01*
X59581D01*
X58998Y24417D01*
Y22084D01*
X62497D02*
X63080Y21501D01*
X64246D01*
X64829Y22084D01*
Y24417D01*
X64246Y25000D01*
X63080D01*
X62497Y24417D01*
Y22084D01*
X71001Y22000D02*
X73917D01*
X74500Y21417D01*
Y20251D01*
X73917Y19667D01*
X71001D01*
X71584Y18501D02*
X71001Y17918D01*
Y16752D01*
X71584Y16169D01*
X72167D01*
X72751Y16752D01*
Y17335D01*
Y16752D01*
X73334Y16169D01*
X73917D01*
X74500Y16752D01*
Y17918D01*
X73917Y18501D01*
X71584Y15002D02*
X71001Y14419D01*
Y13253D01*
X71584Y12670D01*
X73917D01*
X74500Y13253D01*
Y14419D01*
X73917Y15002D01*
X71584D01*
X74500Y11503D02*
Y10337D01*
Y10920D01*
X71001D01*
X71584Y11503D01*
X20101Y93800D02*
X23017D01*
X23600Y93217D01*
Y92051D01*
X23017Y91467D01*
X20101D01*
X20684Y90301D02*
X20101Y89718D01*
Y88552D01*
X20684Y87969D01*
X21267D01*
X21851Y88552D01*
Y89135D01*
Y88552D01*
X22434Y87969D01*
X23017D01*
X23600Y88552D01*
Y89718D01*
X23017Y90301D01*
X20684Y86802D02*
X20101Y86219D01*
Y85053D01*
X20684Y84470D01*
X23017D01*
X23600Y85053D01*
Y86219D01*
X23017Y86802D01*
X20684D01*
Y83303D02*
X20101Y82720D01*
Y81554D01*
X20684Y80971D01*
X23017D01*
X23600Y81554D01*
Y82720D01*
X23017Y83303D01*
X20684D01*
X57999Y106500D02*
Y108833D01*
Y107666D01*
X54500D01*
Y109999D02*
X57999D01*
Y111748D01*
X57416Y112331D01*
X56249D01*
X55666Y111748D01*
Y109999D01*
X53917Y113498D02*
Y115830D01*
X54500Y116997D02*
X57999D01*
Y118746D01*
X57416Y119329D01*
X56249D01*
X55666Y118746D01*
Y116997D01*
X54500Y120495D02*
X56833D01*
X57999Y121662D01*
X56833Y122828D01*
X54500D01*
X56249D01*
Y120495D01*
X54500Y123994D02*
Y125161D01*
Y124577D01*
X57999D01*
X57416Y123994D01*
Y126910D02*
X57999Y127493D01*
Y128659D01*
X57416Y129243D01*
X55083D01*
X54500Y128659D01*
Y127493D01*
X55083Y126910D01*
X57416D01*
X25001Y129900D02*
Y127567D01*
Y128734D01*
X28500D01*
Y126401D02*
X25001D01*
Y124652D01*
X25584Y124069D01*
X26751D01*
X27334Y124652D01*
Y126401D01*
X29083Y122902D02*
Y120570D01*
X28500Y119403D02*
X25001D01*
Y117654D01*
X25584Y117071D01*
X26751D01*
X27334Y117654D01*
Y119403D01*
X28500Y115904D02*
X26167D01*
X25001Y114738D01*
X26167Y113572D01*
X28500D01*
X26751D01*
Y115904D01*
X25584Y112406D02*
X25001Y111822D01*
Y110656D01*
X25584Y110073D01*
X27917D01*
X28500Y110656D01*
Y111822D01*
X27917Y112406D01*
X25584D01*
X27917Y108907D02*
X28500Y108324D01*
Y107157D01*
X27917Y106574D01*
X25584D01*
X25001Y107157D01*
Y108324D01*
X25584Y108907D01*
X26167D01*
X26751Y108324D01*
Y106574D01*
X301333Y34584D02*
X300749Y34001D01*
X299583D01*
X299000Y34584D01*
Y35167D01*
X299583Y35751D01*
X300749D01*
X301333Y36334D01*
Y36917D01*
X300749Y37500D01*
X299583D01*
X299000Y36917D01*
X304831Y37500D02*
X302499D01*
X304831Y35167D01*
Y34584D01*
X304248Y34001D01*
X303082D01*
X302499Y34584D01*
X305998D02*
X306581Y34001D01*
X307747D01*
X308330Y34584D01*
Y36917D01*
X307747Y37500D01*
X306581D01*
X305998Y36917D01*
Y34584D01*
X309497D02*
X310080Y34001D01*
X311246D01*
X311829Y34584D01*
Y36917D01*
X311246Y37500D01*
X310080D01*
X309497Y36917D01*
Y34584D01*
X149200Y87800D02*
X145701D01*
Y86051D01*
X146284Y85467D01*
X147451D01*
X148034Y86051D01*
Y87800D01*
Y86634D02*
X149200Y85467D01*
X145701Y81969D02*
Y84301D01*
X147451D01*
X146867Y83135D01*
Y82552D01*
X147451Y81969D01*
X148617D01*
X149200Y82552D01*
Y83718D01*
X148617Y84301D01*
X146284Y80802D02*
X145701Y80219D01*
Y79053D01*
X146284Y78470D01*
X148617D01*
X149200Y79053D01*
Y80219D01*
X148617Y80802D01*
X146284D01*
Y77303D02*
X145701Y76720D01*
Y75554D01*
X146284Y74971D01*
X146867D01*
X147451Y75554D01*
Y76137D01*
Y75554D01*
X148034Y74971D01*
X148617D01*
X149200Y75554D01*
Y76720D01*
X148617Y77303D01*
X208600Y88700D02*
Y92199D01*
X206851D01*
X206267Y91616D01*
Y90449D01*
X206851Y89866D01*
X208600D01*
X207434D02*
X206267Y88700D01*
X202769Y92199D02*
X205101D01*
Y90449D01*
X203935Y91033D01*
X203352D01*
X202769Y90449D01*
Y89283D01*
X203352Y88700D01*
X204518D01*
X205101Y89283D01*
X201602Y91616D02*
X201019Y92199D01*
X199853D01*
X199270Y91616D01*
Y89283D01*
X199853Y88700D01*
X201019D01*
X201602Y89283D01*
Y91616D01*
X195771Y88700D02*
X198103D01*
X195771Y91033D01*
Y91616D01*
X196354Y92199D01*
X197520D01*
X198103Y91616D01*
X203300Y129700D02*
Y133199D01*
X201551D01*
X200967Y132616D01*
Y131449D01*
X201551Y130866D01*
X203300D01*
X202134D02*
X200967Y129700D01*
X197469Y133199D02*
X199801D01*
Y131449D01*
X198635Y132033D01*
X198052D01*
X197469Y131449D01*
Y130283D01*
X198052Y129700D01*
X199218D01*
X199801Y130283D01*
X196302Y132616D02*
X195719Y133199D01*
X194553D01*
X193970Y132616D01*
Y130283D01*
X194553Y129700D01*
X195719D01*
X196302Y130283D01*
Y132616D01*
X192803Y129700D02*
X191637D01*
X192220D01*
Y133199D01*
X192803Y132616D01*
X159300Y129700D02*
Y133199D01*
X157551D01*
X156967Y132616D01*
Y131449D01*
X157551Y130866D01*
X159300D01*
X158134D02*
X156967Y129700D01*
X153469Y133199D02*
X155801D01*
Y131449D01*
X154635Y132033D01*
X154052D01*
X153469Y131449D01*
Y130283D01*
X154052Y129700D01*
X155218D01*
X155801Y130283D01*
X152302Y132616D02*
X151719Y133199D01*
X150553D01*
X149970Y132616D01*
Y130283D01*
X150553Y129700D01*
X151719D01*
X152302Y130283D01*
Y132616D01*
X148803D02*
X148220Y133199D01*
X147054D01*
X146471Y132616D01*
Y130283D01*
X147054Y129700D01*
X148220D01*
X148803Y130283D01*
Y132616D01*
X140500Y186500D02*
Y189999D01*
X138751D01*
X138167Y189416D01*
Y188249D01*
X138751Y187666D01*
X140500D01*
X139334D02*
X138167Y186500D01*
X135252D02*
Y189999D01*
X137001Y188249D01*
X134669D01*
X133502Y189416D02*
X132919Y189999D01*
X131753D01*
X131170Y189416D01*
Y187083D01*
X131753Y186500D01*
X132919D01*
X133502Y187083D01*
Y189416D01*
X130003D02*
X129420Y189999D01*
X128254D01*
X127671Y189416D01*
Y188833D01*
X128254Y188249D01*
X128837D01*
X128254D01*
X127671Y187666D01*
Y187083D01*
X128254Y186500D01*
X129420D01*
X130003Y187083D01*
X134500Y120500D02*
Y123999D01*
X132751D01*
X132167Y123416D01*
Y122249D01*
X132751Y121666D01*
X134500D01*
X133334D02*
X132167Y120500D01*
X129252D02*
Y123999D01*
X131001Y122249D01*
X128669D01*
X127502Y123416D02*
X126919Y123999D01*
X125753D01*
X125170Y123416D01*
Y121083D01*
X125753Y120500D01*
X126919D01*
X127502Y121083D01*
Y123416D01*
X121671Y120500D02*
X124003D01*
X121671Y122833D01*
Y123416D01*
X122254Y123999D01*
X123420D01*
X124003Y123416D01*
X116500Y186500D02*
Y189999D01*
X114751D01*
X114167Y189416D01*
Y188249D01*
X114751Y187666D01*
X116500D01*
X115334D02*
X114167Y186500D01*
X111252D02*
Y189999D01*
X113001Y188249D01*
X110669D01*
X109502Y189416D02*
X108919Y189999D01*
X107753D01*
X107170Y189416D01*
Y187083D01*
X107753Y186500D01*
X108919D01*
X109502Y187083D01*
Y189416D01*
X106003Y186500D02*
X104837D01*
X105420D01*
Y189999D01*
X106003Y189416D01*
X83100Y73600D02*
X86599D01*
Y75349D01*
X86016Y75933D01*
X84849D01*
X84266Y75349D01*
Y73600D01*
Y74766D02*
X83100Y75933D01*
X86016Y77099D02*
X86599Y77682D01*
Y78848D01*
X86016Y79431D01*
X85433D01*
X84849Y78848D01*
Y78265D01*
Y78848D01*
X84266Y79431D01*
X83683D01*
X83100Y78848D01*
Y77682D01*
X83683Y77099D01*
X86016Y80598D02*
X86599Y81181D01*
Y82347D01*
X86016Y82930D01*
X83683D01*
X83100Y82347D01*
Y81181D01*
X83683Y80598D01*
X86016D01*
Y84097D02*
X86599Y84680D01*
Y85846D01*
X86016Y86429D01*
X85433D01*
X84849Y85846D01*
Y85263D01*
Y85846D01*
X84266Y86429D01*
X83683D01*
X83100Y85846D01*
Y84680D01*
X83683Y84097D01*
X86000Y53500D02*
X89499D01*
Y55249D01*
X88916Y55833D01*
X87749D01*
X87166Y55249D01*
Y53500D01*
Y54666D02*
X86000Y55833D01*
X88916Y56999D02*
X89499Y57582D01*
Y58748D01*
X88916Y59331D01*
X88333D01*
X87749Y58748D01*
Y58165D01*
Y58748D01*
X87166Y59331D01*
X86583D01*
X86000Y58748D01*
Y57582D01*
X86583Y56999D01*
X88916Y60498D02*
X89499Y61081D01*
Y62247D01*
X88916Y62830D01*
X86583D01*
X86000Y62247D01*
Y61081D01*
X86583Y60498D01*
X88916D01*
X86000Y66329D02*
Y63997D01*
X88333Y66329D01*
X88916D01*
X89499Y65746D01*
Y64580D01*
X88916Y63997D01*
X85500Y104000D02*
X82001D01*
Y102251D01*
X82584Y101667D01*
X83751D01*
X84334Y102251D01*
Y104000D01*
Y102834D02*
X85500Y101667D01*
X82584Y100501D02*
X82001Y99918D01*
Y98752D01*
X82584Y98169D01*
X83167D01*
X83751Y98752D01*
Y99335D01*
Y98752D01*
X84334Y98169D01*
X84917D01*
X85500Y98752D01*
Y99918D01*
X84917Y100501D01*
X82584Y97002D02*
X82001Y96419D01*
Y95253D01*
X82584Y94670D01*
X84917D01*
X85500Y95253D01*
Y96419D01*
X84917Y97002D01*
X82584D01*
X85500Y93503D02*
Y92337D01*
Y92920D01*
X82001D01*
X82584Y93503D01*
X98800Y82400D02*
X95301D01*
Y80651D01*
X95884Y80067D01*
X97051D01*
X97634Y80651D01*
Y82400D01*
Y81234D02*
X98800Y80067D01*
X95884Y78901D02*
X95301Y78318D01*
Y77152D01*
X95884Y76569D01*
X96467D01*
X97051Y77152D01*
Y77735D01*
Y77152D01*
X97634Y76569D01*
X98217D01*
X98800Y77152D01*
Y78318D01*
X98217Y78901D01*
X95884Y75402D02*
X95301Y74819D01*
Y73653D01*
X95884Y73070D01*
X98217D01*
X98800Y73653D01*
Y74819D01*
X98217Y75402D01*
X95884D01*
Y71903D02*
X95301Y71320D01*
Y70154D01*
X95884Y69571D01*
X98217D01*
X98800Y70154D01*
Y71320D01*
X98217Y71903D01*
X95884D01*
X175427Y67343D02*
Y69676D01*
X176010Y70259D01*
X177177D01*
X177760Y69676D01*
Y67343D01*
X177177Y66760D01*
X176010D01*
X176594Y67926D02*
X175427Y66760D01*
X176010D02*
X175427Y67343D01*
X171928Y70259D02*
X174261D01*
Y68509D01*
X173095Y69092D01*
X172512D01*
X171928Y68509D01*
Y67343D01*
X172512Y66760D01*
X173678D01*
X174261Y67343D01*
X170762Y69676D02*
X170179Y70259D01*
X169013D01*
X168430Y69676D01*
Y67343D01*
X169013Y66760D01*
X170179D01*
X170762Y67343D01*
Y69676D01*
X167263D02*
X166680Y70259D01*
X165514D01*
X164931Y69676D01*
Y69092D01*
X165514Y68509D01*
X166097D01*
X165514D01*
X164931Y67926D01*
Y67343D01*
X165514Y66760D01*
X166680D01*
X167263Y67343D01*
X190427D02*
Y69676D01*
X191010Y70259D01*
X192177D01*
X192760Y69676D01*
Y67343D01*
X192177Y66760D01*
X191010D01*
X191594Y67926D02*
X190427Y66760D01*
X191010D02*
X190427Y67343D01*
X186928Y70259D02*
X189261D01*
Y68509D01*
X188095Y69092D01*
X187512D01*
X186928Y68509D01*
Y67343D01*
X187512Y66760D01*
X188678D01*
X189261Y67343D01*
X185762Y69676D02*
X185179Y70259D01*
X184013D01*
X183430Y69676D01*
Y67343D01*
X184013Y66760D01*
X185179D01*
X185762Y67343D01*
Y69676D01*
X179931Y66760D02*
X182263D01*
X179931Y69092D01*
Y69676D01*
X180514Y70259D01*
X181680D01*
X182263Y69676D01*
X190167Y149083D02*
Y151416D01*
X190751Y151999D01*
X191917D01*
X192500Y151416D01*
Y149083D01*
X191917Y148500D01*
X190751D01*
X191334Y149666D02*
X190167Y148500D01*
X190751D02*
X190167Y149083D01*
X186669Y151999D02*
X189001D01*
Y150249D01*
X187835Y150833D01*
X187252D01*
X186669Y150249D01*
Y149083D01*
X187252Y148500D01*
X188418D01*
X189001Y149083D01*
X185502Y151416D02*
X184919Y151999D01*
X183753D01*
X183170Y151416D01*
Y149083D01*
X183753Y148500D01*
X184919D01*
X185502Y149083D01*
Y151416D01*
X182003Y148500D02*
X180837D01*
X181420D01*
Y151999D01*
X182003Y151416D01*
X174167Y148083D02*
Y150416D01*
X174751Y150999D01*
X175917D01*
X176500Y150416D01*
Y148083D01*
X175917Y147500D01*
X174751D01*
X175334Y148666D02*
X174167Y147500D01*
X174751D02*
X174167Y148083D01*
X170669Y150999D02*
X173001D01*
Y149249D01*
X171835Y149833D01*
X171252D01*
X170669Y149249D01*
Y148083D01*
X171252Y147500D01*
X172418D01*
X173001Y148083D01*
X169502Y150416D02*
X168919Y150999D01*
X167753D01*
X167170Y150416D01*
Y148083D01*
X167753Y147500D01*
X168919D01*
X169502Y148083D01*
Y150416D01*
X166003D02*
X165420Y150999D01*
X164254D01*
X163671Y150416D01*
Y148083D01*
X164254Y147500D01*
X165420D01*
X166003Y148083D01*
Y150416D01*
X323417Y60667D02*
X321084D01*
X320501Y61251D01*
Y62417D01*
X321084Y63000D01*
X323417D01*
X324000Y62417D01*
Y61251D01*
X322834Y61834D02*
X324000Y60667D01*
Y61251D02*
X323417Y60667D01*
X324000Y57169D02*
Y59501D01*
X321667Y57169D01*
X321084D01*
X320501Y57752D01*
Y58918D01*
X321084Y59501D01*
Y56002D02*
X320501Y55419D01*
Y54253D01*
X321084Y53670D01*
X323417D01*
X324000Y54253D01*
Y55419D01*
X323417Y56002D01*
X321084D01*
Y52503D02*
X320501Y51920D01*
Y50754D01*
X321084Y50171D01*
X323417D01*
X324000Y50754D01*
Y51920D01*
X323417Y52503D01*
X321084D01*
X277167Y194499D02*
X278334D01*
X277751D01*
Y191583D01*
X278334Y191000D01*
X278917D01*
X279500Y191583D01*
X273669Y191000D02*
X276001D01*
X273669Y193333D01*
Y193916D01*
X274252Y194499D01*
X275418D01*
X276001Y193916D01*
X272502D02*
X271919Y194499D01*
X270753D01*
X270170Y193916D01*
Y191583D01*
X270753Y191000D01*
X271919D01*
X272502Y191583D01*
Y193916D01*
X269003D02*
X268420Y194499D01*
X267254D01*
X266671Y193916D01*
Y191583D01*
X267254Y191000D01*
X268420D01*
X269003Y191583D01*
Y193916D01*
X14699Y29533D02*
Y27200D01*
X12949D01*
Y28366D01*
Y27200D01*
X11200D01*
X14699Y30699D02*
X11200D01*
Y32448D01*
X11783Y33031D01*
X12366D01*
X12949Y32448D01*
Y30699D01*
Y32448D01*
X13533Y33031D01*
X14116D01*
X14699Y32448D01*
Y30699D01*
X14116Y34198D02*
X14699Y34781D01*
Y35947D01*
X14116Y36530D01*
X13533D01*
X12949Y35947D01*
Y35364D01*
Y35947D01*
X12366Y36530D01*
X11783D01*
X11200Y35947D01*
Y34781D01*
X11783Y34198D01*
X14116Y37697D02*
X14699Y38280D01*
Y39446D01*
X14116Y40029D01*
X11783D01*
X11200Y39446D01*
Y38280D01*
X11783Y37697D01*
X14116D01*
Y41195D02*
X14699Y41779D01*
Y42945D01*
X14116Y43528D01*
X11783D01*
X11200Y42945D01*
Y41779D01*
X11783Y41195D01*
X14116D01*
X11984Y56214D02*
X11401Y56797D01*
Y57963D01*
X11984Y58547D01*
X14317D01*
X14900Y57963D01*
Y56797D01*
X14317Y56214D01*
X11984Y55048D02*
X11401Y54464D01*
Y53298D01*
X11984Y52715D01*
X12567D01*
X13151Y53298D01*
Y53881D01*
Y53298D01*
X13734Y52715D01*
X14317D01*
X14900Y53298D01*
Y54464D01*
X14317Y55048D01*
X11984Y51549D02*
X11401Y50966D01*
Y49799D01*
X11984Y49216D01*
X14317D01*
X14900Y49799D01*
Y50966D01*
X14317Y51549D01*
X11984D01*
X11401Y45717D02*
X11984Y46884D01*
X13151Y48050D01*
X14317D01*
X14900Y47467D01*
Y46300D01*
X14317Y45717D01*
X13734D01*
X13151Y46300D01*
Y48050D01*
X36667Y24416D02*
X37251Y24999D01*
X38417D01*
X39000Y24416D01*
Y22083D01*
X38417Y21500D01*
X37251D01*
X36667Y22083D01*
X35501Y24416D02*
X34918Y24999D01*
X33752D01*
X33169Y24416D01*
Y23833D01*
X33752Y23249D01*
X34335D01*
X33752D01*
X33169Y22666D01*
Y22083D01*
X33752Y21500D01*
X34918D01*
X35501Y22083D01*
X32002Y24416D02*
X31419Y24999D01*
X30253D01*
X29670Y24416D01*
Y22083D01*
X30253Y21500D01*
X31419D01*
X32002Y22083D01*
Y24416D01*
X26171Y24999D02*
X28503D01*
Y23249D01*
X27337Y23833D01*
X26754D01*
X26171Y23249D01*
Y22083D01*
X26754Y21500D01*
X27920D01*
X28503Y22083D01*
X61584Y54167D02*
X61001Y54751D01*
Y55917D01*
X61584Y56500D01*
X63917D01*
X64500Y55917D01*
Y54751D01*
X63917Y54167D01*
X61584Y53001D02*
X61001Y52418D01*
Y51252D01*
X61584Y50669D01*
X62167D01*
X62751Y51252D01*
Y51835D01*
Y51252D01*
X63334Y50669D01*
X63917D01*
X64500Y51252D01*
Y52418D01*
X63917Y53001D01*
X61584Y49502D02*
X61001Y48919D01*
Y47753D01*
X61584Y47170D01*
X63917D01*
X64500Y47753D01*
Y48919D01*
X63917Y49502D01*
X61584D01*
X64500Y44254D02*
X61001D01*
X62751Y46003D01*
Y43671D01*
X74916Y36667D02*
X75499Y37251D01*
Y38417D01*
X74916Y39000D01*
X72583D01*
X72000Y38417D01*
Y37251D01*
X72583Y36667D01*
X74916Y35501D02*
X75499Y34918D01*
Y33752D01*
X74916Y33169D01*
X74333D01*
X73749Y33752D01*
Y34335D01*
Y33752D01*
X73166Y33169D01*
X72583D01*
X72000Y33752D01*
Y34918D01*
X72583Y35501D01*
X74916Y32002D02*
X75499Y31419D01*
Y30253D01*
X74916Y29670D01*
X72583D01*
X72000Y30253D01*
Y31419D01*
X72583Y32002D01*
X74916D01*
Y28503D02*
X75499Y27920D01*
Y26754D01*
X74916Y26171D01*
X74333D01*
X73749Y26754D01*
Y27337D01*
Y26754D01*
X73166Y26171D01*
X72583D01*
X72000Y26754D01*
Y27920D01*
X72583Y28503D01*
X66916Y64333D02*
X67499Y63749D01*
Y62583D01*
X66916Y62000D01*
X64583D01*
X64000Y62583D01*
Y63749D01*
X64583Y64333D01*
X66916Y65499D02*
X67499Y66082D01*
Y67248D01*
X66916Y67831D01*
X66333D01*
X65749Y67248D01*
Y66665D01*
Y67248D01*
X65166Y67831D01*
X64583D01*
X64000Y67248D01*
Y66082D01*
X64583Y65499D01*
X66916Y68998D02*
X67499Y69581D01*
Y70747D01*
X66916Y71330D01*
X64583D01*
X64000Y70747D01*
Y69581D01*
X64583Y68998D01*
X66916D01*
X64000Y74829D02*
Y72497D01*
X66333Y74829D01*
X66916D01*
X67499Y74246D01*
Y73080D01*
X66916Y72497D01*
X29484Y53267D02*
X28901Y53851D01*
Y55017D01*
X29484Y55600D01*
X31817D01*
X32400Y55017D01*
Y53851D01*
X31817Y53267D01*
X29484Y52101D02*
X28901Y51518D01*
Y50352D01*
X29484Y49768D01*
X30067D01*
X30651Y50352D01*
Y50935D01*
Y50352D01*
X31234Y49768D01*
X31817D01*
X32400Y50352D01*
Y51518D01*
X31817Y52101D01*
X29484Y48602D02*
X28901Y48019D01*
Y46853D01*
X29484Y46270D01*
X31817D01*
X32400Y46853D01*
Y48019D01*
X31817Y48602D01*
X29484D01*
X32400Y45103D02*
Y43937D01*
Y44520D01*
X28901D01*
X29484Y45103D01*
X99284Y64167D02*
X98701Y64751D01*
Y65917D01*
X99284Y66500D01*
X101617D01*
X102200Y65917D01*
Y64751D01*
X101617Y64167D01*
X99284Y63001D02*
X98701Y62418D01*
Y61252D01*
X99284Y60669D01*
X99867D01*
X100451Y61252D01*
Y61835D01*
Y61252D01*
X101034Y60669D01*
X101617D01*
X102200Y61252D01*
Y62418D01*
X101617Y63001D01*
X99284Y59502D02*
X98701Y58919D01*
Y57753D01*
X99284Y57170D01*
X101617D01*
X102200Y57753D01*
Y58919D01*
X101617Y59502D01*
X99284D01*
Y56003D02*
X98701Y55420D01*
Y54254D01*
X99284Y53671D01*
X101617D01*
X102200Y54254D01*
Y55420D01*
X101617Y56003D01*
X99284D01*
X10000Y144000D02*
X13499D01*
Y145749D01*
X12916Y146333D01*
X11749D01*
X11166Y145749D01*
Y144000D01*
Y145166D02*
X10000Y146333D01*
X13499Y149831D02*
X12916Y148665D01*
X11749Y147499D01*
X10583D01*
X10000Y148082D01*
Y149248D01*
X10583Y149831D01*
X11166D01*
X11749Y149248D01*
Y147499D01*
X12916Y150998D02*
X13499Y151581D01*
Y152747D01*
X12916Y153330D01*
X10583D01*
X10000Y152747D01*
Y151581D01*
X10583Y150998D01*
X12916D01*
Y154497D02*
X13499Y155080D01*
Y156246D01*
X12916Y156829D01*
X10583D01*
X10000Y156246D01*
Y155080D01*
X10583Y154497D01*
X12916D01*
X72500Y166500D02*
X75999D01*
Y168249D01*
X75416Y168833D01*
X74249D01*
X73666Y168249D01*
Y166500D01*
X75999Y169999D02*
Y172331D01*
X75416D01*
X73083Y169999D01*
X72500D01*
Y172331D01*
X75999Y175830D02*
X75416Y174664D01*
X74249Y173498D01*
X73083D01*
X72500Y174081D01*
Y175247D01*
X73083Y175830D01*
X73666D01*
X74249Y175247D01*
Y173498D01*
X75416Y176997D02*
X75999Y177580D01*
Y178746D01*
X75416Y179329D01*
X73083D01*
X72500Y178746D01*
Y177580D01*
X73083Y176997D01*
X75416D01*
Y180496D02*
X75999Y181079D01*
Y182245D01*
X75416Y182828D01*
X73083D01*
X72500Y182245D01*
Y181079D01*
X73083Y180496D01*
X75416D01*
X102499Y183500D02*
X99000D01*
Y185249D01*
X99583Y185833D01*
X101916D01*
X102499Y185249D01*
Y183500D01*
Y189331D02*
X101916Y188165D01*
X100749Y186999D01*
X99583D01*
X99000Y187582D01*
Y188748D01*
X99583Y189331D01*
X100166D01*
X100749Y188748D01*
Y186999D01*
X101916Y190498D02*
X102499Y191081D01*
Y192247D01*
X101916Y192830D01*
X99583D01*
X99000Y192247D01*
Y191081D01*
X99583Y190498D01*
X101916D01*
Y193997D02*
X102499Y194580D01*
Y195746D01*
X101916Y196329D01*
X99583D01*
X99000Y195746D01*
Y194580D01*
X99583Y193997D01*
X101916D01*
X93999Y128500D02*
Y129666D01*
Y129083D01*
X90500D01*
Y128500D01*
Y129666D01*
Y133748D02*
Y131416D01*
X92833Y133748D01*
X93416D01*
X93999Y133165D01*
Y131999D01*
X93416Y131416D01*
Y137247D02*
X93999Y136664D01*
Y135498D01*
X93416Y134915D01*
X91083D01*
X90500Y135498D01*
Y136664D01*
X91083Y137247D01*
X90500Y138414D02*
Y139580D01*
Y138997D01*
X93999D01*
X93416Y138414D01*
X89917Y141329D02*
Y143662D01*
X93416Y147161D02*
X93999Y146578D01*
Y145411D01*
X93416Y144828D01*
X92833D01*
X92249Y145411D01*
Y146578D01*
X91666Y147161D01*
X91083D01*
X90500Y146578D01*
Y145411D01*
X91083Y144828D01*
X93999Y148327D02*
X90500D01*
Y150076D01*
X91083Y150660D01*
X93416D01*
X93999Y150076D01*
Y148327D01*
X90500Y151826D02*
X92833D01*
X93999Y152992D01*
X92833Y154158D01*
X90500D01*
X92249D01*
Y151826D01*
X80999Y128000D02*
Y129166D01*
Y128583D01*
X77500D01*
Y128000D01*
Y129166D01*
Y133248D02*
Y130916D01*
X79833Y133248D01*
X80416D01*
X80999Y132665D01*
Y131499D01*
X80416Y130916D01*
Y136747D02*
X80999Y136164D01*
Y134998D01*
X80416Y134415D01*
X78083D01*
X77500Y134998D01*
Y136164D01*
X78083Y136747D01*
X77500Y137914D02*
Y139080D01*
Y138497D01*
X80999D01*
X80416Y137914D01*
X76917Y140829D02*
Y143162D01*
X80416Y146661D02*
X80999Y146078D01*
Y144911D01*
X80416Y144328D01*
X79833D01*
X79249Y144911D01*
Y146078D01*
X78666Y146661D01*
X78083D01*
X77500Y146078D01*
Y144911D01*
X78083Y144328D01*
X80416Y150160D02*
X80999Y149576D01*
Y148410D01*
X80416Y147827D01*
X78083D01*
X77500Y148410D01*
Y149576D01*
X78083Y150160D01*
X80999Y151326D02*
X77500D01*
Y153658D01*
X80999Y154825D02*
X77500D01*
X78666D01*
X80999Y157157D01*
X79249Y155408D01*
X77500Y157157D01*
X329900Y10516D02*
X329317Y11099D01*
X328151D01*
X327567Y10516D01*
Y9933D01*
X328151Y9349D01*
X328734D01*
X328151D01*
X327567Y8766D01*
Y8183D01*
X328151Y7600D01*
X329317D01*
X329900Y8183D01*
X326401Y11099D02*
Y8766D01*
X325235Y7600D01*
X324069Y8766D01*
Y11099D01*
X322902Y7017D02*
X320570D01*
X319403Y11099D02*
Y8766D01*
X318237Y7600D01*
X317071Y8766D01*
Y11099D01*
X313572Y10516D02*
X314155Y11099D01*
X315321D01*
X315904Y10516D01*
Y8183D01*
X315321Y7600D01*
X314155D01*
X313572Y8183D01*
X310073Y10516D02*
X310656Y11099D01*
X311823D01*
X312406Y10516D01*
Y8183D01*
X311823Y7600D01*
X310656D01*
X310073Y8183D01*
X304300Y10716D02*
X303717Y11299D01*
X302551D01*
X301967Y10716D01*
Y10133D01*
X302551Y9549D01*
X303134D01*
X302551D01*
X301967Y8966D01*
Y8383D01*
X302551Y7800D01*
X303717D01*
X304300Y8383D01*
X300801Y7800D02*
Y8383D01*
X300218D01*
Y7800D01*
X300801D01*
X297885Y10716D02*
X297302Y11299D01*
X296136D01*
X295553Y10716D01*
Y10133D01*
X296136Y9549D01*
X296719D01*
X296136D01*
X295553Y8966D01*
Y8383D01*
X296136Y7800D01*
X297302D01*
X297885Y8383D01*
X294387Y11299D02*
Y8966D01*
X293220Y7800D01*
X292054Y8966D01*
Y11299D01*
X290888Y7217D02*
X288555D01*
X287389Y7800D02*
Y11299D01*
X285639D01*
X285056Y10716D01*
Y9549D01*
X285639Y8966D01*
X287389D01*
X283890Y7800D02*
Y11299D01*
X282140D01*
X281557Y10716D01*
Y9549D01*
X282140Y8966D01*
X283890D01*
X282724D02*
X281557Y7800D01*
X278059Y10716D02*
X278642Y11299D01*
X279808D01*
X280391Y10716D01*
Y8383D01*
X279808Y7800D01*
X278642D01*
X278059Y8383D01*
Y9549D01*
X279225D01*
D41*
X54449Y76732D02*
G03*
X54449Y76732I-1181J0D01*
G01*
D43*
X112000Y29638D02*
Y34362D01*
X121638Y15000D02*
X126362D01*
X179638D02*
X184362D01*
X194000Y157638D02*
Y162362D01*
X162638Y156000D02*
X167362D01*
X150638Y157000D02*
X155362D01*
X149969Y29638D02*
Y34362D01*
X243638Y100031D02*
X248362D01*
X232638Y106000D02*
X237362D01*
X32795Y72795D02*
X57205D01*
X32795Y97205D02*
X57205D01*
Y72795D02*
Y97205D01*
X32795Y72795D02*
Y97205D01*
X77438Y80000D02*
X82162D01*
X79138Y60000D02*
X83862D01*
X87638Y92000D02*
X92362D01*
X87638Y76000D02*
X92362D01*
X9638Y136000D02*
X14362D01*
X197638Y120000D02*
X202362D01*
X153638D02*
X158362D01*
X110000Y177638D02*
Y182362D01*
X134000Y177638D02*
Y182362D01*
X128000Y111638D02*
Y116362D01*
X151638Y80000D02*
X156362D01*
X199638D02*
X204362D01*
D65*
X61732Y65315D02*
G03*
X61732Y65315I-984J0D01*
G01*
D66*
X179817Y62461D02*
G03*
X179817Y62461I-250J0D01*
G01*
X164817D02*
G03*
X164817Y62461I-250J0D01*
G01*
X163557Y143201D02*
G03*
X163557Y143201I-250J0D01*
G01*
X179557Y144201D02*
G03*
X179557Y144201I-250J0D01*
G01*
X341451Y71693D02*
G03*
X341451Y71693I-250J0D01*
G01*
X191969Y53504D02*
Y55472D01*
X180551Y53504D02*
Y55472D01*
Y53504D02*
X183504D01*
X189016D02*
X191969D01*
X176969D02*
Y55472D01*
X165551Y53504D02*
Y55472D01*
Y53504D02*
X168504D01*
X174016D02*
X176969D01*
X175709Y134244D02*
Y136213D01*
X164291Y134244D02*
Y136213D01*
Y134244D02*
X167244D01*
X172756D02*
X175709D01*
X191709Y135244D02*
Y137213D01*
X180291Y135244D02*
Y137213D01*
Y135244D02*
X183244D01*
X188756D02*
X191709D01*
X332244Y59291D02*
X334213D01*
X332244Y70709D02*
X334213D01*
X332244Y67756D02*
Y70709D01*
Y59291D02*
Y62244D01*
D67*
X77803Y186063D02*
Y187638D01*
Y186063D02*
X92764D01*
Y187638D01*
Y192362D02*
Y193937D01*
X77803D02*
X92764D01*
X77803Y192362D02*
Y193937D01*
X87646Y186063D02*
Y193937D01*
D68*
X344101Y60200D02*
X346100D01*
Y59200D01*
X345767Y58867D01*
X345434D01*
X345100Y59200D01*
Y60200D01*
Y59200D01*
X344767Y58867D01*
X344434D01*
X344101Y59200D01*
Y60200D01*
X346100Y58201D02*
X344767D01*
X344101Y57534D01*
X344767Y56868D01*
X346100D01*
X345100D01*
Y58201D01*
X344101Y56201D02*
Y54868D01*
Y55535D01*
X346100D01*
X344101Y54202D02*
Y52869D01*
Y53535D01*
X346100D01*
X346433Y52203D02*
Y50870D01*
X346100Y50203D02*
X344101D01*
X346100Y48870D01*
X344101D01*
Y46871D02*
Y48204D01*
X346100D01*
Y46871D01*
X345100Y48204D02*
Y47537D01*
X344434Y44872D02*
X344101Y45205D01*
Y45871D01*
X344434Y46205D01*
X345767D01*
X346100Y45871D01*
Y45205D01*
X345767Y44872D01*
X345100D01*
Y45538D01*
X344234Y36567D02*
X343901Y36900D01*
Y37567D01*
X344234Y37900D01*
X345567D01*
X345900Y37567D01*
Y36900D01*
X345567Y36567D01*
X344900D01*
Y37234D01*
X345900Y35901D02*
X343901D01*
X345900Y34568D01*
X343901D01*
Y33901D02*
X345900D01*
Y32902D01*
X345567Y32568D01*
X344234D01*
X343901Y32902D01*
Y33901D01*
X344334Y25500D02*
X344001Y25167D01*
Y24500D01*
X344334Y24167D01*
X344667D01*
X345000Y24500D01*
Y24834D01*
Y24500D01*
X345334Y24167D01*
X345667D01*
X346000Y24500D01*
Y25167D01*
X345667Y25500D01*
X344001Y23501D02*
X345334D01*
X346000Y22834D01*
X345334Y22168D01*
X344001D01*
X346333Y21501D02*
Y20168D01*
X344001Y19502D02*
X346000D01*
Y18502D01*
X345667Y18169D01*
X345334D01*
X345000Y18502D01*
Y19502D01*
Y18502D01*
X344667Y18169D01*
X344334D01*
X344001Y18502D01*
Y19502D01*
X346000Y17503D02*
X344667D01*
X344001Y16836D01*
X344667Y16170D01*
X346000D01*
X345000D01*
Y17503D01*
X344001Y15503D02*
Y14170D01*
Y14837D01*
X346000D01*
X344001Y13504D02*
Y12171D01*
Y12837D01*
X346000D01*
M02*
