M48
;Layer_Color=9474304
;FILE_FORMAT=2:5
INCH,LZ
;TYPE=PLATED
T1F00S00C0.01500
T2F00S00C0.03543
%
T01
X0046Y0024
X0042Y0032
X0038Y0038
X0026Y0048
X006Y0034
X0064Y0038
X007
X0068Y0024
X0103275Y0046
X0112Y0042
X0146Y005
X016Y0052
X0182Y0046
X0196Y0052
X019Y001
X0168Y0032
X0133Y0011
X0216Y0032
X0324Y0038
Y0066
X0344
Y0062
X0236Y0094
Y0116
X0246Y011
X0222Y0112
X0216Y0108
X0254Y0166
X021Y0156
X019Y0152
X0174
X017Y0147
X0178Y013
X0186Y0128
X02Y013
X021Y0102
X0202Y007
X019Y0068
X0176
X0154Y007
X0148Y0088
Y0096
X01485Y01051
X0144Y0108
X01281Y00986
X0122Y0102
X0124Y0092
X0116
X0108Y0096
X0103275Y0095275
X0108Y0086
X0096
X01Y008
X0096Y007
X007Y0074
X0068Y008
Y0088
X00734Y00861
X0074Y0092
X007Y0096
Y0102
X0068Y0106
X006Y0114
X0058Y0134
X01
Y0128
X0104
X0108Y0118
X0118Y0114
X0112Y0106
X01Y011
X0084Y0118
X008Y0098
X0064Y006
Y019
X012Y0166
X0147Y0154
X0159043Y0162
X0165Y0173
X0181Y017
X0156Y013
X0034Y0136
X0018Y0138
X0022Y017
X0028Y0108
X0042Y0062
X0054Y006
X001Y0062
T02
X027Y0025
X028
X0281Y0035
X0271
X027Y0045
X028
X0281Y0055
X0271
X027Y0065
X028
M30
