G04 Layer_Color=65535*
%FSLAX25Y25*%
%MOIN*%
G70*
G01*
G75*
%ADD14C,0.01000*%
%ADD19C,0.00600*%
%ADD41C,0.02362*%
%ADD42C,0.00984*%
%ADD43C,0.00787*%
G36*
X289700Y21000D02*
X285500Y24500D01*
X289700Y28000D01*
Y21000D01*
D02*
G37*
D14*
X11000Y189194D02*
Y195192D01*
X12999Y193193D01*
X14999Y195192D01*
Y189194D01*
X17998Y193193D02*
X19997D01*
X20997Y192193D01*
Y189194D01*
X17998D01*
X16998Y190194D01*
X17998Y191193D01*
X20997D01*
X22996Y193193D02*
Y189194D01*
Y191193D01*
X23996Y192193D01*
X24995Y193193D01*
X25995D01*
X28994Y189194D02*
X31993D01*
X32993Y190194D01*
X31993Y191193D01*
X29994D01*
X28994Y192193D01*
X29994Y193193D01*
X32993D01*
X34992Y195192D02*
Y189194D01*
Y192193D01*
X35992Y193193D01*
X37991D01*
X38991Y192193D01*
Y189194D01*
X41990Y193193D02*
X43989D01*
X44989Y192193D01*
Y189194D01*
X41990D01*
X40990Y190194D01*
X41990Y191193D01*
X44989D01*
X46988Y189194D02*
X48988D01*
X47988D01*
Y195192D01*
X46988D01*
X51987Y189194D02*
X53986D01*
X52986D01*
Y195192D01*
X51987D01*
X62983D02*
Y189194D01*
X66982D01*
X69981Y193193D02*
X71980D01*
X72980Y192193D01*
Y189194D01*
X69981D01*
X68981Y190194D01*
X69981Y191193D01*
X72980D01*
X74979Y189194D02*
Y193193D01*
X77978D01*
X78978Y192193D01*
Y189194D01*
X82977Y187195D02*
X83976D01*
X84976Y188194D01*
Y193193D01*
X81977D01*
X80977Y192193D01*
Y190194D01*
X81977Y189194D01*
X84976D01*
X11000Y183595D02*
Y178597D01*
X12000Y177597D01*
X13999D01*
X14999Y178597D01*
Y183595D01*
X16998D02*
Y177597D01*
X18997Y179596D01*
X20997Y177597D01*
Y183595D01*
X28994Y177597D02*
Y183595D01*
X30994Y181596D01*
X32993Y183595D01*
Y177597D01*
X35992Y181596D02*
X37991D01*
X38991Y180596D01*
Y177597D01*
X35992D01*
X34992Y178597D01*
X35992Y179596D01*
X38991D01*
X44989Y183595D02*
Y177597D01*
X41990D01*
X40990Y178597D01*
Y180596D01*
X41990Y181596D01*
X44989D01*
X46988Y177597D02*
X48988D01*
X47988D01*
Y181596D01*
X46988D01*
X51987Y177597D02*
X54986D01*
X55985Y178597D01*
X54986Y179596D01*
X52986D01*
X51987Y180596D01*
X52986Y181596D01*
X55985D01*
X58985Y177597D02*
X60984D01*
X61984Y178597D01*
Y180596D01*
X60984Y181596D01*
X58985D01*
X57985Y180596D01*
Y178597D01*
X58985Y177597D01*
X63983D02*
Y181596D01*
X66982D01*
X67982Y180596D01*
Y177597D01*
X14999Y172998D02*
X13999Y173997D01*
X12000D01*
X11000Y172998D01*
Y168999D01*
X12000Y167999D01*
X13999D01*
X14999Y168999D01*
X17998Y167999D02*
X19997D01*
X20997Y168999D01*
Y170998D01*
X19997Y171998D01*
X17998D01*
X16998Y170998D01*
Y168999D01*
X17998Y167999D01*
X22996D02*
Y171998D01*
X23996D01*
X24995Y170998D01*
Y167999D01*
Y170998D01*
X25995Y171998D01*
X26995Y170998D01*
Y167999D01*
X28994Y166000D02*
Y171998D01*
X31993D01*
X32993Y170998D01*
Y168999D01*
X31993Y167999D01*
X28994D01*
X34992Y171998D02*
Y168999D01*
X35992Y167999D01*
X38991D01*
Y171998D01*
X41990Y172998D02*
Y171998D01*
X40990D01*
X42990D01*
X41990D01*
Y168999D01*
X42990Y167999D01*
X48988D02*
X46988D01*
X45989Y168999D01*
Y170998D01*
X46988Y171998D01*
X48988D01*
X49987Y170998D01*
Y169999D01*
X45989D01*
X51987Y171998D02*
Y167999D01*
Y169999D01*
X52986Y170998D01*
X53986Y171998D01*
X54986D01*
X67982Y173997D02*
X63983D01*
Y167999D01*
X67982D01*
X63983Y170998D02*
X65982D01*
X69981Y167999D02*
Y171998D01*
X72980D01*
X73980Y170998D01*
Y167999D01*
X77978Y166000D02*
X78978D01*
X79978Y167000D01*
Y171998D01*
X76979D01*
X75979Y170998D01*
Y168999D01*
X76979Y167999D01*
X79978D01*
X81977D02*
X83976D01*
X82977D01*
Y171998D01*
X81977D01*
X86975Y167999D02*
Y171998D01*
X89974D01*
X90974Y170998D01*
Y167999D01*
X95973D02*
X93973D01*
X92974Y168999D01*
Y170998D01*
X93973Y171998D01*
X95973D01*
X96972Y170998D01*
Y169999D01*
X92974D01*
X101971Y167999D02*
X99971D01*
X98971Y168999D01*
Y170998D01*
X99971Y171998D01*
X101971D01*
X102970Y170998D01*
Y169999D01*
X98971D01*
X104970Y171998D02*
Y167999D01*
Y169999D01*
X105969Y170998D01*
X106969Y171998D01*
X107969D01*
X110968Y167999D02*
X112967D01*
X111967D01*
Y171998D01*
X110968D01*
X115966Y167999D02*
Y171998D01*
X118965D01*
X119965Y170998D01*
Y167999D01*
X123963Y166000D02*
X124963D01*
X125963Y167000D01*
Y171998D01*
X122964D01*
X121964Y170998D01*
Y168999D01*
X122964Y167999D01*
X125963D01*
X0Y0D02*
X353000D01*
X0D02*
Y203000D01*
X353000D01*
Y0D02*
Y203000D01*
D19*
X271333Y77499D02*
X270166D01*
X270749D01*
Y74583D01*
X270166Y74000D01*
X269583D01*
X269000Y74583D01*
X274831Y74000D02*
X272499D01*
X274831Y76333D01*
Y76916D01*
X274248Y77499D01*
X273082D01*
X272499Y76916D01*
X275998D02*
X276581Y77499D01*
X277747D01*
X278330Y76916D01*
Y74583D01*
X277747Y74000D01*
X276581D01*
X275998Y74583D01*
Y76916D01*
X279497Y74000D02*
X280663D01*
X280080D01*
Y77499D01*
X279497Y76916D01*
X149500Y130499D02*
Y127583D01*
X150083Y127000D01*
X151249D01*
X151833Y127583D01*
Y130499D01*
X154748Y127000D02*
Y130499D01*
X152999Y128749D01*
X155331D01*
X156498Y129916D02*
X157081Y130499D01*
X158247D01*
X158830Y129916D01*
Y127583D01*
X158247Y127000D01*
X157081D01*
X156498Y127583D01*
Y129916D01*
X159997D02*
X160580Y130499D01*
X161746D01*
X162329Y129916D01*
Y127583D01*
X161746Y127000D01*
X160580D01*
X159997Y127583D01*
Y129916D01*
X166449Y147181D02*
X162950D01*
Y145432D01*
X163533Y144849D01*
X165866D01*
X166449Y145432D01*
Y147181D01*
Y141350D02*
Y143682D01*
X164699D01*
X165283Y142516D01*
Y141933D01*
X164699Y141350D01*
X163533D01*
X162950Y141933D01*
Y143099D01*
X163533Y143682D01*
X165866Y140183D02*
X166449Y139600D01*
Y138434D01*
X165866Y137851D01*
X163533D01*
X162950Y138434D01*
Y139600D01*
X163533Y140183D01*
X165866D01*
Y136685D02*
X166449Y136101D01*
Y134935D01*
X165866Y134352D01*
X163533D01*
X162950Y134935D01*
Y136101D01*
X163533Y136685D01*
X165866D01*
X197499Y66000D02*
X194000D01*
Y64251D01*
X194583Y63667D01*
X196916D01*
X197499Y64251D01*
Y66000D01*
Y60169D02*
Y62501D01*
X195749D01*
X196333Y61335D01*
Y60752D01*
X195749Y60169D01*
X194583D01*
X194000Y60752D01*
Y61918D01*
X194583Y62501D01*
X196916Y59002D02*
X197499Y58419D01*
Y57253D01*
X196916Y56670D01*
X194583D01*
X194000Y57253D01*
Y58419D01*
X194583Y59002D01*
X196916D01*
X194000Y53171D02*
Y55503D01*
X196333Y53171D01*
X196916D01*
X197499Y53754D01*
Y54920D01*
X196916Y55503D01*
X194499Y146000D02*
X191000D01*
Y144251D01*
X191583Y143667D01*
X193916D01*
X194499Y144251D01*
Y146000D01*
Y140169D02*
Y142501D01*
X192749D01*
X193333Y141335D01*
Y140752D01*
X192749Y140169D01*
X191583D01*
X191000Y140752D01*
Y141918D01*
X191583Y142501D01*
X193916Y139002D02*
X194499Y138419D01*
Y137253D01*
X193916Y136670D01*
X191583D01*
X191000Y137253D01*
Y138419D01*
X191583Y139002D01*
X193916D01*
X191000Y135503D02*
Y134337D01*
Y134920D01*
X194499D01*
X193916Y135503D01*
X162499Y65000D02*
X159000D01*
Y63251D01*
X159583Y62667D01*
X161916D01*
X162499Y63251D01*
Y65000D01*
Y59169D02*
Y61501D01*
X160749D01*
X161333Y60335D01*
Y59752D01*
X160749Y59169D01*
X159583D01*
X159000Y59752D01*
Y60918D01*
X159583Y61501D01*
X161916Y58002D02*
X162499Y57419D01*
Y56253D01*
X161916Y55670D01*
X159583D01*
X159000Y56253D01*
Y57419D01*
X159583Y58002D01*
X161916D01*
Y54503D02*
X162499Y53920D01*
Y52754D01*
X161916Y52171D01*
X161333D01*
X160749Y52754D01*
Y53337D01*
Y52754D01*
X160166Y52171D01*
X159583D01*
X159000Y52754D01*
Y53920D01*
X159583Y54503D01*
D41*
X185630Y78347D02*
G03*
X185630Y78347I-1181J0D01*
G01*
D42*
X194193Y74154D02*
G03*
X194193Y74154I-492J0D01*
G01*
D43*
X153600Y147831D02*
X158324D01*
X199676Y52231D02*
X204400D01*
X197800Y147700D02*
X202524D01*
X151476Y52331D02*
X156200D01*
X161614Y125591D02*
X188386D01*
X161614Y74410D02*
X188386D01*
X161614D02*
Y125591D01*
X188386Y74410D02*
Y125591D01*
M02*
