G04 Layer_Physical_Order=2*
G04 Layer_Color=16711680*
%FSLAX25Y25*%
%MOIN*%
G70*
G01*
G75*
%ADD12R,0.05512X0.04724*%
%ADD14C,0.01000*%
%ADD15C,0.02500*%
%ADD16C,0.03000*%
%ADD20C,0.05905*%
%ADD21R,0.05905X0.05905*%
%ADD22C,0.03000*%
%ADD23R,0.04724X0.05512*%
%ADD24R,0.05118X0.05905*%
%ADD25R,0.03937X0.07087*%
%ADD26R,0.05118X0.07480*%
%ADD27O,0.02165X0.05709*%
%ADD28O,0.05709X0.02165*%
%ADD29R,0.10236X0.16535*%
%ADD30R,0.04724X0.09842*%
%ADD31R,0.05905X0.05512*%
%ADD32R,0.05905X0.05118*%
%ADD33R,0.16535X0.10236*%
%ADD34R,0.15748X0.15748*%
%ADD35R,0.07874X0.02362*%
%ADD36R,0.02362X0.05905*%
%ADD37R,0.05905X0.02362*%
%ADD38R,0.20000X0.18000*%
%ADD39C,0.70000*%
%ADD40C,0.05000*%
G36*
X346674Y66907D02*
X346175Y66857D01*
X346167Y66897D01*
X345658Y67658D01*
X344897Y68167D01*
X344000Y68345D01*
X342493D01*
Y70721D01*
X339915D01*
X339638Y70907D01*
X338740Y71085D01*
X337843Y70907D01*
X337565Y70721D01*
X334987D01*
Y66981D01*
X332595D01*
X328245Y71331D01*
Y107752D01*
X330345Y109655D01*
X332707Y112261D01*
X334803Y115087D01*
X336611Y118104D01*
X338115Y121283D01*
X339300Y124595D01*
X340154Y128007D01*
X340671Y131487D01*
X340843Y135000D01*
X340671Y138513D01*
X340154Y141993D01*
X339300Y145405D01*
X338115Y148717D01*
X336611Y151896D01*
X334803Y154913D01*
X332707Y157739D01*
X330345Y160345D01*
X327739Y162707D01*
X324913Y164803D01*
X321896Y166611D01*
X318717Y168115D01*
X315405Y169300D01*
X311993Y170154D01*
X308513Y170671D01*
X305000Y170843D01*
X301487Y170671D01*
X298007Y170154D01*
X294595Y169300D01*
X291283Y168115D01*
X288104Y166611D01*
X285087Y164803D01*
X282261Y162707D01*
X279655Y160345D01*
X277293Y157739D01*
X275198Y154913D01*
X273389Y151896D01*
X271885Y148717D01*
X270700Y145405D01*
X269846Y141993D01*
X269329Y138513D01*
X269157Y135000D01*
X269329Y131487D01*
X269846Y128007D01*
X270700Y124595D01*
X271885Y121283D01*
X273389Y118104D01*
X275198Y115087D01*
X277293Y112261D01*
X279655Y109655D01*
X282261Y107293D01*
X285087Y105198D01*
X288104Y103389D01*
X291283Y101885D01*
X294595Y100700D01*
X298007Y99846D01*
X301487Y99329D01*
X305000Y99157D01*
X308513Y99329D01*
X311993Y99846D01*
X315405Y100700D01*
X318717Y101885D01*
X321896Y103389D01*
X323120Y104122D01*
X323555Y103876D01*
Y97816D01*
X266338D01*
X265816Y98338D01*
Y172184D01*
X323000D01*
X323312Y172246D01*
X323577Y172423D01*
X323754Y172688D01*
X323816Y173000D01*
Y195000D01*
X323754Y195312D01*
X323577Y195577D01*
X323312Y195754D01*
X323000Y195816D01*
X258000D01*
X257688Y195754D01*
X257423Y195577D01*
X257423Y195577D01*
X256423Y194577D01*
X256246Y194312D01*
X256184Y194000D01*
X256184Y194000D01*
Y167771D01*
X255684Y167619D01*
X255658Y167658D01*
X254897Y168167D01*
X254000Y168345D01*
X253103Y168167D01*
X252342Y167658D01*
X251833Y166897D01*
X251655Y166000D01*
X251833Y165103D01*
X252342Y164342D01*
X252675Y164120D01*
Y26000D01*
X252775Y25493D01*
X253063Y25063D01*
X253493Y24775D01*
X254000Y24675D01*
X266258D01*
X266344Y24020D01*
X266722Y23107D01*
X267323Y22323D01*
X268107Y21722D01*
X269020Y21344D01*
X270000Y21215D01*
X270980Y21344D01*
X271893Y21722D01*
X272676Y22323D01*
X273278Y23107D01*
X273656Y24020D01*
X273785Y25000D01*
X273656Y25980D01*
X273278Y26893D01*
X272676Y27676D01*
X271893Y28278D01*
X270980Y28656D01*
X270000Y28785D01*
X269020Y28656D01*
X268107Y28278D01*
X267323Y27676D01*
X267054Y27325D01*
X255326D01*
Y164078D01*
X255722Y164369D01*
X256184Y164229D01*
Y74000D01*
X256246Y73688D01*
X256423Y73423D01*
X256688Y73246D01*
X257000Y73184D01*
X286184D01*
Y60816D01*
X280798D01*
X280766Y61316D01*
X280980Y61344D01*
X281893Y61722D01*
X282677Y62323D01*
X283278Y63107D01*
X283656Y64020D01*
X283785Y65000D01*
X283656Y65980D01*
X283278Y66893D01*
X282677Y67677D01*
X281893Y68278D01*
X280980Y68656D01*
X280000Y68785D01*
X279020Y68656D01*
X278229Y68328D01*
X271771D01*
X270980Y68656D01*
X270000Y68785D01*
X269020Y68656D01*
X268107Y68278D01*
X267323Y67677D01*
X266722Y66893D01*
X266344Y65980D01*
X266215Y65000D01*
X266344Y64020D01*
X266722Y63107D01*
X267323Y62323D01*
X268107Y61722D01*
X269020Y61344D01*
X269234Y61316D01*
X269202Y60816D01*
X264000D01*
X263688Y60754D01*
X263423Y60577D01*
X263246Y60312D01*
X263184Y60000D01*
Y50000D01*
X263246Y49688D01*
X263423Y49423D01*
X263688Y49246D01*
X264000Y49184D01*
X269202D01*
X269234Y48684D01*
X269020Y48656D01*
X268107Y48278D01*
X267323Y47677D01*
X266722Y46893D01*
X266344Y45980D01*
X266215Y45000D01*
X266344Y44020D01*
X266722Y43107D01*
X267323Y42323D01*
X268107Y41722D01*
X269020Y41344D01*
X270000Y41215D01*
X270980Y41344D01*
X271893Y41722D01*
X272676Y42323D01*
X273278Y43107D01*
X273656Y44020D01*
X273785Y45000D01*
X273656Y45980D01*
X273278Y46893D01*
X272676Y47677D01*
X271893Y48278D01*
X270980Y48656D01*
X270766Y48684D01*
X270798Y49184D01*
X279202D01*
X279234Y48684D01*
X279020Y48656D01*
X278107Y48278D01*
X277324Y47677D01*
X276722Y46893D01*
X276344Y45980D01*
X276215Y45000D01*
X276344Y44020D01*
X276722Y43107D01*
X277324Y42323D01*
X278107Y41722D01*
X279020Y41344D01*
X280000Y41215D01*
X280980Y41344D01*
X281893Y41722D01*
X282677Y42323D01*
X283278Y43107D01*
X283656Y44020D01*
X283785Y45000D01*
X283656Y45980D01*
X283278Y46893D01*
X282677Y47677D01*
X281893Y48278D01*
X280980Y48656D01*
X280766Y48684D01*
X280798Y49184D01*
X285184D01*
Y35798D01*
X284684Y35766D01*
X284656Y35980D01*
X284278Y36893D01*
X283677Y37677D01*
X282893Y38278D01*
X281980Y38656D01*
X281000Y38785D01*
X280020Y38656D01*
X279107Y38278D01*
X278324Y37677D01*
X277722Y36893D01*
X277344Y35980D01*
X277215Y35000D01*
X277344Y34020D01*
X277722Y33107D01*
X278324Y32324D01*
X279107Y31722D01*
X280020Y31344D01*
X281000Y31215D01*
X281980Y31344D01*
X282893Y31722D01*
X283677Y32324D01*
X284278Y33107D01*
X284656Y34020D01*
X284684Y34234D01*
X285184Y34202D01*
Y8000D01*
X285246Y7688D01*
X285423Y7423D01*
X285688Y7246D01*
X286000Y7184D01*
X300000D01*
X300312Y7246D01*
X300577Y7423D01*
X300754Y7688D01*
X300816Y8000D01*
Y10732D01*
X300980Y10932D01*
X305918D01*
Y29068D01*
X300980D01*
X300816Y29268D01*
Y36000D01*
Y73184D01*
X308184D01*
Y71748D01*
X305500D01*
Y65827D01*
Y59905D01*
X308184D01*
Y50094D01*
X305500D01*
Y44173D01*
Y38252D01*
X308184D01*
Y31000D01*
X308246Y30688D01*
X308423Y30423D01*
X308688Y30246D01*
X309000Y30184D01*
X321056D01*
X321161Y29750D01*
X320908Y29268D01*
X320684D01*
X315500D01*
Y20000D01*
Y10732D01*
X320767D01*
X321090Y10702D01*
X321423Y10423D01*
X321476Y10388D01*
X321688Y10246D01*
X322000Y10184D01*
X345000D01*
X345312Y10246D01*
X345577Y10423D01*
X345754Y10688D01*
X345816Y11000D01*
Y27000D01*
X345754Y27312D01*
X345577Y27577D01*
X345312Y27754D01*
X345000Y27816D01*
X325816D01*
Y28630D01*
X325932Y29082D01*
X344068D01*
Y40918D01*
X326234D01*
X325932Y40918D01*
X325816Y41370D01*
Y43630D01*
X325932Y44082D01*
X344068D01*
Y55918D01*
X333605D01*
Y63019D01*
X334987D01*
Y59279D01*
X338192D01*
X338740Y59170D01*
X343260D01*
X344060Y59329D01*
X344738Y59782D01*
X344753Y59805D01*
X344897Y59834D01*
X345658Y60342D01*
X346167Y61103D01*
X346175Y61143D01*
X346674Y61093D01*
Y6325D01*
X6325D01*
Y196675D01*
X346674D01*
Y66907D01*
D02*
G37*
G36*
X300000Y36000D02*
Y29268D01*
X293882D01*
Y20500D01*
X300000D01*
Y19500D01*
X293882D01*
Y10732D01*
X300000D01*
Y8000D01*
X286000D01*
Y50000D01*
X264000D01*
Y60000D01*
X287000D01*
Y73184D01*
X300000D01*
Y36000D01*
D02*
G37*
G36*
X323000Y173000D02*
X265000D01*
Y98000D01*
X266000Y97000D01*
X323555D01*
Y70360D01*
X323733Y69462D01*
X324026Y69025D01*
X324024Y68995D01*
X323773Y68504D01*
X323025Y68355D01*
X322198Y67802D01*
X321645Y66975D01*
X321550Y66500D01*
X324000D01*
Y66000D01*
X324500D01*
Y63551D01*
X325000Y63140D01*
Y40654D01*
X324500Y40246D01*
X324000Y40345D01*
X323103Y40167D01*
X322342Y39658D01*
X321833Y38897D01*
X321655Y38000D01*
X321833Y37103D01*
X322342Y36342D01*
X323103Y35833D01*
X323237Y35807D01*
X325000Y34044D01*
Y27000D01*
X345000D01*
Y11000D01*
X322000D01*
Y31000D01*
X309000D01*
Y74000D01*
X257000D01*
Y194000D01*
X258000Y195000D01*
X323000D01*
Y173000D01*
D02*
G37*
%LPC*%
G36*
X10000Y64345D02*
X9103Y64166D01*
X8342Y63658D01*
X7834Y62897D01*
X7655Y62000D01*
X7834Y61103D01*
X8342Y60342D01*
X8675Y60119D01*
Y56000D01*
Y38000D01*
X8775Y37493D01*
X9063Y37063D01*
X9493Y36775D01*
X10000Y36674D01*
X16247D01*
Y34213D01*
X16047D01*
Y30957D01*
X23953D01*
Y34213D01*
X23753D01*
Y41099D01*
X16247D01*
Y39325D01*
X11326D01*
Y54675D01*
X16247D01*
Y51334D01*
Y44641D01*
X23753D01*
Y45910D01*
X24988D01*
X25103Y45833D01*
X26000Y45655D01*
X26897Y45833D01*
X27658Y46342D01*
X28167Y47103D01*
X28345Y48000D01*
X28167Y48897D01*
X27658Y49658D01*
X26897Y50167D01*
X26000Y50345D01*
X25103Y50167D01*
X24988Y50090D01*
X23753D01*
Y51334D01*
Y58052D01*
X16247D01*
Y57326D01*
X11326D01*
Y60119D01*
X11658Y60342D01*
X12167Y61103D01*
X12345Y62000D01*
X12167Y62897D01*
X11658Y63658D01*
X10897Y64166D01*
X10000Y64345D01*
D02*
G37*
G36*
X85056Y59619D02*
X77944D01*
Y54689D01*
X77917Y54649D01*
X77816Y54142D01*
Y50879D01*
X75783D01*
Y41798D01*
X82501D01*
Y50879D01*
X80467D01*
Y53294D01*
X85056D01*
Y59619D01*
D02*
G37*
G36*
X304500Y50094D02*
X301638D01*
Y44673D01*
X304500D01*
Y50094D01*
D02*
G37*
G36*
X71500Y60154D02*
X68047D01*
Y57095D01*
X71500D01*
Y60154D01*
D02*
G37*
G36*
X75953D02*
X72500D01*
Y57095D01*
X75953D01*
Y60154D01*
D02*
G37*
G36*
X69500Y54905D02*
X66047D01*
Y51846D01*
X69500D01*
Y54905D01*
D02*
G37*
G36*
X73953D02*
X70500D01*
Y51846D01*
X73953D01*
Y54905D01*
D02*
G37*
G36*
X314500Y29268D02*
X308882D01*
Y20500D01*
X314500D01*
Y29268D01*
D02*
G37*
G36*
X283753Y28753D02*
X276247D01*
Y21247D01*
X283753D01*
Y28753D01*
D02*
G37*
G36*
X23953Y29957D02*
X20500D01*
Y26701D01*
X23953D01*
Y29957D01*
D02*
G37*
G36*
X19500D02*
X16047D01*
Y26701D01*
X19500D01*
Y29957D01*
D02*
G37*
G36*
X127556Y14619D02*
X120444D01*
Y8294D01*
X127556D01*
Y8655D01*
X133000D01*
X133897Y8833D01*
X134658Y9342D01*
X135167Y10103D01*
X135345Y11000D01*
X135167Y11897D01*
X134658Y12658D01*
X133897Y13167D01*
X133000Y13345D01*
X127556D01*
Y14619D01*
D02*
G37*
G36*
X185556D02*
X178444D01*
Y8294D01*
X181869D01*
X182559Y7834D01*
X183457Y7655D01*
X190000D01*
X190897Y7834D01*
X191658Y8342D01*
X192167Y9103D01*
X192345Y10000D01*
X192167Y10897D01*
X191658Y11658D01*
X190897Y12167D01*
X190000Y12345D01*
X185556D01*
Y14619D01*
D02*
G37*
G36*
X314500Y19500D02*
X308882D01*
Y10732D01*
X314500D01*
Y19500D01*
D02*
G37*
G36*
X115043Y31500D02*
X112181D01*
Y28244D01*
X115043D01*
Y31500D01*
D02*
G37*
G36*
X304500Y43673D02*
X301638D01*
Y38252D01*
X304500D01*
Y43673D01*
D02*
G37*
G36*
X73953Y50846D02*
X70000D01*
X66047D01*
Y47787D01*
X66247D01*
Y41295D01*
X67910D01*
Y39012D01*
X67834Y38897D01*
X67655Y38000D01*
X67834Y37103D01*
X68342Y36342D01*
X69103Y35833D01*
X70000Y35655D01*
X70897Y35833D01*
X71658Y36342D01*
X72167Y37103D01*
X72345Y38000D01*
X72167Y38897D01*
X72090Y39012D01*
Y41295D01*
X73753D01*
Y47787D01*
X73953D01*
Y50846D01*
D02*
G37*
G36*
X156674Y35556D02*
X150350D01*
Y28444D01*
X156674D01*
Y30674D01*
X166120D01*
X166342Y30342D01*
X167103Y29833D01*
X168000Y29655D01*
X168897Y29833D01*
X169658Y30342D01*
X170167Y31103D01*
X170345Y32000D01*
X170167Y32897D01*
X169658Y33658D01*
X168897Y34166D01*
X168000Y34345D01*
X167103Y34166D01*
X166342Y33658D01*
X166120Y33325D01*
X156674D01*
Y35556D01*
D02*
G37*
G36*
X118905Y31500D02*
X116043D01*
Y28244D01*
X118905D01*
Y31500D01*
D02*
G37*
G36*
X271000Y38785D02*
X270020Y38656D01*
X269107Y38278D01*
X268323Y37677D01*
X267722Y36893D01*
X267344Y35980D01*
X267215Y35000D01*
X267344Y34020D01*
X267722Y33107D01*
X268323Y32324D01*
X269107Y31722D01*
X270020Y31344D01*
X271000Y31215D01*
X271980Y31344D01*
X272893Y31722D01*
X273676Y32324D01*
X274278Y33107D01*
X274656Y34020D01*
X274785Y35000D01*
X274656Y35980D01*
X274278Y36893D01*
X273676Y37677D01*
X272893Y38278D01*
X271980Y38656D01*
X271000Y38785D01*
D02*
G37*
G36*
X118905Y35756D02*
X116043D01*
Y32500D01*
X118905D01*
Y35756D01*
D02*
G37*
G36*
X115043D02*
X112181D01*
Y32500D01*
X115043D01*
Y35756D01*
D02*
G37*
G36*
X304500Y65327D02*
X301638D01*
Y59905D01*
X304500D01*
Y65327D01*
D02*
G37*
G36*
X97501Y191981D02*
X88027D01*
Y188019D01*
X97501D01*
Y188674D01*
X98674D01*
Y183918D01*
X80932D01*
Y172082D01*
X98674D01*
Y135880D01*
X98342Y135658D01*
X97834Y134897D01*
X97655Y134000D01*
X97834Y133103D01*
X98342Y132342D01*
X99103Y131833D01*
X100000Y131655D01*
X100897Y131833D01*
X101658Y132342D01*
X102166Y133103D01*
X102174Y133143D01*
X102674Y133093D01*
Y129880D01*
X102342Y129658D01*
X102250Y129521D01*
X101750D01*
X101658Y129658D01*
X100897Y130167D01*
X100000Y130345D01*
X99103Y130167D01*
X98342Y129658D01*
X97834Y128897D01*
X97655Y128000D01*
X97741Y127568D01*
X97331Y127068D01*
X86082D01*
Y119856D01*
X85582Y119709D01*
X84897Y120167D01*
X84000Y120345D01*
X83103Y120167D01*
X82418Y119709D01*
X82123Y119796D01*
X81918Y119924D01*
Y127068D01*
X70082D01*
Y108932D01*
X81918D01*
Y116076D01*
X82123Y116204D01*
X82418Y116291D01*
X83103Y115833D01*
X84000Y115655D01*
X84897Y115833D01*
X85582Y116291D01*
X86082Y116144D01*
Y108932D01*
X97918D01*
X97918Y108932D01*
Y108932D01*
X98214Y108533D01*
X98342Y108342D01*
X98674Y108119D01*
Y86907D01*
X98175Y86857D01*
X98167Y86897D01*
X97658Y87658D01*
X96897Y88166D01*
X96000Y88345D01*
X95103Y88166D01*
X94342Y87658D01*
X94120Y87326D01*
X93556D01*
Y91619D01*
X86444D01*
Y85295D01*
X91288D01*
X91519Y85063D01*
X91949Y84775D01*
X92457Y84675D01*
X94120D01*
X94342Y84342D01*
X95103Y83833D01*
X96000Y83655D01*
X96897Y83833D01*
X97658Y84342D01*
X98167Y85103D01*
X98175Y85143D01*
X98674Y85093D01*
Y81880D01*
X98342Y81658D01*
X98119Y81326D01*
X93556D01*
Y82705D01*
X86444D01*
Y76381D01*
X93556D01*
Y78675D01*
X98119D01*
X98342Y78342D01*
X99103Y77833D01*
X100000Y77655D01*
X100897Y77833D01*
X101450Y78202D01*
X101950Y77946D01*
Y47881D01*
X101617Y47658D01*
X101109Y46897D01*
X100930Y46000D01*
X101109Y45103D01*
X101617Y44342D01*
X102378Y43833D01*
X103275Y43655D01*
X103613Y43722D01*
X104000Y43405D01*
Y41000D01*
X106675D01*
Y35556D01*
X105295D01*
Y28444D01*
X111619D01*
Y35556D01*
X109326D01*
Y41000D01*
X109902D01*
X110342Y40342D01*
X111103Y39833D01*
X112000Y39655D01*
X112897Y39833D01*
X113658Y40342D01*
X114098Y41000D01*
X122675D01*
Y21705D01*
X120444D01*
Y15381D01*
X127556D01*
Y21705D01*
X125326D01*
Y41000D01*
X144675D01*
Y35556D01*
X143263D01*
Y28444D01*
X149588D01*
Y35556D01*
X147326D01*
Y41000D01*
X180675D01*
Y21705D01*
X178444D01*
Y15381D01*
X185556D01*
Y21705D01*
X183326D01*
Y41000D01*
X214674D01*
Y33880D01*
X214342Y33658D01*
X213833Y32897D01*
X213655Y32000D01*
X213833Y31103D01*
X214342Y30342D01*
X215103Y29833D01*
X216000Y29655D01*
X216897Y29833D01*
X217658Y30342D01*
X218167Y31103D01*
X218345Y32000D01*
X218167Y32897D01*
X217658Y33658D01*
X217325Y33880D01*
Y41000D01*
X250000D01*
Y162000D01*
X200706D01*
Y163556D01*
X194381D01*
Y162000D01*
X193619D01*
Y163556D01*
X187294D01*
Y162000D01*
X182325D01*
Y168120D01*
X182658Y168342D01*
X183167Y169103D01*
X183345Y170000D01*
X183167Y170897D01*
X182658Y171658D01*
X181897Y172167D01*
X181000Y172345D01*
X180103Y172167D01*
X179342Y171658D01*
X178833Y170897D01*
X178655Y170000D01*
X178833Y169103D01*
X179342Y168342D01*
X179674Y168120D01*
Y162000D01*
X168556D01*
Y162706D01*
X166325D01*
Y171119D01*
X166658Y171342D01*
X167167Y172103D01*
X167345Y173000D01*
X167167Y173897D01*
X166658Y174658D01*
X165897Y175167D01*
X165000Y175345D01*
X164103Y175167D01*
X163342Y174658D01*
X162833Y173897D01*
X162655Y173000D01*
X162833Y172103D01*
X163342Y171342D01*
X163674Y171119D01*
Y162706D01*
X161444D01*
X161099Y163063D01*
X160702Y163658D01*
X159941Y164167D01*
X159043Y164345D01*
X158146Y164167D01*
X157385Y163658D01*
X157056Y163165D01*
X156556Y163317D01*
Y163706D01*
X149444D01*
Y162000D01*
X145326D01*
Y180000D01*
X145225Y180507D01*
X144937Y180937D01*
X144507Y181225D01*
X144000Y181325D01*
X140706D01*
Y183556D01*
X134381D01*
Y176444D01*
X140706D01*
Y178674D01*
X142675D01*
Y162000D01*
X119325D01*
Y163366D01*
X119718Y163711D01*
X120000Y163655D01*
X120897Y163833D01*
X121658Y164342D01*
X122167Y165103D01*
X122345Y166000D01*
X122167Y166897D01*
X121658Y167658D01*
X120897Y168167D01*
X120000Y168345D01*
X119103Y168167D01*
X118342Y167658D01*
X117833Y166897D01*
X117655Y166000D01*
X117733Y165608D01*
X117063Y164937D01*
X116775Y164507D01*
X116674Y164000D01*
Y162000D01*
X105325D01*
Y176444D01*
X109619D01*
Y183556D01*
X103295D01*
Y178712D01*
X103063Y178481D01*
X102775Y178050D01*
X102674Y177543D01*
Y134907D01*
X102174Y134857D01*
X102166Y134897D01*
X101658Y135658D01*
X101326Y135880D01*
Y178000D01*
Y190000D01*
X101225Y190507D01*
X100937Y190937D01*
X100507Y191225D01*
X100000Y191325D01*
X97501D01*
Y191981D01*
D02*
G37*
G36*
X33476Y105429D02*
X33164Y105367D01*
X32475Y104907D01*
X32015Y104218D01*
X31853Y103405D01*
Y102134D01*
X33476D01*
Y105429D01*
D02*
G37*
G36*
X54674Y147052D02*
X37326D01*
Y137326D01*
X35881D01*
X35658Y137658D01*
X34897Y138167D01*
X34000Y138345D01*
X33103Y138167D01*
X32342Y137658D01*
X31833Y136897D01*
X31655Y136000D01*
X31833Y135103D01*
X32342Y134342D01*
X33103Y133833D01*
X34000Y133655D01*
X34897Y133833D01*
X35658Y134342D01*
X35881Y134675D01*
X37326D01*
Y129704D01*
X54674D01*
Y132813D01*
X55174Y132988D01*
X55493Y132775D01*
X56000Y132675D01*
X56120D01*
X56342Y132342D01*
X57103Y131833D01*
X58000Y131655D01*
X58897Y131833D01*
X59658Y132342D01*
X60167Y133103D01*
X60345Y134000D01*
X60167Y134897D01*
X59658Y135658D01*
X58897Y136167D01*
X58000Y136345D01*
X57103Y136167D01*
X56342Y135658D01*
X56227Y135647D01*
X54674Y137200D01*
Y147052D01*
D02*
G37*
G36*
X22000Y172345D02*
X21103Y172167D01*
X20342Y171658D01*
X19833Y170897D01*
X19655Y170000D01*
X19833Y169103D01*
X20342Y168342D01*
X20674Y168120D01*
Y138907D01*
X20175Y138857D01*
X20167Y138897D01*
X19658Y139658D01*
X18897Y140167D01*
X18000Y140345D01*
X17607Y140267D01*
X17394Y140481D01*
X16964Y140768D01*
X16457Y140869D01*
X15556D01*
Y142706D01*
X8444D01*
Y136381D01*
X15556D01*
Y136618D01*
X16056Y136770D01*
X16342Y136342D01*
X17103Y135833D01*
X18000Y135655D01*
X18897Y135833D01*
X19658Y136342D01*
X20167Y137103D01*
X20175Y137143D01*
X20674Y137093D01*
Y92874D01*
X20775Y92367D01*
X21063Y91937D01*
X21493Y91649D01*
X22000Y91549D01*
X21997Y91050D01*
X17601D01*
Y130181D01*
X17500Y130688D01*
X17213Y131118D01*
X15556Y132775D01*
Y135619D01*
X8444D01*
Y129295D01*
X14950D01*
Y89724D01*
X15051Y89217D01*
X15338Y88787D01*
X15768Y88500D01*
X16276Y88399D01*
X24876D01*
X25180Y87959D01*
X25160Y87817D01*
X24821Y87309D01*
X24675Y86575D01*
X24821Y85840D01*
X25237Y85217D01*
Y84782D01*
X24821Y84160D01*
X24675Y83425D01*
X24821Y82691D01*
X25160Y82183D01*
X25207Y81850D01*
X25160Y81518D01*
X24821Y81010D01*
X24675Y80276D01*
X24821Y79541D01*
X25160Y79033D01*
X25207Y78701D01*
X25160Y78368D01*
X24821Y77861D01*
X24675Y77126D01*
X24821Y76391D01*
X25237Y75769D01*
Y75334D01*
X24821Y74711D01*
X24675Y73976D01*
X24821Y73242D01*
X25237Y72619D01*
X25860Y72203D01*
X26594Y72057D01*
X30138D01*
X30872Y72203D01*
X31495Y72619D01*
X31911Y73242D01*
X32057Y73976D01*
X31911Y74711D01*
X31495Y75334D01*
Y75769D01*
X31911Y76391D01*
X32057Y77126D01*
X31911Y77861D01*
X31572Y78368D01*
X31525Y78701D01*
X31572Y79033D01*
X31911Y79541D01*
X32057Y80276D01*
X31911Y81010D01*
X31572Y81518D01*
X31525Y81850D01*
X31572Y82183D01*
X31911Y82691D01*
X32057Y83425D01*
X31911Y84160D01*
X31495Y84782D01*
Y85217D01*
X31911Y85840D01*
X32057Y86575D01*
X31911Y87309D01*
X31572Y87817D01*
X31525Y88150D01*
X31572Y88482D01*
X31911Y88990D01*
X32057Y89724D01*
X31911Y90459D01*
X31495Y91082D01*
Y91517D01*
X31911Y92139D01*
X32057Y92874D01*
X31911Y93609D01*
X31572Y94116D01*
X31525Y94449D01*
X31572Y94781D01*
X31911Y95289D01*
X32057Y96024D01*
X31911Y96758D01*
X31495Y97381D01*
X30872Y97797D01*
X30138Y97943D01*
X30090D01*
Y106988D01*
X30167Y107103D01*
X30345Y108000D01*
X30259Y108432D01*
X30669Y108932D01*
X38950D01*
Y104964D01*
X38624Y104824D01*
X38450Y104785D01*
X37861Y105179D01*
X37126Y105325D01*
X36391Y105179D01*
X35769Y104763D01*
X35330Y105006D01*
X34789Y105367D01*
X34476Y105429D01*
Y101634D01*
Y97838D01*
X34789Y97900D01*
X35330Y98262D01*
X35769Y98505D01*
X36391Y98089D01*
X37126Y97943D01*
X37861Y98089D01*
X38483Y98505D01*
X38918D01*
X39541Y98089D01*
X40276Y97943D01*
X41010Y98089D01*
X41518Y98428D01*
X41850Y98475D01*
X42183Y98428D01*
X42691Y98089D01*
X43425Y97943D01*
X44160Y98089D01*
X44668Y98428D01*
X45000Y98475D01*
X45333Y98428D01*
X45840Y98089D01*
X46575Y97943D01*
X47309Y98089D01*
X47817Y98428D01*
X48150Y98475D01*
X48482Y98428D01*
X48990Y98089D01*
X49724Y97943D01*
X50459Y98089D01*
X50967Y98428D01*
X51299Y98475D01*
X51632Y98428D01*
X52139Y98089D01*
X52874Y97943D01*
X53609Y98089D01*
X54116Y98428D01*
X54449Y98475D01*
X54781Y98428D01*
X55289Y98089D01*
X56024Y97943D01*
X56758Y98089D01*
X57381Y98505D01*
X57797Y99128D01*
X57943Y99862D01*
Y100308D01*
X63634D01*
X64141Y100409D01*
X64571Y100697D01*
X67332Y103457D01*
X67580Y103418D01*
X67830Y102904D01*
X67828Y102872D01*
X67655Y102000D01*
X67733Y101608D01*
X63959Y97833D01*
X63406Y97943D01*
X59862D01*
X59128Y97797D01*
X58505Y97381D01*
X58089Y96758D01*
X57943Y96024D01*
X58089Y95289D01*
X58428Y94781D01*
X58474Y94449D01*
X58428Y94116D01*
X58089Y93609D01*
X57943Y92874D01*
X58089Y92139D01*
X58505Y91517D01*
Y91082D01*
X58089Y90459D01*
X57943Y89724D01*
X58089Y88990D01*
X58428Y88482D01*
X58474Y88150D01*
X58428Y87817D01*
X58089Y87309D01*
X57943Y86575D01*
X58089Y85840D01*
X58505Y85217D01*
Y84782D01*
X58089Y84160D01*
X57943Y83425D01*
X58089Y82691D01*
X58428Y82183D01*
X58474Y81850D01*
X58428Y81518D01*
X58089Y81010D01*
X57943Y80276D01*
X58089Y79541D01*
X58428Y79033D01*
X58474Y78701D01*
X58428Y78368D01*
X58089Y77861D01*
X57943Y77126D01*
X58089Y76391D01*
X58505Y75769D01*
Y75334D01*
X58089Y74711D01*
X57943Y73976D01*
X58089Y73242D01*
X58505Y72619D01*
X59128Y72203D01*
X59862Y72057D01*
X60817D01*
X60834Y72045D01*
X61634Y71886D01*
X61719Y71903D01*
X64703D01*
X64703Y71903D01*
X64737Y71910D01*
X67910D01*
Y69346D01*
X67910Y69346D01*
X68069Y68547D01*
X68247Y68280D01*
Y64213D01*
X68047D01*
Y61154D01*
X75953D01*
Y64213D01*
X75753D01*
Y70705D01*
X72090D01*
Y72988D01*
X72167Y73103D01*
X72345Y74000D01*
X72167Y74897D01*
X71897Y75301D01*
X72164Y75801D01*
X76244D01*
Y73295D01*
X83356D01*
Y79619D01*
X76244D01*
Y78451D01*
X70262D01*
X70026Y78892D01*
X70166Y79103D01*
X70345Y80000D01*
X70166Y80897D01*
X69658Y81658D01*
X69789Y82172D01*
X69932Y82201D01*
X70363Y82488D01*
X72086Y84212D01*
X72503Y83934D01*
X73400Y83755D01*
X74297Y83934D01*
X75058Y84442D01*
X75567Y85203D01*
X75745Y86100D01*
X75567Y86997D01*
X75058Y87758D01*
X74297Y88266D01*
X73400Y88445D01*
X72503Y88266D01*
X71742Y87758D01*
X71338Y87155D01*
X71163Y87037D01*
X68876Y84751D01*
X64964D01*
X64824Y85077D01*
X64785Y85251D01*
X65179Y85840D01*
X65214Y86016D01*
X66829D01*
X67103Y85834D01*
X68000Y85655D01*
X68897Y85834D01*
X69658Y86342D01*
X70166Y87103D01*
X70345Y88000D01*
X70166Y88897D01*
X70076Y89034D01*
X70311Y89474D01*
X70800D01*
X71307Y89575D01*
X71737Y89863D01*
X72228Y90353D01*
X72342Y90342D01*
X73103Y89833D01*
X74000Y89655D01*
X74897Y89833D01*
X75658Y90342D01*
X76166Y91103D01*
X76345Y92000D01*
X76166Y92897D01*
X75658Y93658D01*
X74897Y94166D01*
X74000Y94345D01*
X73103Y94166D01*
X72342Y93658D01*
X72119Y93326D01*
X72000D01*
X71493Y93225D01*
X71063Y92937D01*
X70251Y92125D01*
X68653D01*
X68462Y92587D01*
X69608Y93733D01*
X70000Y93655D01*
X70897Y93834D01*
X71658Y94342D01*
X72167Y95103D01*
X72345Y96000D01*
X72167Y96897D01*
X71658Y97658D01*
X70897Y98167D01*
X70000Y98345D01*
X69103Y98167D01*
X68342Y97658D01*
X67834Y96897D01*
X67655Y96000D01*
X67733Y95608D01*
X66325Y94200D01*
X65124D01*
X64820Y94640D01*
X64840Y94781D01*
X65179Y95289D01*
X65183Y95308D01*
X69608Y99733D01*
X70000Y99655D01*
X70897Y99834D01*
X71658Y100342D01*
X72167Y101103D01*
X72345Y102000D01*
X72167Y102897D01*
X71658Y103658D01*
X70897Y104167D01*
X70231Y104299D01*
X69979Y104795D01*
X69978Y104820D01*
X70166Y105103D01*
X70345Y106000D01*
X70166Y106897D01*
X69658Y107658D01*
X68897Y108167D01*
X68000Y108345D01*
X67103Y108167D01*
X66342Y107658D01*
X65833Y106897D01*
X65655Y106000D01*
X65733Y105607D01*
X63085Y102959D01*
X57943D01*
Y103405D01*
X57797Y104140D01*
X57381Y104763D01*
X56758Y105179D01*
X56024Y105325D01*
X55694Y105260D01*
X55448Y105720D01*
X60937Y111210D01*
X61225Y111640D01*
X61319Y112115D01*
X61658Y112342D01*
X62167Y113103D01*
X62345Y114000D01*
X62167Y114897D01*
X61658Y115658D01*
X60897Y116167D01*
X60000Y116345D01*
X59103Y116167D01*
X58342Y115658D01*
X57833Y114897D01*
X57655Y114000D01*
X57833Y113103D01*
X58333Y112355D01*
X52704Y106725D01*
X52416Y106295D01*
X52315Y105788D01*
Y105214D01*
X52139Y105179D01*
X51632Y104840D01*
X51299Y104793D01*
X50967Y104840D01*
X50459Y105179D01*
X49724Y105325D01*
X48990Y105179D01*
X48482Y104840D01*
X48150Y104793D01*
X47817Y104840D01*
X47309Y105179D01*
X46575Y105325D01*
X45840Y105179D01*
X45333Y104840D01*
X45191Y104820D01*
X44751Y105124D01*
Y108932D01*
X53918D01*
Y127068D01*
X42082D01*
Y127068D01*
X41918D01*
Y127068D01*
X30082D01*
Y109856D01*
X29582Y109709D01*
X28897Y110167D01*
X28000Y110345D01*
X27103Y110167D01*
X26342Y109658D01*
X25833Y108897D01*
X25655Y108000D01*
X25833Y107103D01*
X25910Y106988D01*
Y97807D01*
X25860Y97797D01*
X25237Y97381D01*
X24821Y96758D01*
X24675Y96024D01*
X24821Y95289D01*
X25160Y94781D01*
X25180Y94640D01*
X24876Y94200D01*
X23325D01*
Y168120D01*
X23658Y168342D01*
X24167Y169103D01*
X24345Y170000D01*
X24167Y170897D01*
X23658Y171658D01*
X22897Y172167D01*
X22000Y172345D01*
D02*
G37*
G36*
X33476Y101134D02*
X31853D01*
Y99862D01*
X32015Y99050D01*
X32475Y98361D01*
X33164Y97900D01*
X33476Y97838D01*
Y101134D01*
D02*
G37*
G36*
X89500Y95043D02*
X86244D01*
Y92181D01*
X89500D01*
Y95043D01*
D02*
G37*
G36*
X93756D02*
X90500D01*
Y92181D01*
X93756D01*
Y95043D01*
D02*
G37*
G36*
Y98905D02*
X90500D01*
Y96043D01*
X93756D01*
Y98905D01*
D02*
G37*
G36*
X89500D02*
X86244D01*
Y96043D01*
X89500D01*
Y98905D01*
D02*
G37*
G36*
X133819Y183756D02*
X130957D01*
Y180500D01*
X133819D01*
Y183756D01*
D02*
G37*
G36*
X116905Y183756D02*
X114043D01*
Y180500D01*
X116905D01*
Y183756D01*
D02*
G37*
G36*
X54674Y194296D02*
X37326D01*
Y176948D01*
X54674D01*
Y183532D01*
X59622D01*
X59622Y183532D01*
X60422Y183691D01*
X61100Y184144D01*
X64763Y187807D01*
X64897Y187833D01*
X65012Y187910D01*
X78000D01*
X78548Y188019D01*
X82737D01*
Y191981D01*
X78548D01*
X78000Y192090D01*
X65012D01*
X64897Y192167D01*
X64000Y192345D01*
X63103Y192167D01*
X62342Y191658D01*
X61834Y190897D01*
X61807Y190763D01*
X58756Y187712D01*
X54674D01*
Y194296D01*
D02*
G37*
G36*
X113043Y183756D02*
X110181D01*
Y180500D01*
X113043D01*
Y183756D01*
D02*
G37*
G36*
X116905Y179500D02*
X114043D01*
Y176244D01*
X116905D01*
Y179500D01*
D02*
G37*
G36*
X113043D02*
X110181D01*
Y176244D01*
X113043D01*
Y179500D01*
D02*
G37*
G36*
X129957D02*
X127094D01*
Y176244D01*
X129957D01*
Y179500D01*
D02*
G37*
G36*
Y183756D02*
X127094D01*
Y180500D01*
X129957D01*
Y183756D01*
D02*
G37*
G36*
X133819Y179500D02*
X130957D01*
Y176244D01*
X133819D01*
Y179500D01*
D02*
G37*
G36*
X58147Y67866D02*
X56524D01*
Y64570D01*
X56836Y64633D01*
X57525Y65093D01*
X57986Y65782D01*
X58147Y66594D01*
Y67866D01*
D02*
G37*
G36*
X85256Y66905D02*
X82000D01*
Y64043D01*
X85256D01*
Y66905D01*
D02*
G37*
G36*
X304500Y71748D02*
X301638D01*
Y66327D01*
X304500D01*
Y71748D01*
D02*
G37*
G36*
X81000Y66905D02*
X77744D01*
Y64043D01*
X81000D01*
Y66905D01*
D02*
G37*
G36*
Y63043D02*
X77744D01*
Y60181D01*
X81000D01*
Y63043D01*
D02*
G37*
G36*
X85256D02*
X82000D01*
Y60181D01*
X85256D01*
Y63043D01*
D02*
G37*
G36*
X93756Y75819D02*
X90500D01*
Y72957D01*
X93756D01*
Y75819D01*
D02*
G37*
G36*
X80000Y100345D02*
X79103Y100166D01*
X78342Y99658D01*
X77833Y98897D01*
X77655Y98000D01*
X77833Y97103D01*
X77910Y96988D01*
Y86705D01*
X76244D01*
Y80381D01*
X83356D01*
Y86705D01*
X82090D01*
Y96988D01*
X82166Y97103D01*
X82345Y98000D01*
X82166Y98897D01*
X81658Y99658D01*
X80897Y100166D01*
X80000Y100345D01*
D02*
G37*
G36*
X89500Y75819D02*
X86244D01*
Y72957D01*
X89500D01*
Y75819D01*
D02*
G37*
G36*
X56524Y72162D02*
Y68866D01*
X58147D01*
Y70138D01*
X57986Y70950D01*
X57525Y71639D01*
X56836Y72100D01*
X56524Y72162D01*
D02*
G37*
G36*
X89500Y71957D02*
X86244D01*
Y69095D01*
X89500D01*
Y71957D01*
D02*
G37*
G36*
X96000Y72345D02*
X95103Y72167D01*
X94342Y71658D01*
X94256Y71530D01*
X93756Y71681D01*
Y71957D01*
X90500D01*
Y69095D01*
X93756D01*
X93910Y68658D01*
Y66706D01*
X90247D01*
Y59987D01*
Y53294D01*
X95485D01*
X95533Y53246D01*
Y50879D01*
X93499D01*
Y41798D01*
X95533D01*
Y18202D01*
X93499D01*
Y9121D01*
X100217D01*
Y18202D01*
X98184D01*
Y41798D01*
X100217D01*
Y50879D01*
X98184D01*
Y53795D01*
X98083Y54303D01*
X97795Y54733D01*
X97753Y54775D01*
Y59987D01*
Y64280D01*
X97931Y64547D01*
X98090Y65346D01*
X98090Y65346D01*
Y68988D01*
X98167Y69103D01*
X98345Y70000D01*
X98167Y70897D01*
X97658Y71658D01*
X96897Y72167D01*
X96000Y72345D01*
D02*
G37*
G36*
X55524Y72162D02*
X55211Y72100D01*
X54670Y71738D01*
X54231Y71495D01*
X53609Y71911D01*
X52874Y72057D01*
X52139Y71911D01*
X51632Y71572D01*
X51299Y71526D01*
X50967Y71572D01*
X50459Y71911D01*
X49724Y72057D01*
X48990Y71911D01*
X48482Y71572D01*
X48150Y71526D01*
X47817Y71572D01*
X47309Y71911D01*
X46575Y72057D01*
X45840Y71911D01*
X45333Y71572D01*
X45000Y71526D01*
X44668Y71572D01*
X44160Y71911D01*
X43425Y72057D01*
X42691Y71911D01*
X42183Y71572D01*
X41850Y71526D01*
X41518Y71572D01*
X41010Y71911D01*
X40276Y72057D01*
X39541Y71911D01*
X39033Y71572D01*
X38701Y71526D01*
X38368Y71572D01*
X37861Y71911D01*
X37126Y72057D01*
X36391Y71911D01*
X35884Y71572D01*
X35551Y71526D01*
X35219Y71572D01*
X34711Y71911D01*
X33976Y72057D01*
X33242Y71911D01*
X32619Y71495D01*
X32203Y70872D01*
X32057Y70138D01*
Y66594D01*
X32203Y65860D01*
X32619Y65237D01*
X33242Y64821D01*
X33976Y64675D01*
X34711Y64821D01*
X35219Y65160D01*
X35551Y65207D01*
X35884Y65160D01*
X36391Y64821D01*
X37126Y64675D01*
X37861Y64821D01*
X38483Y65237D01*
X38918D01*
X39541Y64821D01*
X40276Y64675D01*
X41010Y64821D01*
X41518Y65160D01*
X41660Y65180D01*
X42066Y64899D01*
X42077Y64408D01*
X42000Y64345D01*
X41103Y64166D01*
X40342Y63658D01*
X39833Y62897D01*
X39655Y62000D01*
X39833Y61103D01*
X40342Y60342D01*
X41103Y59834D01*
X42000Y59655D01*
X42897Y59834D01*
X43658Y60342D01*
X44167Y61103D01*
X44175Y61143D01*
X44675Y61093D01*
Y55326D01*
X41753D01*
Y56705D01*
X34247D01*
Y49987D01*
Y43295D01*
X38403D01*
X39910Y41788D01*
Y40091D01*
X39410Y39824D01*
X38897Y40167D01*
X38000Y40345D01*
X37103Y40167D01*
X36342Y39658D01*
X36119Y39325D01*
X33753D01*
Y40705D01*
X26247D01*
Y33987D01*
Y27294D01*
X33753D01*
Y28563D01*
X34653D01*
X34654Y28563D01*
X35453Y28723D01*
X36132Y29176D01*
X36866Y29910D01*
X40988D01*
X41103Y29833D01*
X42000Y29655D01*
X42897Y29833D01*
X43658Y30342D01*
X44167Y31103D01*
X44175Y31143D01*
X44675Y31093D01*
Y25881D01*
X44342Y25658D01*
X43833Y24897D01*
X43655Y24000D01*
X43833Y23103D01*
X44342Y22342D01*
X45103Y21833D01*
X46000Y21655D01*
X46897Y21833D01*
X47658Y22342D01*
X48167Y23103D01*
X48345Y24000D01*
X48167Y24897D01*
X47658Y25658D01*
X47326Y25881D01*
Y54000D01*
Y64832D01*
X47817Y65160D01*
X47959Y65180D01*
X48399Y64876D01*
Y54000D01*
Y30000D01*
X48500Y29493D01*
X48787Y29063D01*
X49217Y28775D01*
X49724Y28675D01*
X52310D01*
Y25657D01*
X57847D01*
Y32221D01*
X58326Y32366D01*
X58342Y32342D01*
X59103Y31833D01*
X60000Y31655D01*
X60897Y31833D01*
X61658Y32342D01*
X61674Y32366D01*
X62153Y32221D01*
Y25657D01*
X65810D01*
X66046Y25216D01*
X65833Y24897D01*
X65655Y24000D01*
X65833Y23103D01*
X66342Y22342D01*
X66675Y22119D01*
Y14000D01*
X66775Y13493D01*
X67063Y13063D01*
X67493Y12775D01*
X68000Y12675D01*
X75783D01*
Y9121D01*
X82501D01*
Y18202D01*
X75783D01*
Y15326D01*
X69326D01*
Y22119D01*
X69658Y22342D01*
X70166Y23103D01*
X70345Y24000D01*
X70166Y24897D01*
X69658Y25658D01*
X68897Y26167D01*
X68000Y26345D01*
X67690Y26600D01*
Y34343D01*
X65325D01*
Y36119D01*
X65658Y36342D01*
X66167Y37103D01*
X66345Y38000D01*
X66167Y38897D01*
X65658Y39658D01*
X65325Y39880D01*
Y58119D01*
X65658Y58342D01*
X66167Y59103D01*
X66345Y60000D01*
X66167Y60897D01*
X65658Y61658D01*
X64897Y62167D01*
X64000Y62345D01*
X63103Y62167D01*
X62342Y61658D01*
X61834Y60897D01*
X61655Y60000D01*
X61834Y59103D01*
X62342Y58342D01*
X62674Y58119D01*
Y40346D01*
X62590Y40295D01*
X62090Y40579D01*
Y42654D01*
X61931Y43453D01*
X61478Y44131D01*
X61478Y44131D01*
X59753Y45857D01*
Y49987D01*
Y56705D01*
X52247D01*
Y55326D01*
X51050D01*
Y61123D01*
X51549Y61126D01*
X51649Y60619D01*
X51749Y60470D01*
X51655Y60000D01*
X51833Y59103D01*
X52342Y58342D01*
X53103Y57833D01*
X54000Y57655D01*
X54897Y57833D01*
X55658Y58342D01*
X56166Y59103D01*
X56345Y60000D01*
X56166Y60897D01*
X55658Y61658D01*
X54897Y62167D01*
X54199Y62305D01*
Y64744D01*
X54699Y64974D01*
X55211Y64633D01*
X55524Y64570D01*
Y68366D01*
Y72162D01*
D02*
G37*
G36*
X280500Y54500D02*
X277079D01*
X277149Y53968D01*
X277547Y53007D01*
X278181Y52181D01*
X279007Y51547D01*
X279968Y51149D01*
X280500Y51079D01*
Y54500D01*
D02*
G37*
G36*
X270500D02*
X267079D01*
X267149Y53968D01*
X267547Y53007D01*
X268181Y52181D01*
X269007Y51547D01*
X269968Y51149D01*
X270500Y51079D01*
Y54500D01*
D02*
G37*
G36*
X294657Y50094D02*
X291795D01*
Y44673D01*
X294657D01*
Y50094D01*
D02*
G37*
G36*
X298520D02*
X295657D01*
Y44673D01*
X298520D01*
Y50094D01*
D02*
G37*
G36*
X274921Y54500D02*
X271500D01*
Y51079D01*
X272032Y51149D01*
X272993Y51547D01*
X273819Y52181D01*
X274453Y53007D01*
X274851Y53968D01*
X274921Y54500D01*
D02*
G37*
G36*
X281500Y58921D02*
Y55500D01*
X284921D01*
X284851Y56032D01*
X284453Y56993D01*
X283819Y57819D01*
X282993Y58453D01*
X282032Y58851D01*
X281500Y58921D01*
D02*
G37*
G36*
X298520Y65327D02*
X295657D01*
Y59905D01*
X298520D01*
Y65327D01*
D02*
G37*
G36*
X294657D02*
X291795D01*
Y59905D01*
X294657D01*
Y65327D01*
D02*
G37*
G36*
X271500Y58921D02*
Y55500D01*
X274921D01*
X274851Y56032D01*
X274453Y56993D01*
X273819Y57819D01*
X272993Y58453D01*
X272032Y58851D01*
X271500Y58921D01*
D02*
G37*
G36*
X284921Y54500D02*
X281500D01*
Y51079D01*
X282032Y51149D01*
X282993Y51547D01*
X283819Y52181D01*
X284453Y53007D01*
X284851Y53968D01*
X284921Y54500D01*
D02*
G37*
G36*
X280500Y58921D02*
X279968Y58851D01*
X279007Y58453D01*
X278181Y57819D01*
X277547Y56993D01*
X277149Y56032D01*
X277079Y55500D01*
X280500D01*
Y58921D01*
D02*
G37*
G36*
X270500D02*
X269968Y58851D01*
X269007Y58453D01*
X268181Y57819D01*
X267547Y56993D01*
X267149Y56032D01*
X267079Y55500D01*
X270500D01*
Y58921D01*
D02*
G37*
G36*
X298520Y43673D02*
X295657D01*
Y38252D01*
X298520D01*
Y43673D01*
D02*
G37*
G36*
X294657D02*
X291795D01*
Y38252D01*
X294657D01*
Y43673D01*
D02*
G37*
G36*
Y71748D02*
X291795D01*
Y66327D01*
X294657D01*
Y71748D01*
D02*
G37*
G36*
X298520D02*
X295657D01*
Y66327D01*
X298520D01*
Y71748D01*
D02*
G37*
G36*
X318205Y50094D02*
X315342D01*
Y44673D01*
X318205D01*
Y50094D01*
D02*
G37*
G36*
X314342D02*
X311480D01*
Y44673D01*
X314342D01*
Y50094D01*
D02*
G37*
G36*
X344268Y26118D02*
X335500D01*
Y20500D01*
X344268D01*
Y26118D01*
D02*
G37*
G36*
X334500D02*
X325732D01*
Y20500D01*
X334500D01*
Y26118D01*
D02*
G37*
G36*
X344268Y19500D02*
X335500D01*
Y13882D01*
X344268D01*
Y19500D01*
D02*
G37*
G36*
X334500D02*
X325732D01*
Y13882D01*
X334500D01*
Y19500D01*
D02*
G37*
G36*
X318205Y43673D02*
X315342D01*
Y38252D01*
X318205D01*
Y43673D01*
D02*
G37*
G36*
X314342D02*
X311480D01*
Y38252D01*
X314342D01*
Y43673D01*
D02*
G37*
G36*
X304500Y183500D02*
X294000D01*
Y174000D01*
X304500D01*
Y183500D01*
D02*
G37*
G36*
X316000Y96000D02*
X305500D01*
Y86500D01*
X316000D01*
Y96000D01*
D02*
G37*
G36*
Y183500D02*
X305500D01*
Y174000D01*
X316000D01*
Y183500D01*
D02*
G37*
G36*
Y194000D02*
X305500D01*
Y184500D01*
X316000D01*
Y194000D01*
D02*
G37*
G36*
X304500D02*
X294000D01*
Y184500D01*
X304500D01*
Y194000D01*
D02*
G37*
G36*
X314342Y71748D02*
X311480D01*
Y66327D01*
X314342D01*
Y71748D01*
D02*
G37*
G36*
X318205Y65327D02*
X315342D01*
Y59905D01*
X318205D01*
Y65327D01*
D02*
G37*
G36*
X314342D02*
X311480D01*
Y59905D01*
X314342D01*
Y65327D01*
D02*
G37*
G36*
X323500Y65500D02*
X321550D01*
X321645Y65025D01*
X322198Y64198D01*
X323025Y63645D01*
X323500Y63551D01*
Y65500D01*
D02*
G37*
G36*
X304500Y85500D02*
X294000D01*
Y76000D01*
X304500D01*
Y85500D01*
D02*
G37*
G36*
X316000D02*
X305500D01*
Y76000D01*
X316000D01*
Y85500D01*
D02*
G37*
G36*
X304500Y96000D02*
X294000D01*
Y86500D01*
X304500D01*
Y96000D01*
D02*
G37*
G36*
X318205Y71748D02*
X315342D01*
Y66327D01*
X318205D01*
Y71748D01*
D02*
G37*
%LPD*%
D12*
X124000Y18543D02*
D03*
Y11457D02*
D03*
X182000Y18543D02*
D03*
Y11457D02*
D03*
X165000Y152457D02*
D03*
Y159543D02*
D03*
X153000Y153457D02*
D03*
Y160543D02*
D03*
X246000Y103574D02*
D03*
Y96488D02*
D03*
X235000Y102457D02*
D03*
Y109543D02*
D03*
X79800Y76457D02*
D03*
Y83543D02*
D03*
X81500Y63543D02*
D03*
Y56457D02*
D03*
X90000Y95543D02*
D03*
Y88457D02*
D03*
X90000Y72457D02*
D03*
Y79543D02*
D03*
X12000Y139543D02*
D03*
Y132457D02*
D03*
X200000Y116457D02*
D03*
Y123543D02*
D03*
X156000Y116457D02*
D03*
Y123543D02*
D03*
X154000Y83543D02*
D03*
Y76457D02*
D03*
X202000Y83543D02*
D03*
Y76457D02*
D03*
D14*
X152457Y154000D02*
X153000Y153457D01*
X147000Y154000D02*
X152457D01*
X124000Y11457D02*
X124457Y11000D01*
X182000Y11457D02*
X183457Y10000D01*
X62209Y86000D02*
X63550Y87342D01*
X166260Y143740D02*
Y151197D01*
Y140740D02*
Y143740D01*
X165000Y152457D02*
X166260Y151197D01*
X197543Y156543D02*
Y160000D01*
X165000Y159543D02*
X165000Y159543D01*
Y173000D01*
X170000Y136260D02*
Y147000D01*
X159043Y162000D02*
X160087D01*
X153000Y160543D02*
X158543D01*
X181000Y160000D02*
Y170000D01*
Y144000D02*
Y160000D01*
X181000Y160000D01*
X190457D01*
X182000Y46000D02*
X182000Y46000D01*
Y18543D02*
Y46000D01*
X124000Y60000D02*
X167520D01*
X116000D02*
X124000D01*
X124000Y60000D01*
Y18543D02*
Y60000D01*
X100000Y81100D02*
X100550Y80550D01*
X246000Y90000D02*
Y96488D01*
X222000Y90000D02*
X246000D01*
Y103574D02*
Y110000D01*
X235000Y109543D02*
X236000Y110543D01*
Y116000D01*
X235000Y102457D02*
X236000Y101457D01*
Y94000D02*
Y101457D01*
X153512Y32000D02*
X153512Y32000D01*
X168000D01*
X146000Y32000D02*
Y50000D01*
X148500Y105100D02*
Y143500D01*
X148000Y144000D02*
X148500Y143500D01*
X66874Y92874D02*
X70000Y96000D01*
X66840Y90800D02*
X70800D01*
X72000Y92000D01*
X65765Y89724D02*
X66840Y90800D01*
X61634Y89724D02*
X65765D01*
X72000Y92000D02*
X74000D01*
X148000Y88000D02*
Y96000D01*
X122000Y111543D02*
X124457Y114000D01*
X122000Y102000D02*
Y111543D01*
X118000Y114000D02*
Y164000D01*
X120000Y166000D01*
X122000Y94000D02*
Y102000D01*
Y94000D02*
X124000Y92000D01*
X37346Y54000D02*
X46000D01*
X68000Y14000D02*
X79142D01*
X28653Y38000D02*
X38000D01*
X186000Y52000D02*
X186260D01*
X196000D01*
X64024Y96024D02*
X70000Y102000D01*
X144000Y108000D02*
Y180000D01*
X254000Y26000D02*
Y166000D01*
X222000Y90000D02*
Y112000D01*
X216000Y32000D02*
Y108000D01*
X210000Y102000D02*
Y156000D01*
X108000Y34457D02*
X108457Y34000D01*
X108000Y34457D02*
Y86000D01*
X104000Y177543D02*
X106457Y180000D01*
X104000Y128000D02*
Y177543D01*
X100000Y110000D02*
Y128000D01*
Y81100D02*
Y110000D01*
X103275Y46000D02*
Y95275D01*
X108000Y96000D02*
Y118000D01*
Y86000D02*
Y96000D01*
X112000Y42000D02*
Y106000D01*
X100000Y80000D02*
X100550Y80550D01*
X137543Y180000D02*
X137543Y180000D01*
X144000D01*
X148000Y144000D02*
X166000D01*
X186260Y52000D02*
Y52520D01*
Y51740D02*
Y52000D01*
X170740D02*
X171260Y52520D01*
X160000Y52000D02*
X170740D01*
X186000Y128000D02*
Y133260D01*
X156000Y130000D02*
X156000Y130000D01*
X156000Y123543D02*
Y130000D01*
X200000D02*
X200000Y130000D01*
X200000Y123543D02*
Y130000D01*
X202000Y70000D02*
X202000Y70000D01*
Y76457D01*
X154000Y70000D02*
X154000Y70000D01*
Y76457D01*
X96858Y13661D02*
Y46339D01*
X94000Y56653D02*
X96858Y53795D01*
Y46339D02*
Y53795D01*
X10000Y56000D02*
Y62000D01*
Y38000D02*
Y56000D01*
X18693D02*
X20000Y54693D01*
X10000Y56000D02*
X18693D01*
X19543Y38000D02*
X20000Y37543D01*
X10000Y38000D02*
X19543D01*
X100000Y178000D02*
Y190000D01*
Y134000D02*
Y178000D01*
X90000D02*
X100000D01*
X92764Y190000D02*
X100000D01*
X56000Y134000D02*
X58000D01*
X51622Y138378D02*
X56000Y134000D01*
X46000Y138378D02*
X51622D01*
X43622Y136000D02*
X46000Y138378D01*
X34000Y136000D02*
X43622D01*
X16457Y139543D02*
X18000Y138000D01*
X12000Y139543D02*
X16457D01*
X14000Y132457D02*
X16276Y130181D01*
Y89724D02*
Y130181D01*
X22000Y92874D02*
X28366D01*
X22000D02*
Y170000D01*
X16276Y89724D02*
X28366D01*
X181000Y144000D02*
X181260Y143740D01*
X269000Y26000D02*
X270000Y25000D01*
X254000Y26000D02*
X269000D01*
X60000Y112147D02*
Y114000D01*
X53641Y105788D02*
X60000Y112147D01*
X53641Y102401D02*
Y105788D01*
X52874Y101634D02*
X53641Y102401D01*
X182000Y46000D02*
Y59480D01*
X182520Y60000D01*
X63634Y101634D02*
X68000Y106000D01*
X56024Y101634D02*
X63634D01*
X61634Y96024D02*
X64024D01*
X116000Y60000D02*
Y92000D01*
X92000Y118000D02*
X100000Y110000D01*
X92457Y86000D02*
X96000D01*
X90457Y80000D02*
X100000D01*
X166000Y144000D02*
X166260Y143740D01*
X76000Y118000D02*
X84000D01*
X61634Y92874D02*
X66874D01*
X63550Y87342D02*
X67342D01*
X68000Y88000D01*
X61634Y83425D02*
X69425D01*
X61634Y86575D02*
X62209Y86000D01*
X90000Y79543D02*
X90457Y80000D01*
X67724Y80276D02*
X68000Y80000D01*
X61634Y77126D02*
X77331D01*
X61634Y80276D02*
X67724D01*
X77331Y77126D02*
X78000Y76457D01*
X28000Y37347D02*
X28653Y38000D01*
X64000D02*
Y60000D01*
Y30921D02*
Y38000D01*
Y30921D02*
X64921Y30000D01*
X52874Y61126D02*
X54000Y60000D01*
X52874Y61126D02*
Y68366D01*
X49724Y54000D02*
Y68366D01*
X55347Y54000D02*
X56000Y53347D01*
X49724Y54000D02*
X55347D01*
X49724Y30000D02*
Y54000D01*
Y30000D02*
X55079D01*
X68000Y14000D02*
Y24000D01*
X46000D02*
Y54000D01*
Y67791D01*
X42000Y62000D02*
X43425Y63425D01*
Y68366D01*
X90000Y120000D02*
X92000Y118000D01*
X89268Y80276D02*
X90000Y79543D01*
X46000Y67791D02*
X46575Y68366D01*
X42658Y67599D02*
X43425Y68366D01*
X28091Y90000D02*
X28366Y89724D01*
X36000Y118000D02*
X40276Y113724D01*
Y101634D02*
Y113724D01*
X43425Y113425D02*
X48000Y118000D01*
X43425Y101634D02*
Y113425D01*
X79142Y46339D02*
Y54142D01*
X81457Y56457D01*
X81500D01*
X90000Y88457D02*
X92457Y86000D01*
X72100Y86100D02*
X73400D01*
X69425Y83425D02*
X72100Y86100D01*
X0Y0D02*
X353000D01*
X0D02*
Y203000D01*
X353000D01*
Y0D02*
Y203000D01*
D15*
X178000Y84000D02*
X201543D01*
X177543Y83543D02*
X178000Y84000D01*
X201543D02*
X202000Y83543D01*
X64710Y74000D02*
X70000D01*
X64703Y73993D02*
X64710Y74000D01*
X61651Y73993D02*
X64703D01*
X61634Y73976D02*
X61651Y73993D01*
X127854Y104900D02*
X128100Y104654D01*
Y98600D02*
Y104654D01*
X146840Y101200D02*
X176743D01*
X145840Y102200D02*
X146840Y101200D01*
X176743D02*
X177543Y102000D01*
X140000Y105300D02*
Y114000D01*
Y104000D02*
Y105300D01*
X135047Y104800D02*
X135547Y105300D01*
X140000D01*
X141800Y102200D02*
X145840D01*
X140000Y104000D02*
X141800Y102200D01*
X132000Y114000D02*
X140000D01*
X20000Y48000D02*
X26000D01*
X338740Y61260D02*
X343260D01*
X324000Y38000D02*
X327000Y35000D01*
X335000D01*
X173740Y143740D02*
Y151740D01*
X189740Y143740D02*
Y151740D01*
X175000Y60000D02*
Y67000D01*
X190000Y60000D02*
Y68000D01*
X46000Y185622D02*
X59622D01*
X64000Y190000D01*
X78000D01*
X38000Y46654D02*
X42000Y42654D01*
Y32000D02*
Y42654D01*
X36000Y32000D02*
X42000D01*
X34654Y30654D02*
X36000Y32000D01*
X30000Y30654D02*
X34654D01*
X80000Y83543D02*
X80000Y83543D01*
Y98000D01*
X94000Y63346D02*
X96000Y65346D01*
Y70000D01*
X70000Y38000D02*
Y44653D01*
X56000Y46654D02*
X60000Y42654D01*
Y34000D02*
Y42654D01*
X70000Y69346D02*
X72000Y67347D01*
X70000Y69346D02*
Y74000D01*
X28000Y96390D02*
X28366Y96024D01*
X28000Y96390D02*
Y108000D01*
X178000Y130000D02*
Y166000D01*
X177543Y102000D02*
Y116457D01*
Y83543D02*
Y102000D01*
Y116457D02*
X200000D01*
X156000D02*
X177543D01*
Y129543D01*
X178000Y130000D01*
X154000Y83543D02*
X177543D01*
X202000D02*
X209543D01*
X210000Y84000D01*
Y38000D02*
Y84000D01*
D16*
X124457Y11000D02*
X133000D01*
X183457Y10000D02*
X190000D01*
X193000Y152000D02*
X197543Y156543D01*
X190000Y152000D02*
X193000D01*
X324300Y115400D02*
X325900Y113800D01*
Y70360D02*
Y113800D01*
Y70360D02*
X331260Y65000D01*
X338740Y68740D02*
X341480Y66000D01*
X344000D01*
X331260Y53740D02*
X335000Y50000D01*
X331260Y53740D02*
Y65000D01*
D20*
X270000D02*
D03*
X280000D02*
D03*
X271000Y55000D02*
D03*
X281000D02*
D03*
X270000Y45000D02*
D03*
X280000D02*
D03*
X271000Y35000D02*
D03*
X281000D02*
D03*
X270000Y25000D02*
D03*
D21*
X280000D02*
D03*
D22*
X133000Y11000D02*
D03*
X190000Y10000D02*
D03*
X165000Y173000D02*
D03*
X170000Y147000D02*
D03*
X159043Y162000D02*
D03*
X147000Y154000D02*
D03*
X246000Y110000D02*
D03*
X236000Y116000D02*
D03*
Y94000D02*
D03*
X168000Y32000D02*
D03*
X128100Y98600D02*
D03*
X148500Y105100D02*
D03*
X70000Y96000D02*
D03*
X74000Y92000D02*
D03*
X148000Y96000D02*
D03*
X118000Y114000D02*
D03*
X122000Y102000D02*
D03*
X64000Y190000D02*
D03*
X344000Y62000D02*
D03*
X324000Y38000D02*
D03*
X174000Y152000D02*
D03*
X190000D02*
D03*
X176000Y68000D02*
D03*
X190000D02*
D03*
X26000Y48000D02*
D03*
X42000Y32000D02*
D03*
X38000Y38000D02*
D03*
X70000Y102000D02*
D03*
X80000Y98000D02*
D03*
X96000Y70000D02*
D03*
X70000Y38000D02*
D03*
X60000Y34000D02*
D03*
X70000Y74000D02*
D03*
X28000Y108000D02*
D03*
X144000D02*
D03*
X178000Y130000D02*
D03*
X254000Y166000D02*
D03*
X344000Y66000D02*
D03*
X324000D02*
D03*
X222000Y112000D02*
D03*
X216000Y32000D02*
D03*
Y108000D02*
D03*
X210000Y156000D02*
D03*
Y102000D02*
D03*
X146000Y50000D02*
D03*
X104000Y128000D02*
D03*
X100000D02*
D03*
Y110000D02*
D03*
X103275Y95275D02*
D03*
X108000Y96000D02*
D03*
X112000Y106000D02*
D03*
X108000Y86000D02*
D03*
X196000Y52000D02*
D03*
X160000D02*
D03*
X186000Y128000D02*
D03*
X156000Y130000D02*
D03*
X200000D02*
D03*
X202000Y70000D02*
D03*
X154000D02*
D03*
X10000Y62000D02*
D03*
X100000Y134000D02*
D03*
X58000D02*
D03*
X34000Y136000D02*
D03*
X18000Y138000D02*
D03*
X22000Y170000D02*
D03*
X181000D02*
D03*
X120000Y166000D02*
D03*
X60000Y114000D02*
D03*
X112000Y42000D02*
D03*
X182000Y46000D02*
D03*
X103275D02*
D03*
X68000Y106000D02*
D03*
X124000Y92000D02*
D03*
X116000D02*
D03*
X96000Y86000D02*
D03*
X100000Y80000D02*
D03*
X148000Y88000D02*
D03*
X108000Y118000D02*
D03*
X84000D02*
D03*
X68000Y88000D02*
D03*
Y80000D02*
D03*
X64000Y38000D02*
D03*
Y60000D02*
D03*
X54000D02*
D03*
X68000Y24000D02*
D03*
X46000D02*
D03*
X42000Y62000D02*
D03*
X73400Y86100D02*
D03*
D23*
X115543Y32000D02*
D03*
X108457D02*
D03*
X190457Y160000D02*
D03*
X197543D02*
D03*
X146426Y32000D02*
D03*
X153512D02*
D03*
X113543Y180000D02*
D03*
X106457D02*
D03*
X130457Y180000D02*
D03*
X137543D02*
D03*
X131543Y114000D02*
D03*
X124457D02*
D03*
D24*
X127854Y104900D02*
D03*
X134546D02*
D03*
D25*
X64921Y30000D02*
D03*
X55079D02*
D03*
D26*
X96858Y13661D02*
D03*
Y46339D02*
D03*
X79142D02*
D03*
Y13661D02*
D03*
D27*
X56024Y68366D02*
D03*
X52874D02*
D03*
X49724D02*
D03*
X46575D02*
D03*
X43425D02*
D03*
X40276D02*
D03*
X37126D02*
D03*
X33976D02*
D03*
Y101634D02*
D03*
X37126D02*
D03*
X40276D02*
D03*
X43425D02*
D03*
X46575D02*
D03*
X49724D02*
D03*
X52874D02*
D03*
X56024D02*
D03*
D28*
X28366Y73976D02*
D03*
Y77126D02*
D03*
Y80276D02*
D03*
Y83425D02*
D03*
Y86575D02*
D03*
Y89724D02*
D03*
Y92874D02*
D03*
Y96024D02*
D03*
X61634D02*
D03*
Y92874D02*
D03*
Y89724D02*
D03*
Y86575D02*
D03*
Y83425D02*
D03*
Y80276D02*
D03*
Y77126D02*
D03*
Y73976D02*
D03*
D29*
X48000Y118000D02*
D03*
X36000D02*
D03*
X315000Y20000D02*
D03*
X300000D02*
D03*
X76000Y118000D02*
D03*
X92000D02*
D03*
D30*
X295158Y65827D02*
D03*
X305000D02*
D03*
X314843D02*
D03*
X295158Y44173D02*
D03*
X305000D02*
D03*
X314843D02*
D03*
D31*
X20000Y30457D02*
D03*
Y37543D02*
D03*
D32*
Y48000D02*
D03*
Y54693D02*
D03*
X30000Y37347D02*
D03*
Y30654D02*
D03*
X56000Y53347D02*
D03*
Y46654D02*
D03*
X70000Y44653D02*
D03*
Y51346D02*
D03*
X72000Y67347D02*
D03*
Y60654D02*
D03*
X38000Y46654D02*
D03*
Y53347D02*
D03*
X94000Y63346D02*
D03*
Y56653D02*
D03*
D33*
X335000Y20000D02*
D03*
Y50000D02*
D03*
Y35000D02*
D03*
X90000Y178000D02*
D03*
D34*
X46000Y138378D02*
D03*
Y185622D02*
D03*
D35*
X92764Y190000D02*
D03*
X78000D02*
D03*
D36*
X182520Y60000D02*
D03*
X190000D02*
D03*
X186260Y52520D02*
D03*
X167520Y60000D02*
D03*
X175000D02*
D03*
X171260Y52520D02*
D03*
X166260Y140740D02*
D03*
X173740D02*
D03*
X170000Y133260D02*
D03*
X182260Y141740D02*
D03*
X189740D02*
D03*
X186000Y134260D02*
D03*
D37*
X338740Y68740D02*
D03*
Y61260D02*
D03*
X331260Y65000D02*
D03*
D38*
X305000Y86000D02*
D03*
Y184000D02*
D03*
D39*
Y135000D02*
D03*
D40*
X270000Y65000D02*
X280000D01*
M02*
